<svg width="52" height="52" viewBox="0 0 52 52" fill="none" xmlns="http://www.w3.org/2000/svg">
<rect x="1" y="1" width="50" height="50" rx="25" fill="url(#paint0_linear_98_307)"/>
<rect x="1" y="1" width="50" height="50" rx="25" stroke="url(#paint1_linear_98_307)" stroke-width="2" stroke-miterlimit="10"/>
<path d="M39.0701 37.6196L27.0889 41.7944L27.1597 42.5289L39.9433 38.1684L39.0701 37.6196Z" fill="white" stroke="white" stroke-miterlimit="10"/>
<path d="M15.9038 22.0891C16.0136 22.0941 16.1233 22.0801 16.2284 22.0479C16.6768 21.8206 17.1134 21.5759 17.5618 21.3368L18.3436 20.9209C18.9013 20.6259 19.4559 20.3308 20.0165 20.0357C20.1116 19.9903 20.2103 19.9528 20.3115 19.9237C20.5151 19.8587 20.7099 19.8263 20.8012 20.0889C20.8413 20.1987 20.8398 20.3195 20.7967 20.4282C20.7538 20.5368 20.6725 20.6261 20.5682 20.679C20.0725 20.9385 19.5857 21.2218 19.0931 21.4873C18.6476 21.7233 18.1932 21.9417 17.7506 22.1806C16.8656 22.6585 15.9657 23.1513 15.0689 23.6292C14.6165 23.8711 14.1572 24.1003 13.6911 24.3166C13.3105 24.4908 13.2721 24.6323 13.5937 24.9067C14.6705 25.7917 15.7533 26.6562 16.839 27.5295C16.9417 27.6038 17.0402 27.6836 17.134 27.7685C17.2718 27.9098 17.4431 28.0137 17.632 28.0705C17.8209 28.1273 18.0211 28.135 18.2139 28.093C18.9869 27.9927 19.7717 27.9898 20.5476 27.9337C21.0786 27.8953 21.6068 27.8305 22.1378 27.7921C22.3719 27.7554 22.6106 27.7604 22.8429 27.8069C22.9162 27.8487 22.9792 27.9064 23.0272 27.9759C23.0752 28.0454 23.107 28.1247 23.1203 28.2081C23.1203 28.3084 22.9668 28.5031 22.8517 28.5297C22.5603 28.5913 22.2643 28.6288 21.9666 28.6418C21.2999 28.7008 20.6332 28.751 19.9634 28.807C19.512 28.8453 19.0577 28.8778 18.6093 28.9398C18.3289 28.9781 18.2818 29.1138 18.4322 29.3469L20.3912 32.3798C21.055 33.4094 21.71 34.445 22.3797 35.4628C22.8311 36.1562 23.3061 36.8348 23.7575 37.5281C24.2855 38.3483 24.7959 39.1832 25.3152 40.0093C25.5837 40.4371 25.8522 40.8648 26.1325 41.2809C26.2416 41.4402 26.3774 41.5759 26.6046 41.4166C26.8317 41.2573 26.9438 41.3665 27.0058 41.5936C27.0235 41.6615 27.0441 41.7263 27.0619 41.7942C27.283 42.5642 27.2595 42.6143 26.4717 42.7678C26.329 42.7858 26.1843 42.7547 26.0617 42.6793C24.4665 41.6958 22.8743 40.6996 21.2851 39.6907C19.4442 38.5342 17.6051 37.3718 15.7681 36.2034C15.6087 36.096 15.4885 35.9397 15.4258 35.7579C14.7915 33.734 14.1809 31.7071 13.5584 29.6832C13.0627 28.0665 12.5729 26.438 12.0536 24.8418C11.992 24.6914 11.9832 24.5247 12.0287 24.3687C12.0742 24.2127 12.1716 24.0767 12.3044 23.9832C13.7206 22.7146 15.1278 21.4342 16.541 20.1626C17.5579 19.2481 18.5777 18.3374 19.6005 17.4307C19.7953 17.2565 19.9634 17.289 20.046 17.5309C20.0936 17.6418 20.1062 17.7645 20.0819 17.8827C20.0577 18.0009 19.9977 18.1088 19.9103 18.1918L16.7033 21.1628L15.8182 21.9829L15.9038 22.0891ZM24.6101 40.7085L24.678 40.6377C24.6486 40.5154 24.606 40.3968 24.5512 40.2837C24.2207 39.7585 23.8784 39.2392 23.5392 38.72C22.9137 37.77 22.2852 36.8259 21.6627 35.8759C21.0019 34.8669 20.345 33.8569 19.6919 32.8459C19.1019 31.9609 18.5443 31.0493 17.966 30.1553C17.8955 30.0711 17.8142 29.9967 17.7241 29.934C17.6527 30.0233 17.5951 30.1227 17.553 30.229C17.1901 31.8664 16.842 33.5069 16.4673 35.1413C16.3817 35.5012 16.5351 35.6546 16.8065 35.8228C18.326 36.7669 19.8365 37.7257 21.3471 38.6816C22.3443 39.316 23.3385 39.9562 24.3386 40.5876C24.4256 40.6354 24.5164 40.6759 24.6101 40.7085ZM15.7887 33.6278L15.889 33.5953C15.9074 33.552 15.9231 33.5077 15.9363 33.4625C16.2666 31.9609 16.5882 30.4563 16.9246 28.9574C16.9747 28.7391 16.8509 28.6477 16.7181 28.5415C15.7533 27.7625 14.7886 26.9807 13.8179 26.2078C13.704 26.14 13.5821 26.0864 13.455 26.0485C13.455 26.1872 13.455 26.3258 13.455 26.4645C13.4654 26.5123 13.4813 26.5589 13.5023 26.6031C13.7294 27.2846 13.9625 27.9603 14.1779 28.6418C14.6588 30.1789 15.1308 31.7189 15.6118 33.256C15.6624 33.3838 15.7215 33.5079 15.7887 33.6278Z" fill="white" stroke="white" stroke-miterlimit="10"/>
<path d="M36.1053 28.2351C35.9549 28.4505 35.8103 28.6716 35.6539 28.8812C35.6008 28.952 35.4946 29.0522 35.4386 29.0375C35.3907 29.0185 35.3469 28.9901 35.3101 28.9542C35.2731 28.9183 35.2436 28.8754 35.2232 28.8281C35.1592 28.6867 35.1319 28.5315 35.1438 28.3769C35.1556 28.2222 35.2063 28.073 35.291 27.9429C35.4326 27.6863 35.3884 27.6479 35.0934 27.6096C34.7984 27.5712 34.816 27.3529 34.7629 27.1759C34.7494 27.1383 34.7442 27.0984 34.7478 27.0586C34.7513 27.0189 34.7635 26.9805 34.7835 26.9459C34.8035 26.9114 34.8306 26.8816 34.8633 26.8586C34.8959 26.8356 34.9332 26.8201 34.9724 26.813C35.5624 26.6065 35.5624 26.5623 35.1582 26.0577C34.8632 25.6506 34.5948 25.1992 34.3204 24.7655C34.2863 24.6928 34.2469 24.6228 34.2024 24.5561C33.9243 24.2161 33.7403 23.8092 33.6683 23.376C33.6035 23.0809 33.509 22.8213 33.4412 22.5409C33.4303 22.4429 33.4303 22.344 33.4412 22.2459L33.5298 22.2312C33.872 22.721 34.2132 23.2126 34.5535 23.7063C35.0639 24.4469 35.5654 25.1815 36.0758 25.9309C36.241 26.1728 36.3708 26.1639 36.536 25.8984C37.5982 24.1135 38.6544 22.3257 39.7194 20.5407C39.7494 20.5049 39.7708 20.4629 39.7822 20.4177C39.7936 20.3725 39.7947 20.3254 39.7853 20.2797C39.7759 20.2341 39.7564 20.1911 39.7282 20.1541C39.6998 20.117 39.6637 20.0868 39.6221 20.0657C38.2217 18.9859 36.8232 17.9042 35.4267 16.8203C34.1345 15.8133 32.8452 14.8033 31.559 13.7905C31.4768 13.718 31.3879 13.6538 31.2933 13.5987C30.7298 13.3037 30.6413 12.7725 30.5293 12.2386C30.5388 12.1516 30.5566 12.0655 30.5824 11.9819C30.7534 12.1205 30.8774 12.2267 31.0072 12.3271C33.7058 14.3707 36.4033 16.4152 39.0998 18.4608C39.6457 18.8737 40.1856 19.2957 40.7373 19.7058C40.8272 19.774 40.8981 19.8639 40.9436 19.9672C40.989 20.0704 41.0073 20.1835 40.9969 20.2959C40.9585 21.6146 40.9291 22.9304 40.8907 24.2492C40.8523 25.5681 40.8081 26.8042 40.7726 28.0846C40.7373 29.365 40.7136 30.6573 40.6783 31.9435C40.6488 33.0618 40.6074 34.177 40.5751 35.2951C40.5485 36.0858 40.5396 36.8765 40.4924 37.6554C40.4843 37.7343 40.4579 37.8103 40.4154 37.8774C40.373 37.9445 40.3155 38.0008 40.2476 38.0419C39.6575 38.266 39.0438 38.4491 38.439 38.632C38.1971 38.7086 38.144 38.5345 38.1056 38.3635C38.0672 38.1923 37.9404 37.9946 38.2296 37.9003C38.5187 37.8058 38.7901 37.6966 39.0703 37.6052C39.4509 37.4636 39.51 37.3102 39.3653 36.9502C39.1678 36.4074 38.9789 35.8645 38.7901 35.3216C38.5246 34.5517 38.2679 33.7816 37.9994 33.0146C37.5077 31.6102 37.01 30.2068 36.5065 28.8045C36.4206 28.6086 36.322 28.4183 36.2115 28.2351H36.1053ZM39.9761 22.2401L39.8581 22.2135C39.796 22.2832 39.7388 22.3572 39.687 22.4347C38.7901 23.902 37.8932 25.3683 36.9963 26.8337C36.9301 26.9262 36.8884 27.0339 36.875 27.1469C36.8616 27.2598 36.8769 27.3743 36.9196 27.4798C37.129 28.0374 37.3267 28.5979 37.5273 29.1584C37.6071 29.3827 37.666 29.6159 37.7486 29.84C38.0987 30.8234 38.4528 31.802 38.8107 32.7756C39.0074 33.3479 39.2149 33.9173 39.4333 34.4838C39.4841 34.577 39.5454 34.6642 39.6161 34.7435L39.6958 34.711C39.8001 30.555 39.8935 26.398 39.9761 22.2401Z" fill="white" stroke="white" stroke-miterlimit="10"/>
<path d="M29.7326 12.2261C29.5291 12.117 29.3227 12.0137 29.122 11.8988C29.0364 11.8515 28.9744 11.7601 28.8889 11.7157C28.7996 11.6821 28.7064 11.6592 28.6116 11.6479C28.5798 11.743 28.5638 11.8427 28.5644 11.943C28.7148 12.8104 28.8771 13.6748 29.0275 14.5392C29.057 14.7133 29.0541 14.8933 29.0689 15.0703C29.122 15.737 29.5173 16.2503 29.8684 16.7667C30.541 17.7787 31.261 18.764 31.8657 19.8173C32.208 20.4074 32.3584 21.1124 32.5827 21.7674C32.5921 21.8547 32.584 21.943 32.5591 22.0271H32.4853C32.2227 21.6523 31.9543 21.2806 31.6947 20.903C31.1695 20.136 30.6531 19.3659 30.131 18.5988C29.7003 17.9616 29.2607 17.3273 28.8358 16.687C28.7001 16.4835 28.585 16.4716 28.3726 16.5986C27.9772 16.8346 27.5524 17.0264 27.1364 17.2299C27.1099 17.2359 27.0823 17.2353 27.056 17.2281C27.0298 17.2209 27.0057 17.2074 26.986 17.1886C26.9282 17.1194 26.887 17.038 26.8656 16.9504C26.8443 16.8628 26.8432 16.7715 26.8626 16.6836C26.882 16.5955 26.9212 16.5131 26.9774 16.4426C27.0336 16.3722 27.1051 16.3155 27.1866 16.2769C27.5268 16.1187 27.8543 15.9342 28.166 15.7253C28.2146 15.6768 28.2514 15.6178 28.2734 15.5528C28.2953 15.4877 28.3021 15.4185 28.293 15.3506C28.1365 14.4271 27.9566 13.5066 27.7914 12.5832C27.7383 12.2881 27.7206 11.9931 27.6556 11.6981C27.5908 11.4031 27.4581 11.3706 27.2219 11.58C26.8355 11.9223 26.4549 12.2705 26.0714 12.6156C25.8324 12.834 25.7586 12.7985 25.6317 12.5124C25.5621 12.369 25.5475 12.2048 25.5911 12.0513C25.6346 11.8979 25.7331 11.7659 25.8677 11.6804C26.4372 11.173 27.0125 10.6714 27.5671 10.1491C27.6018 10.1053 27.6456 10.0693 27.6952 10.0436C27.745 10.018 27.7997 10.0032 27.8555 10.0005C27.9114 9.99766 27.9673 10.0069 28.0193 10.0274C28.0713 10.048 28.1184 10.0794 28.1573 10.1196C28.6352 10.515 29.2163 10.8041 29.5291 11.3736C29.6426 11.6181 29.7411 11.8694 29.8242 12.1259L29.7326 12.2261Z" fill="white" stroke="white" stroke-miterlimit="10"/>
<path d="M30.2833 27.1366L31.3159 27.054C31.9355 27.0038 32.552 26.9478 33.1716 26.9065C33.3962 26.8697 33.6258 26.8777 33.8472 26.9301C33.9224 26.9711 33.9877 27.028 34.0386 27.0968C34.0896 27.1655 34.1249 27.2446 34.1422 27.3284C34.16 27.4169 34.0095 27.6234 33.9033 27.6234C33.5655 27.6919 33.2235 27.7382 32.8795 27.7621C32.5462 27.7945 32.2128 27.8152 31.8794 27.8388L30.7583 27.9125C30.6699 27.9066 30.5811 27.9066 30.4928 27.9125C30.1329 27.9745 29.9882 27.8859 29.9027 27.5584C29.8172 27.2311 30.0532 27.2073 30.2833 27.1366Z" fill="white" stroke="white" stroke-miterlimit="10"/>
<path d="M25.8667 11.707L19.6387 17.4306L19.9484 18.1918L26.0703 12.6422L25.8667 11.707Z" fill="white" stroke="white" stroke-miterlimit="10"/>
<path d="M20.0176 20.0358L27.827 15.9614L28.0601 16.7934L20.2506 20.8648L20.0176 20.0358Z" fill="white" stroke="white" stroke-miterlimit="10"/>
<path d="M33.9487 24.1989L32.4853 22.0482L31.8008 19.6348L34.3764 23.4466L33.9487 24.1989Z" fill="white" stroke="white" stroke-miterlimit="10"/>
<path d="M31.3168 27.0552L21.7432 27.8253L21.991 28.6396L32.8687 27.7781L31.3168 27.0552Z" fill="white" stroke="white" stroke-miterlimit="10"/>
<path d="M34.9736 26.8154L33.1738 26.9069L33.581 27.6975L35.0945 27.6121L34.9736 26.8154Z" fill="white" stroke="white" stroke-miterlimit="10"/>
<path d="M35.2911 27.9453L26.6289 41.4164L27.16 42.5286L35.6539 28.8805L35.2911 27.9453Z" fill="white" stroke="white" stroke-miterlimit="10"/>
<path d="M28.9614 10.7632L31.3895 12.6072L31.2892 13.5867L28.6104 11.6484L28.9614 10.7632Z" fill="white" stroke="white" stroke-miterlimit="10"/>
<defs>
<linearGradient id="paint0_linear_98_307" x1="1" y1="26" x2="51" y2="26" gradientUnits="userSpaceOnUse">
<stop stop-color="#294E8A"/>
<stop offset="0.27" stop-color="#03A5A7"/>
<stop offset="0.47" stop-color="#01A683"/>
<stop offset="0.7" stop-color="#03A5A4"/>
<stop offset="1" stop-color="#294E8A"/>
</linearGradient>
<linearGradient id="paint1_linear_98_307" x1="0.9284" y1="26" x2="51.0716" y2="26" gradientUnits="userSpaceOnUse">
<stop stop-color="#294E8A"/>
<stop offset="0.27" stop-color="#03A5A7"/>
<stop offset="0.47" stop-color="#01A683"/>
<stop offset="0.7" stop-color="#03A5A4"/>
<stop offset="1" stop-color="#294E8A"/>
</linearGradient>
</defs>
</svg>
