<svg width="182" height="50" viewBox="0 0 182 50" fill="none" xmlns="http://www.w3.org/2000/svg">
<path d="M156.744 3.83398H25.2584C13.5681 3.83398 4.09131 13.3108 4.09131 25.0011C4.09131 36.6914 13.5681 46.1682 25.2584 46.1682H156.744C168.434 46.1682 177.911 36.6914 177.911 25.0011C177.911 13.3108 168.434 3.83398 156.744 3.83398Z" fill="url(#paint0_linear_58_26)" stroke="url(#paint1_linear_58_26)" stroke-width="2" stroke-miterlimit="10"/>
<path d="M157.142 1.14355H24.8578C11.6815 1.14355 1 11.8245 1 25.0001C1 38.1757 11.6815 48.8566 24.8578 48.8566H157.142C170.319 48.8566 181 38.1757 181 25.0001C181 11.8245 170.319 1.14355 157.142 1.14355Z" stroke="url(#paint2_linear_58_26)" stroke-miterlimit="10"/>
<path d="M26.9365 38.1489V11.8618H37.7516C40.0747 11.8618 42.0709 12.231 43.7403 12.9695C45.3149 13.6325 46.6557 14.7505 47.5909 16.1804C48.4919 17.5809 48.9424 19.2585 48.9424 21.2133C48.9424 23.1398 48.4919 24.7917 47.5909 26.169C46.6439 27.5841 45.3061 28.6936 43.7403 29.3625C42.0809 30.1109 40.0847 30.4859 37.7516 30.4876H29.677L31.8176 28.3096V38.1489H26.9365ZM31.8176 28.8348L29.677 26.4702H37.5251C39.6823 26.4702 41.3035 26.0072 42.3887 25.0813C43.4739 24.1554 44.019 22.866 44.024 21.2133C44.024 19.5539 43.4789 18.2704 42.3887 17.3627C41.2985 16.455 39.6773 15.9978 37.5251 15.9912H29.677L31.8176 13.5892V28.8348ZM44.136 38.1489L37.4877 28.6108H42.7148L49.3979 38.1489H44.136Z" fill="white"/>
<path d="M95.7041 38.1489V11.8618H100.588V38.1489H95.7041ZM100.025 31.9536L99.7986 26.169L113.543 11.8618H119.064L107.614 24.0284L104.911 26.9954L100.025 31.9536ZM114.031 38.1489L103.918 26.169L107.184 22.6022L119.766 38.1489H114.031Z" fill="white"/>
<path d="M129.681 38.1489L141.504 11.8618H146.31L158.181 38.1489H153.041L142.9 14.4529H144.854L134.676 38.1489H129.681ZM135.127 32.0657L136.478 28.235H150.636L151.958 32.0657H135.127Z" fill="white"/>
<path d="M81.8533 34.5693L71.7451 38.0914L71.8049 38.7111L82.59 35.0323L81.8533 34.5693Z" fill="white" stroke="white" stroke-miterlimit="10"/>
<path d="M62.3082 21.4667C62.4008 21.4709 62.4934 21.4591 62.582 21.4319C62.9603 21.2402 63.3287 21.0337 63.707 20.832L64.3666 20.4811C64.8371 20.2322 65.305 19.9833 65.7779 19.7343C65.8582 19.696 65.9414 19.6644 66.0268 19.6398C66.1986 19.585 66.3629 19.5576 66.44 19.7792C66.4738 19.8718 66.4725 19.9737 66.4362 20.0654C66.4 20.1571 66.3314 20.2324 66.2434 20.277C65.8252 20.496 65.4145 20.735 64.9989 20.959C64.623 21.1581 64.2397 21.3423 63.8663 21.5439C63.1196 21.9471 62.3604 22.3628 61.6038 22.766C61.2221 22.9701 60.8346 23.1635 60.4414 23.346C60.1203 23.4929 60.0879 23.6123 60.3592 23.8438C61.2677 24.5905 62.1812 25.3198 63.0972 26.0566C63.1838 26.1193 63.2669 26.1866 63.3461 26.2582C63.4623 26.3774 63.6068 26.4651 63.7662 26.513C63.9256 26.5609 64.0945 26.5674 64.2571 26.532C64.9093 26.4474 65.5714 26.4449 66.226 26.3976C66.674 26.3652 67.1196 26.3105 67.5676 26.2781C67.7651 26.2472 67.9665 26.2514 68.1625 26.2906C68.2243 26.3259 68.2775 26.3746 68.318 26.4332C68.3585 26.4918 68.3853 26.5587 68.3965 26.6291C68.3965 26.7137 68.267 26.878 68.1699 26.9004C67.9241 26.9524 67.6743 26.984 67.4232 26.995C66.8607 27.0448 66.2982 27.0871 65.7331 27.1344C65.3523 27.1667 64.969 27.1941 64.5907 27.2464C64.3542 27.2787 64.3144 27.3932 64.4413 27.5899L66.0941 30.1486C66.6541 31.0173 67.2067 31.891 67.7717 32.7497C68.1525 33.3347 68.5533 33.9072 68.9341 34.4921C69.3796 35.1841 69.8102 35.8885 70.2483 36.5854C70.4748 36.9463 70.7013 37.3072 70.9378 37.6582C71.0299 37.7926 71.1444 37.9071 71.3361 37.7727C71.5277 37.6383 71.6223 37.7304 71.6746 37.922C71.6895 37.9793 71.7069 38.034 71.7219 38.0913C71.9085 38.7409 71.8886 38.7832 71.224 38.9127C71.1036 38.9279 70.9815 38.9016 70.8781 38.838C69.5323 38.0083 68.189 37.1678 66.8482 36.3166C65.2951 35.3409 63.7435 34.3602 62.1937 33.3745C62.0592 33.2839 61.9578 33.152 61.9049 32.9986C61.3698 31.2911 60.8546 29.5811 60.3294 27.8736C59.9112 26.5096 59.498 25.1357 59.0599 23.7891C59.0079 23.6622 59.0005 23.5215 59.0389 23.3899C59.0773 23.2583 59.1594 23.1436 59.2715 23.0647C60.4663 21.9944 61.6535 20.9142 62.8458 19.8414C63.7037 19.0698 64.5641 18.3015 65.427 17.5365C65.5913 17.3896 65.7331 17.417 65.8028 17.6211C65.843 17.7146 65.8536 17.8182 65.8331 17.9179C65.8127 18.0176 65.7621 18.1086 65.6883 18.1787L62.9827 20.6852L62.236 21.3771L62.3082 21.4667ZM69.6534 37.1753L69.7107 37.1156C69.6859 37.0124 69.65 36.9123 69.6037 36.8169C69.3249 36.3738 69.0361 35.9357 68.7499 35.4977C68.2222 34.6962 67.692 33.8997 67.1668 33.0982C66.6093 32.2469 66.0551 31.3948 65.5041 30.5419C65.0063 29.7952 64.5359 29.0261 64.048 28.2719C63.9885 28.2009 63.9199 28.1381 63.8439 28.0852C63.7837 28.1605 63.7351 28.2444 63.6996 28.3341C63.3934 29.7155 63.0997 31.0995 62.7836 32.4784C62.7114 32.7821 62.8408 32.9115 63.0698 33.0534C64.3517 33.8499 65.6261 34.6588 66.9005 35.4653C67.7418 36.0005 68.5806 36.5406 69.4244 37.0733C69.4978 37.1136 69.5744 37.1478 69.6534 37.1753ZM62.2111 31.2015L62.2957 31.1741C62.3112 31.1376 62.3245 31.1002 62.3356 31.0621C62.6143 29.7952 62.8856 28.5258 63.1694 27.2613C63.2117 27.0771 63.1072 27 62.9952 26.9104C62.1812 26.2532 61.3673 25.5936 60.5484 24.9415C60.4523 24.8843 60.3494 24.8391 60.2422 24.8071C60.2422 24.9241 60.2422 25.0411 60.2422 25.1581C60.251 25.1984 60.2644 25.2377 60.2821 25.275C60.4737 25.85 60.6704 26.42 60.8521 26.995C61.2578 28.2918 61.656 29.5911 62.0618 30.8879C62.1045 30.9957 62.1544 31.1004 62.2111 31.2015Z" fill="white" stroke="white" stroke-miterlimit="10"/>
<path d="M79.3518 26.6518C79.2249 26.8335 79.1029 27.0201 78.971 27.1969C78.9262 27.2566 78.8366 27.3412 78.7893 27.3288C78.7489 27.3127 78.712 27.2888 78.6809 27.2585C78.6497 27.2282 78.6248 27.192 78.6076 27.1521C78.5536 27.0328 78.5306 26.9019 78.5406 26.7714C78.5506 26.6409 78.5933 26.515 78.6648 26.4053C78.7843 26.1888 78.747 26.1564 78.4981 26.1241C78.2492 26.0917 78.2641 25.9075 78.2193 25.7582C78.2079 25.7265 78.2035 25.6928 78.2065 25.6592C78.2095 25.6257 78.2198 25.5933 78.2366 25.5641C78.2535 25.535 78.2764 25.5099 78.304 25.4905C78.3315 25.4711 78.3629 25.458 78.396 25.452C78.8938 25.2778 78.8938 25.2405 78.5528 24.8148C78.3039 24.4713 78.0774 24.0905 77.8459 23.7246C77.8172 23.6633 77.7839 23.6042 77.7464 23.5479C77.5118 23.2611 77.3565 22.9178 77.2958 22.5523C77.2411 22.3034 77.1614 22.0843 77.1042 21.8478C77.095 21.7651 77.095 21.6817 77.1042 21.5989L77.1789 21.5865C77.4676 21.9997 77.7555 22.4145 78.0426 22.831C78.4732 23.4558 78.8963 24.0756 79.3269 24.7078C79.4663 24.9119 79.5758 24.9044 79.7152 24.6804C80.6113 23.1745 81.5024 21.6662 82.4009 20.1603C82.4262 20.1301 82.4443 20.0946 82.4539 20.0565C82.4635 20.0184 82.4644 19.9786 82.4565 19.9401C82.4486 19.9016 82.4321 19.8653 82.4083 19.8341C82.3844 19.8028 82.3539 19.7773 82.3188 19.7595C81.1373 18.8485 79.9575 17.9359 78.7793 17.0215C77.6891 16.1719 76.6014 15.3198 75.5162 14.4653C75.4469 14.4042 75.3719 14.35 75.2921 14.3035C74.8167 14.0546 74.742 13.6065 74.6475 13.156C74.6555 13.0826 74.6705 13.01 74.6923 12.9395C74.8366 13.0564 74.9412 13.146 75.0507 13.2307C77.3274 14.9548 79.6032 16.6797 81.8782 18.4055C82.3387 18.7539 82.7942 19.1099 83.2597 19.4559C83.3355 19.5134 83.3953 19.5893 83.4337 19.6764C83.472 19.7635 83.4875 19.8589 83.4787 19.9537C83.4463 21.0663 83.4215 22.1764 83.3891 23.289C83.3567 24.4017 83.3194 25.4446 83.2895 26.5248C83.2597 27.6051 83.2397 28.6953 83.2099 29.7805C83.185 30.7239 83.1501 31.6648 83.1228 32.6081C83.1004 33.2752 83.0929 33.9423 83.0531 34.5994C83.0462 34.666 83.024 34.7301 82.9881 34.7867C82.9523 34.8433 82.9038 34.8908 82.8465 34.9255C82.3487 35.1146 81.8309 35.269 81.3207 35.4233C81.1166 35.488 81.0718 35.3411 81.0394 35.1968C81.007 35.0524 80.9 34.8856 81.144 34.806C81.3879 34.7263 81.6169 34.6342 81.8533 34.5571C82.1744 34.4376 82.2242 34.3082 82.1022 34.0045C81.9355 33.5465 81.7762 33.0885 81.6169 32.6305C81.3929 31.9809 81.1763 31.3312 80.9498 30.6841C80.535 29.4993 80.1151 28.3153 79.6903 27.1322C79.6178 26.9669 79.5346 26.8064 79.4414 26.6518H79.3518ZM82.6175 21.594L82.5179 21.5716C82.4655 21.6304 82.4173 21.6928 82.3736 21.7582C81.6169 22.9961 80.8602 24.2332 80.1035 25.4695C80.0477 25.5475 80.0125 25.6384 80.0012 25.7337C79.9899 25.829 80.0028 25.9256 80.0388 26.0146C80.2155 26.485 80.3823 26.9579 80.5515 27.4308C80.6188 27.62 80.6685 27.8167 80.7382 28.0058C81.0336 28.8355 81.3323 29.6611 81.6343 30.4825C81.8002 30.9653 81.9753 31.4457 82.1595 31.9236C82.2024 32.0023 82.2541 32.0758 82.3138 32.1427L82.381 32.1153C82.469 28.609 82.5478 25.1019 82.6175 21.594Z" fill="white" stroke="white" stroke-miterlimit="10"/>
<path d="M73.9749 13.1457C73.8032 13.0536 73.629 12.9665 73.4597 12.8695C73.3875 12.8296 73.3352 12.7525 73.2631 12.7151C73.1877 12.6867 73.1091 12.6674 73.0291 12.6579C73.0023 12.7381 72.9888 12.8222 72.9893 12.9068C73.1162 13.6386 73.2531 14.3679 73.38 15.0972C73.4049 15.244 73.4024 15.3959 73.4149 15.5452C73.4597 16.1077 73.7932 16.5408 74.0894 16.9764C74.6569 17.8302 75.2643 18.6615 75.7745 19.5501C76.0633 20.048 76.1902 20.6428 76.3794 21.1954C76.3873 21.269 76.3805 21.3435 76.3595 21.4145H76.2972C76.0757 21.0983 75.8492 20.7847 75.6302 20.4661C75.1871 19.819 74.7515 19.1693 74.311 18.5221C73.9476 17.9845 73.5767 17.4494 73.2183 16.9092C73.1038 16.7375 73.0067 16.7275 72.8275 16.8346C72.4939 17.0337 72.1355 17.1955 71.7845 17.3672C71.7622 17.3723 71.7389 17.3718 71.7167 17.3657C71.6946 17.3596 71.6743 17.3482 71.6576 17.3324C71.6089 17.274 71.5741 17.2053 71.5561 17.1314C71.5381 17.0575 71.5372 16.9805 71.5535 16.9063C71.5699 16.832 71.603 16.7625 71.6504 16.703C71.6978 16.6436 71.7581 16.5958 71.8269 16.5632C72.1139 16.4297 72.3902 16.2741 72.6532 16.0978C72.6942 16.0569 72.7252 16.0071 72.7438 15.9523C72.7623 15.8974 72.768 15.839 72.7603 15.7817C72.6283 15.0026 72.4765 14.226 72.3371 13.4469C72.2923 13.198 72.2774 12.9491 72.2226 12.7002C72.1679 12.4513 72.0559 12.4239 71.8567 12.6006C71.5307 12.8894 71.2096 13.1831 70.886 13.4743C70.6844 13.6585 70.6221 13.6286 70.5151 13.3872C70.4563 13.2662 70.444 13.1277 70.4808 12.9982C70.5175 12.8688 70.6006 12.7574 70.7142 12.6853C71.1946 12.2572 71.68 11.834 72.1479 11.3934C72.1772 11.3564 72.2141 11.326 72.256 11.3044C72.298 11.2828 72.3441 11.2703 72.3912 11.268C72.4384 11.2656 72.4855 11.2734 72.5294 11.2907C72.5733 11.3081 72.613 11.3346 72.6458 11.3685C73.049 11.7021 73.5393 11.946 73.8032 12.4264C73.8989 12.6327 73.982 12.8447 74.0521 13.0611L73.9749 13.1457Z" fill="white" stroke="white" stroke-miterlimit="10"/>
<path d="M74.4397 25.7255L75.3109 25.6558C75.8336 25.6135 76.3538 25.5662 76.8765 25.5314C77.066 25.5003 77.2597 25.5071 77.4465 25.5513C77.5099 25.5859 77.565 25.6339 77.608 25.6919C77.651 25.7499 77.6808 25.8166 77.6954 25.8873C77.7104 25.962 77.5834 26.1362 77.4938 26.1362C77.2088 26.194 76.9203 26.2331 76.6301 26.2532C76.3489 26.2806 76.0676 26.298 75.7863 26.3179L74.8405 26.3801C74.7659 26.3751 74.691 26.3751 74.6165 26.3801C74.3128 26.4324 74.1908 26.3577 74.1186 26.0814C74.0465 25.8052 74.2456 25.7852 74.4397 25.7255Z" fill="white" stroke="white" stroke-miterlimit="10"/>
<path d="M70.7134 12.708L65.459 17.5368L65.7203 18.179L70.8852 13.497L70.7134 12.708Z" fill="white" stroke="white" stroke-miterlimit="10"/>
<path d="M65.7793 19.7343L72.3679 16.2969L72.5645 16.9988L65.9759 20.4337L65.7793 19.7343Z" fill="white" stroke="white" stroke-miterlimit="10"/>
<path d="M77.5318 23.2466L76.2972 21.4321L75.7197 19.396L77.8927 22.6119L77.5318 23.2466Z" fill="white" stroke="white" stroke-miterlimit="10"/>
<path d="M75.3114 25.6562L67.2344 26.3059L67.4435 26.9929L76.6207 26.2661L75.3114 25.6562Z" fill="white" stroke="white" stroke-miterlimit="10"/>
<path d="M78.3963 25.4541L76.8779 25.5313L77.2214 26.1983L78.4983 26.1262L78.3963 25.4541Z" fill="white" stroke="white" stroke-miterlimit="10"/>
<path d="M78.6644 26.4077L71.3564 37.7728L71.8045 38.7112L78.9705 27.1967L78.6644 26.4077Z" fill="white" stroke="white" stroke-miterlimit="10"/>
<path d="M73.3245 11.9111L75.373 13.4668L75.2884 14.2932L73.0283 12.6579L73.3245 11.9111Z" fill="white" stroke="white" stroke-miterlimit="10"/>
<defs>
<linearGradient id="paint0_linear_58_26" x1="4.09131" y1="25.0011" x2="177.911" y2="25.0011" gradientUnits="userSpaceOnUse">
<stop stop-color="#294E8A"/>
<stop offset="0.27" stop-color="#03A5A7"/>
<stop offset="0.47" stop-color="#01A683"/>
<stop offset="0.7" stop-color="#03A5A4"/>
<stop offset="1" stop-color="#294E8A"/>
</linearGradient>
<linearGradient id="paint1_linear_58_26" x1="3.8424" y1="25.0011" x2="178.16" y2="25.0011" gradientUnits="userSpaceOnUse">
<stop stop-color="#294E8A"/>
<stop offset="0.27" stop-color="#03A5A7"/>
<stop offset="0.47" stop-color="#01A683"/>
<stop offset="0.7" stop-color="#03A5A4"/>
<stop offset="1" stop-color="#294E8A"/>
</linearGradient>
<linearGradient id="paint2_linear_58_26" x1="0.875546" y1="25.0013" x2="181.124" y2="25.0013" gradientUnits="userSpaceOnUse">
<stop stop-color="#294E8A"/>
<stop offset="0.27" stop-color="#03A5A7"/>
<stop offset="0.47" stop-color="#01A683"/>
<stop offset="0.7" stop-color="#03A5A4"/>
<stop offset="1" stop-color="#294E8A"/>
</linearGradient>
</defs>
</svg>
