<svg width="129" height="170" viewBox="0 0 129 170" fill="none" xmlns="http://www.w3.org/2000/svg">
<circle cx="7.5" cy="7.5" r="7.5" fill="#0C4651"/>
<circle cx="45.5" cy="7.5" r="7.5" fill="#0C4651"/>
<circle cx="83.5" cy="7.5" r="7.5" fill="#0C4651"/>
<circle cx="121.5" cy="7.5" r="7.5" fill="#0C4651"/>
<circle cx="7.5" cy="38.5" r="7.5" fill="#0C4651"/>
<circle cx="45.5" cy="38.5" r="7.5" fill="#0C4651"/>
<circle cx="83.5" cy="38.5" r="7.5" fill="#0C4651"/>
<circle cx="121.5" cy="38.5" r="7.5" fill="#0C4651"/>
<circle cx="7.5" cy="69.5" r="7.5" fill="#0C4651"/>
<circle cx="45.5" cy="69.5" r="7.5" fill="#0C4651"/>
<circle cx="83.5" cy="69.5" r="7.5" fill="#0C4651"/>
<circle cx="121.5" cy="69.5" r="7.5" fill="#0C4651"/>
<circle cx="7.5" cy="100.5" r="7.5" fill="#0C4651"/>
<circle cx="45.5" cy="100.5" r="7.5" fill="#0C4651"/>
<circle cx="83.5" cy="100.5" r="7.5" fill="#0C4651"/>
<circle cx="121.5" cy="100.5" r="7.5" fill="#0C4651"/>
<circle cx="7.5" cy="131.5" r="7.5" fill="#0C4651"/>
<circle cx="45.5" cy="131.5" r="7.5" fill="#0C4651"/>
<circle cx="83.5" cy="131.5" r="7.5" fill="#0C4651"/>
<circle cx="121.5" cy="131.5" r="7.5" fill="#0C4651"/>
<circle cx="7.5" cy="162.5" r="7.5" fill="#0C4651"/>
<circle cx="45.5" cy="162.5" r="7.5" fill="#0C4651"/>
<circle cx="83.5" cy="162.5" r="7.5" fill="#0C4651"/>
<circle cx="121.5" cy="162.5" r="7.5" fill="#0C4651"/>
</svg>
