<svg width="233" height="94" viewBox="0 0 233 94" fill="none" xmlns="http://www.w3.org/2000/svg">
<path d="M185.397 2.15904e-06C197.799 -0.00376483 209.695 4.92195 218.468 13.6937C227.242 22.4655 232.173 34.3649 232.179 46.7748C232.179 52.9207 230.969 59.0065 228.618 64.6845C226.268 70.3626 222.822 75.5216 218.479 79.8671C214.135 84.2127 208.978 87.6595 203.304 90.0108C197.629 92.3621 191.546 93.5718 185.404 93.5709H26.8644C15.1706 93.5709 5.29341 90.5108 0 87.1809L4.31419 71.3053C8.07492 73.2507 16.7033 76.8717 25.3317 76.8717C36.3301 76.8717 41.9002 71.5822 41.9002 64.7591C41.9002 55.8415 32.988 51.8016 23.6642 51.8016H15.05V36.6289H23.2598C30.3555 36.4869 39.4096 33.8457 39.4096 26.1848C39.4096 20.7533 34.9535 16.7134 26.0413 16.7134C18.6688 16.7134 10.8706 19.9155 7.11701 22.1449L2.79572 6.82311C8.23104 3.34411 19.1159 2.15904e-06 30.7741 2.15904e-06H185.397ZM209.473 19.525C203.296 13.3421 195.168 9.49341 186.473 8.63484C177.778 7.77627 169.055 9.96089 161.79 14.8165C154.525 19.6721 149.167 26.8982 146.629 35.2635C144.091 43.6289 144.531 52.6158 147.873 60.6931C151.216 68.7703 157.253 75.4381 164.958 79.5602C172.663 83.6824 181.558 85.0039 190.127 83.2994C198.696 81.595 206.41 76.9702 211.953 70.2131C217.497 63.4559 220.527 54.9845 220.528 46.2423C220.543 41.2787 219.573 36.3614 217.676 31.7753C215.778 27.1892 212.99 23.0254 209.473 19.525Z" fill="white"/>
<path d="M198.581 59.0366H165.515V63.0197H198.581V59.0366Z" stroke="white" stroke-miterlimit="10"/>
<path d="M167.551 46.6259V56.3174H171.531V46.6259H167.551Z" stroke="white" stroke-miterlimit="10"/>
<path d="M175.945 41.1163V56.3174H179.926V41.1163H175.945Z" stroke="white" stroke-miterlimit="10"/>
<path d="M192.563 37.0054V56.3174H196.544V37.0054H192.563Z" stroke="white" stroke-miterlimit="10"/>
<path d="M184.162 44.0983V56.3174H188.143V44.0983H184.162Z" stroke="white" stroke-miterlimit="10"/>
<path d="M176.272 35.5923L171.198 38.9151" stroke="white" stroke-miterlimit="10"/>
<path d="M193.032 31.73L187.688 36.1959" stroke="white" stroke-miterlimit="10"/>
<path d="M184.29 36.7992L179.799 35.1733" stroke="white" stroke-miterlimit="10"/>
<path d="M177.932 36.4872C179.029 36.4872 179.919 35.5972 179.919 34.4992C179.919 33.4013 179.029 32.5112 177.932 32.5112C176.835 32.5112 175.945 33.4013 175.945 34.4992C175.945 35.5972 176.835 36.4872 177.932 36.4872Z" stroke="white" stroke-miterlimit="10"/>
<path d="M188.131 37.8105C188.307 36.7267 187.572 35.7056 186.488 35.5297C185.405 35.3537 184.385 36.0897 184.209 37.1734C184.033 38.2572 184.769 39.2784 185.852 39.4543C186.935 39.6302 187.955 38.8943 188.131 37.8105Z" stroke="white" stroke-miterlimit="10"/>
<path d="M192.57 30.445C192.57 30.0518 192.687 29.6675 192.905 29.3405C193.123 29.0136 193.434 28.7588 193.797 28.6084C194.16 28.4579 194.559 28.4185 194.945 28.4952C195.33 28.5719 195.684 28.7613 195.962 29.0393C196.24 29.3173 196.429 29.6715 196.506 30.0572C196.582 30.4428 196.543 30.8425 196.393 31.2058C196.242 31.569 195.988 31.8795 195.661 32.098C195.334 32.3164 194.95 32.433 194.557 32.433C194.03 32.433 193.525 32.2236 193.152 31.8507C192.78 31.4779 192.57 30.9723 192.57 30.445Z" stroke="white" stroke-miterlimit="10"/>
<path d="M167.544 40.0085C167.543 39.6133 167.658 39.2266 167.877 38.8974C168.096 38.5683 168.407 38.3115 168.772 38.1596C169.136 38.0077 169.538 37.9676 169.925 38.0443C170.313 38.1211 170.668 38.3113 170.948 38.5907C171.227 38.8701 171.417 39.2263 171.494 39.614C171.571 40.0016 171.53 40.4034 171.379 40.7682C171.227 41.1331 170.97 41.4446 170.641 41.6633C170.312 41.8819 169.926 41.9979 169.531 41.9965C169.004 41.9947 168.5 41.7846 168.128 41.4122C167.756 41.0398 167.546 40.5352 167.544 40.0085Z" stroke="white" stroke-miterlimit="10"/>
<path d="M58.9723 43.6298C58.4026 43.6363 57.8369 43.5351 57.3048 43.3316C56.8095 43.1467 56.3578 42.8615 55.9779 42.4938C55.4101 41.916 55.0247 41.1839 54.8695 40.3886C54.7143 39.5933 54.7963 38.7699 55.1051 38.0208C55.3091 37.5345 55.61 37.0947 55.9894 36.7285C56.3688 36.3623 56.8188 36.0773 57.3119 35.8908C58.4042 35.4882 59.6042 35.4882 60.6965 35.8908C61.2001 36.085 61.6502 36.3965 62.0092 36.7996L61.2997 37.5096C61.0037 37.2014 60.6458 36.9594 60.2495 36.7996C59.8579 36.6492 59.4414 36.5745 59.0219 36.5795C58.5956 36.5745 58.1721 36.6492 57.7731 36.7996C57.4027 36.941 57.0648 37.156 56.7797 37.4315C56.4962 37.7008 56.2737 38.0276 56.1269 38.39C55.8244 39.1589 55.8244 40.0139 56.1269 40.7827C56.2754 41.1463 56.4977 41.4751 56.7797 41.7483C57.0633 42.0223 57.3986 42.2371 57.766 42.3802C58.1645 42.5331 58.5881 42.6102 59.0148 42.6074C59.423 42.6107 59.8287 42.5434 60.214 42.4086C60.6149 42.2725 60.9808 42.0495 61.2855 41.7554L61.9241 42.6074C61.5218 42.9408 61.0593 43.1938 60.5617 43.3529C60.0492 43.5259 59.5131 43.6193 58.9723 43.6298ZM60.8668 42.4867V39.5757H61.9383V42.6358L60.8668 42.4867Z" fill="#0C4651"/>
<path d="M66.5647 43.6085C65.9825 43.6225 65.4062 43.4881 64.8901 43.218C64.4232 42.9697 64.035 42.596 63.769 42.1388C63.4985 41.6608 63.3613 41.1189 63.3716 40.5697C63.362 40.0223 63.494 39.4818 63.7548 39.0006C64.0073 38.5562 64.3751 38.1882 64.8192 37.9356C65.286 37.6706 65.8152 37.5358 66.3518 37.5451C66.8832 37.5341 67.4078 37.6665 67.8703 37.9285C68.3097 38.181 68.6688 38.5527 68.9063 39.0006C69.1682 39.4939 69.2978 40.0468 69.2824 40.6052C69.2856 40.6572 69.2856 40.7093 69.2824 40.7614C69.2865 40.8181 69.2865 40.875 69.2824 40.9318H64.2302V40.1579H68.7218L68.289 40.4277C68.3038 40.0712 68.2203 39.7175 68.0477 39.4053C67.8847 39.1049 67.6383 38.8583 67.3381 38.6953C67.0313 38.5275 66.6873 38.4395 66.3376 38.4395C65.988 38.4395 65.644 38.5275 65.3371 38.6953C65.035 38.8556 64.7878 39.1029 64.6276 39.4053C64.4583 39.7241 64.3729 40.0808 64.3792 40.4419V40.6194C64.3719 40.9908 64.4677 41.357 64.656 41.6773C64.8393 41.9816 65.105 42.2278 65.4223 42.3873C65.7482 42.5609 66.1077 42.6622 66.4763 42.6843C66.8449 42.7063 67.2138 42.6486 67.5581 42.5151C67.8479 42.3935 68.1072 42.2092 68.3174 41.9755L68.9134 42.6855C68.6415 43.002 68.2952 43.2459 67.9058 43.3955C67.4779 43.557 67.0216 43.6294 66.5647 43.6085Z" fill="#0C4651"/>
<path d="M72.4752 43.6085C71.9949 43.613 71.5166 43.546 71.056 43.4097C70.6787 43.309 70.3229 43.1406 70.0059 42.9127L70.4529 42.0606C70.7441 42.253 71.0621 42.4014 71.3966 42.5009C71.7658 42.6196 72.1513 42.6795 72.539 42.6784C72.9112 42.7069 73.2841 42.6333 73.6176 42.4654C73.7188 42.402 73.8025 42.3142 73.8608 42.21C73.9191 42.1057 73.9501 41.9884 73.9511 41.869C73.9536 41.7856 73.9362 41.7028 73.9004 41.6275C73.8647 41.5522 73.8115 41.4865 73.7453 41.4359C73.5895 41.3203 73.4103 41.2403 73.2202 41.2016C72.9932 41.1448 72.7519 41.1022 72.5106 41.0596C72.2694 41.017 71.9714 40.9673 71.7088 40.9034C71.4509 40.8426 71.2009 40.752 70.9638 40.6336C70.7479 40.521 70.5647 40.3547 70.4316 40.1508C70.2835 39.9025 70.212 39.616 70.2258 39.3272C70.219 38.9893 70.3265 38.659 70.5309 38.39C70.7518 38.1041 71.0497 37.8873 71.3895 37.7652C71.8098 37.6114 72.2548 37.5367 72.7022 37.5451C73.099 37.5472 73.4942 37.5948 73.8801 37.6871C74.2302 37.7588 74.5644 37.8935 74.8664 38.0847L74.4052 38.9367C74.1487 38.763 73.8625 38.6378 73.5608 38.5675C73.2749 38.4994 72.9819 38.466 72.688 38.4681C72.3237 38.4451 71.9602 38.5238 71.6379 38.6953C71.535 38.7562 71.4492 38.8422 71.3884 38.9452C71.3276 39.0483 71.2938 39.165 71.2902 39.2846C71.286 39.3722 71.3024 39.4597 71.3382 39.5398C71.3739 39.62 71.4279 39.6906 71.4959 39.7461C71.6571 39.866 71.8404 39.9528 72.0352 40.0017C72.2552 40.0585 72.5035 40.1082 72.7448 40.1508C72.9861 40.1934 73.2841 40.2431 73.5537 40.307C73.7989 40.369 74.0368 40.457 74.2633 40.5697C74.4809 40.6793 74.6666 40.8431 74.8026 41.0454C74.9531 41.2848 75.025 41.5653 75.0083 41.8477C75.018 42.185 74.9073 42.5147 74.6961 42.7778C74.463 43.0599 74.1558 43.2714 73.8092 43.3884C73.3818 43.543 72.9296 43.6176 72.4752 43.6085Z" fill="#0C4651"/>
<path d="M75.5342 38.489V37.6015H79.3162V38.489H75.5342ZM78.4221 43.6082C78.1654 43.6264 77.9075 43.5932 77.6638 43.5102C77.4201 43.4273 77.1954 43.2964 77.003 43.1253C76.832 42.9412 76.7003 42.7241 76.6161 42.4872C76.5319 42.2504 76.497 41.9988 76.5134 41.748V36.3022H77.5849V41.7053C77.5759 41.9635 77.6617 42.2161 77.8261 42.4153C77.9192 42.5063 78.0307 42.5762 78.1531 42.6203C78.2756 42.6644 78.406 42.6817 78.5357 42.6709C78.8411 42.6821 79.1405 42.5839 79.3801 42.394L79.7136 43.168C79.5411 43.3119 79.3405 43.4182 79.1246 43.4803C78.8975 43.5551 78.6611 43.5981 78.4221 43.6082Z" fill="#0C4651"/>
<path d="M81.5582 36.4587C81.4629 36.4621 81.3679 36.4462 81.2789 36.4121C81.1899 36.3779 81.1088 36.3262 81.0402 36.2599C80.9713 36.1971 80.9167 36.1202 80.8799 36.0345C80.8432 35.9488 80.8253 35.8562 80.8273 35.7629C80.8252 35.6686 80.8431 35.5749 80.8797 35.488C80.9164 35.4011 80.9711 35.323 81.0402 35.2588C81.1088 35.1926 81.1899 35.1408 81.2789 35.1067C81.3679 35.0725 81.4629 35.0566 81.5582 35.06C81.6534 35.0566 81.7484 35.0725 81.8374 35.1067C81.9264 35.1408 82.0076 35.1926 82.0762 35.2588C82.1447 35.3189 82.1993 35.3932 82.236 35.4766C82.2728 35.56 82.2909 35.6505 82.289 35.7416C82.2905 35.8362 82.2731 35.9302 82.2377 36.018C82.2024 36.1058 82.1499 36.1856 82.0833 36.2528C82.0144 36.3212 81.9323 36.3748 81.842 36.4102C81.7517 36.4456 81.6551 36.4621 81.5582 36.4587ZM81.0189 43.5587V37.616H82.0974V43.5587H81.0189Z" fill="#0C4651"/>
<path d="M86.7163 43.6083C86.1617 43.6182 85.6139 43.4836 85.1269 43.2178C84.6719 42.961 84.2925 42.5888 84.0271 42.1386C83.7538 41.6614 83.6141 41.1194 83.6226 40.5695C83.6121 40.0216 83.752 39.4814 84.0271 39.0075C84.291 38.5598 84.671 38.1918 85.1269 37.9425C85.6156 37.6839 86.16 37.5487 86.7128 37.5487C87.2656 37.5487 87.81 37.6839 88.2987 37.9425C88.7559 38.19 89.1363 38.5584 89.3985 39.0075C89.6674 39.4861 89.8045 40.0276 89.7959 40.5766C89.8062 41.1258 89.669 41.6677 89.3985 42.1457C89.1352 42.5976 88.7553 42.9703 88.2987 43.2249C87.8136 43.4883 87.2681 43.6204 86.7163 43.6083ZM86.7163 42.6711C87.0739 42.6735 87.426 42.583 87.7381 42.4084C88.0385 42.2457 88.2851 41.999 88.4477 41.6984C88.6233 41.3561 88.711 40.9755 88.7031 40.5908C88.7129 40.2082 88.625 39.8294 88.4477 39.4903C88.2838 39.1907 88.0375 38.9443 87.7381 38.7803C87.4255 38.6078 87.0733 38.5198 86.7163 38.5247C86.3592 38.5181 86.0066 38.6063 85.6946 38.7803C85.3986 38.9488 85.1534 39.1941 84.985 39.4903C84.7997 39.8269 84.7067 40.2066 84.7153 40.5908C84.7084 40.9771 84.8013 41.3586 84.985 41.6984C85.1523 41.9955 85.3977 42.241 85.6946 42.4084C86.006 42.5846 86.3586 42.6752 86.7163 42.6711ZM85.8648 36.7426L87.3833 35.2871H88.7528L86.8724 36.7426H85.8648Z" fill="#0C4651"/>
<path d="M94.4225 37.5449C94.8673 37.5338 95.3081 37.6313 95.7068 37.8289C96.078 38.0144 96.3811 38.3126 96.5725 38.6809C96.795 39.1202 96.9024 39.6088 96.8847 40.1009V43.5231H95.8133V40.2287C95.8477 39.7577 95.6976 39.2917 95.3946 38.9294C95.2382 38.7782 95.0521 38.6609 94.8482 38.5852C94.6442 38.5094 94.4268 38.4767 94.2096 38.4892C93.865 38.4834 93.5241 38.5613 93.2162 38.7164C92.9341 38.864 92.7039 39.0944 92.5563 39.3767C92.3956 39.7157 92.3178 40.088 92.3293 40.463V43.5231H91.2578V37.5804H92.2867V39.185L92.1164 38.759C92.31 38.3685 92.6232 38.0501 93.0105 37.8502C93.4491 37.6344 93.9339 37.5296 94.4225 37.5449Z" fill="#0C4651"/>
<path d="M57.0143 57.2118C56.6152 57.2211 56.2187 57.1461 55.8506 56.9917C55.5399 56.8624 55.2736 56.6453 55.0842 56.3669C54.9043 56.101 54.8102 55.7863 54.8146 55.4652C54.8112 55.1581 54.8922 54.856 55.0488 54.5919C55.2232 54.3086 55.4846 54.0894 55.7938 53.9671C56.2454 53.7911 56.7288 53.7113 57.213 53.7328H59.1004V54.4996H57.2626C56.8801 54.4562 56.4948 54.552 56.177 54.7694C56.0861 54.8519 56.0138 54.9529 55.9649 55.0655C55.9159 55.1781 55.8915 55.2998 55.8931 55.4226C55.8876 55.5605 55.9165 55.6977 55.9772 55.8216C56.0379 55.9456 56.1285 56.0525 56.2408 56.1326C56.5241 56.3262 56.8633 56.421 57.2059 56.4024C57.5761 56.4093 57.9414 56.3161 58.2631 56.1326C58.5664 55.9547 58.7976 55.6758 58.9159 55.3445L59.1288 56.0545C58.9845 56.4114 58.7213 56.7074 58.3838 56.8923C57.9632 57.1172 57.4909 57.2274 57.0143 57.2118ZM58.9585 57.1479V55.8912L58.9017 55.6569V53.5269C58.9124 53.3316 58.8826 53.1361 58.8142 52.9529C58.7458 52.7696 58.6403 52.6025 58.5044 52.4619C58.169 52.1904 57.7423 52.0582 57.3123 52.0927C56.9623 52.0927 56.6147 52.1503 56.2834 52.2631C55.9726 52.3642 55.6837 52.5232 55.4319 52.7317L54.9849 51.9223C55.3123 51.6651 55.6855 51.4724 56.0847 51.3543C56.5248 51.2251 56.9814 51.1606 57.44 51.1626C58.118 51.1202 58.7877 51.3301 59.3204 51.7519C59.5545 51.9896 59.7346 52.275 59.8485 52.5887C59.9623 52.9023 60.0073 53.2369 59.9803 53.5695V57.155L58.9585 57.1479Z" fill="#0C4651"/>
<path d="M64.4224 57.212C63.8851 57.2235 63.3541 57.0937 62.8826 56.8357C62.437 56.585 62.0688 56.2166 61.8183 55.7707C61.5574 55.2812 61.4209 54.735 61.4209 54.1803C61.4209 53.6256 61.5574 53.0794 61.8183 52.5899C62.0718 52.1481 62.4394 51.7827 62.8826 51.532C63.3554 51.2773 63.8855 51.1478 64.4224 51.1557C64.8956 51.1453 65.3632 51.2604 65.7777 51.4894C66.1937 51.7226 66.5318 52.0733 66.7498 52.4976C66.986 53.0258 67.1081 53.598 67.1081 54.1767C67.1081 54.7554 66.986 55.3276 66.7498 55.8559C66.5395 56.2828 66.2058 56.6366 65.7919 56.8712C65.3731 57.1028 64.9008 57.2204 64.4224 57.212ZM64.5146 56.2748C64.8693 56.2795 65.2191 56.1914 65.5293 56.0192C65.8241 55.849 66.0688 55.6041 66.2389 55.3092C66.4117 54.9668 66.5017 54.5887 66.5017 54.2051C66.5017 53.8216 66.4117 53.4434 66.2389 53.1011C66.0665 52.808 65.8223 52.5636 65.5293 52.3911C65.2169 52.2208 64.8668 52.1316 64.5111 52.1316C64.1553 52.1316 63.8052 52.2208 63.4928 52.3911C63.2014 52.5655 62.9576 52.8095 62.7833 53.1011C62.606 53.4421 62.5135 53.8208 62.5135 54.2051C62.5135 54.5895 62.606 54.9682 62.7833 55.3092C62.9552 55.6027 63.1995 55.8472 63.4928 56.0192C63.8049 56.1932 64.1574 56.2814 64.5146 56.2748ZM66.544 57.1481V55.5435L66.6079 54.1661L66.4943 52.7887V48.834H67.5587V57.1481H66.544Z" fill="#0C4651"/>
<path d="M77.0315 51.1554C77.4708 51.1463 77.906 51.2411 78.3016 51.4323C78.6673 51.6205 78.965 51.9184 79.1531 52.2843C79.3705 52.7254 79.4776 53.2126 79.4653 53.7043V57.1194H78.3868V53.8747C78.4215 53.4059 78.2769 52.9415 77.9823 52.5754C77.8384 52.4233 77.6625 52.3049 77.4675 52.2288C77.2724 52.1527 77.063 52.1207 76.8541 52.1352C76.5275 52.1285 76.2048 52.2068 75.9175 52.3624C75.6454 52.5117 75.427 52.7426 75.293 53.0227C75.135 53.3623 75.0596 53.7346 75.0731 54.109V57.1691H74.0016V53.8747C74.0355 53.4072 73.8938 52.9438 73.6042 52.5754C73.4564 52.4245 73.2779 52.3071 73.0808 52.2312C72.8837 52.1552 72.6727 52.1225 72.4618 52.1352C72.1377 52.1301 71.8176 52.2083 71.5323 52.3624C71.2633 52.5157 71.046 52.7455 70.9079 53.0227C70.7498 53.3623 70.6745 53.7346 70.6879 54.109V57.1691H69.6094V51.2264H70.6382V52.8097L70.475 52.405C70.659 52.0195 70.9593 51.7016 71.3336 51.4962C71.7509 51.2761 72.2174 51.1662 72.6889 51.1767C73.21 51.1609 73.7232 51.3072 74.1577 51.5956C74.3689 51.7436 74.5486 51.9322 74.6862 52.1504C74.8239 52.3686 74.9168 52.612 74.9595 52.8665L74.5267 52.689C74.7081 52.2282 75.0376 51.841 75.4633 51.5885C75.9349 51.2993 76.4784 51.1492 77.0315 51.1554Z" fill="#0C4651"/>
<path d="M81.9838 50.0693C81.8869 50.0728 81.7903 50.0562 81.7 50.0208C81.6097 49.9854 81.5276 49.9318 81.4588 49.8634C81.3928 49.8002 81.3404 49.7241 81.305 49.6398C81.2696 49.5556 81.2519 49.4649 81.253 49.3735C81.2524 49.2801 81.2703 49.1875 81.3057 49.101C81.341 49.0144 81.393 48.9358 81.4588 48.8694C81.5276 48.801 81.6097 48.7475 81.7 48.712C81.7903 48.6766 81.8869 48.6601 81.9838 48.6635C82.0791 48.6602 82.1741 48.676 82.2631 48.7102C82.3521 48.7443 82.4333 48.7961 82.5018 48.8623C82.57 48.9238 82.6238 48.9996 82.6594 49.0843C82.6949 49.169 82.7114 49.2605 82.7076 49.3522C82.7106 49.5399 82.6392 49.7212 82.5089 49.8563C82.4407 49.926 82.3589 49.9809 82.2685 50.0176C82.1782 50.0542 82.0813 50.0718 81.9838 50.0693ZM81.4446 57.1693V51.2266H82.5231V57.1693H81.4446Z" fill="#0C4651"/>
<path d="M87.7384 51.1554C88.1823 51.146 88.6221 51.2408 89.0227 51.4323C89.3939 51.6178 89.6969 51.916 89.8884 52.2843C90.1058 52.7254 90.2129 53.2127 90.2006 53.7043V57.1194H89.1291V53.8747C89.1647 53.4023 89.0116 52.9351 88.7034 52.5754C88.5485 52.424 88.3638 52.3066 88.161 52.2308C87.9581 52.155 87.7417 52.1224 87.5255 52.1352C87.1807 52.127 86.8392 52.2051 86.5321 52.3624C86.25 52.51 86.0197 52.7404 85.8722 53.0227C85.7115 53.3617 85.6336 53.734 85.6451 54.109V57.1691H84.5879V51.2264H85.6239V52.831L85.4536 52.405C85.6496 52.0162 85.9622 51.6984 86.3476 51.4962C86.7767 51.2712 87.254 51.1543 87.7384 51.1554Z" fill="#0C4651"/>
<path d="M92.7338 50.0693C92.6369 50.0728 92.5403 50.0562 92.45 50.0208C92.3597 49.9854 92.2775 49.9318 92.2087 49.8634C92.1427 49.8002 92.0904 49.7241 92.055 49.6398C92.0196 49.5556 92.0019 49.4649 92.003 49.3735C92.0024 49.2801 92.0203 49.1875 92.0556 49.101C92.0909 49.0144 92.143 48.9358 92.2087 48.8694C92.2775 48.801 92.3597 48.7475 92.45 48.712C92.5403 48.6766 92.6369 48.6601 92.7338 48.6635C92.8291 48.6602 92.924 48.676 93.013 48.7102C93.102 48.7443 93.1832 48.7961 93.2518 48.8623C93.32 48.9238 93.3738 48.9996 93.4093 49.0843C93.4449 49.169 93.4614 49.2605 93.4576 49.3522C93.4606 49.5399 93.3891 49.7212 93.2589 49.8563C93.1907 49.926 93.1089 49.9809 93.0185 50.0176C92.9282 50.0542 92.8313 50.0718 92.7338 50.0693ZM92.1946 57.1693V51.2266H93.2731V57.1693H92.1946Z" fill="#0C4651"/>
<path d="M97.0198 57.212C96.5395 57.2165 96.0613 57.1495 95.6007 57.0131C95.2272 56.9118 94.8742 56.746 94.5576 56.5232L95.0047 55.6713C95.627 56.0653 96.3473 56.2768 97.0837 56.2819C97.4582 56.3103 97.8333 56.2367 98.1694 56.0689C98.2716 56.009 98.3559 55.9227 98.4133 55.819C98.4707 55.7153 98.4992 55.5981 98.4958 55.4796C98.5008 55.3956 98.4854 55.3116 98.4508 55.2349C98.4162 55.1582 98.3634 55.0911 98.2971 55.0394C98.1394 54.9224 97.9576 54.8424 97.7649 54.805C97.5449 54.7553 97.2966 54.7056 97.0553 54.663C96.8141 54.6204 96.5231 54.5708 96.2535 54.5069C96.0063 54.448 95.7678 54.3573 95.5439 54.2371C95.3263 54.1274 95.1406 53.9636 95.0047 53.7613C94.8602 53.5118 94.7912 53.2257 94.806 52.9377C94.7988 52.5987 94.9035 52.2668 95.104 51.9935C95.3278 51.7106 95.6247 51.4945 95.9626 51.3687C96.3835 51.2181 96.8284 51.1459 97.2753 51.1557C97.6741 51.1557 98.0716 51.2009 98.4603 51.2905C98.8078 51.3635 99.1394 51.4982 99.4395 51.6882L98.9783 52.5401C98.7226 52.3695 98.4393 52.2446 98.141 52.171C97.8545 52.1064 97.5618 52.073 97.2682 52.0715C96.9016 52.048 96.5356 52.1267 96.2109 52.2987C96.1081 52.3597 96.0222 52.4457 95.9615 52.5487C95.9007 52.6518 95.8669 52.7685 95.8632 52.888C95.8588 52.9775 95.8757 53.0667 95.9128 53.1482C95.9498 53.2297 96.0058 53.3012 96.0761 53.3566C96.2342 53.4757 96.4155 53.5603 96.6083 53.6051C96.8415 53.6713 97.0784 53.7235 97.3179 53.7613C97.5877 53.799 97.8554 53.8512 98.1197 53.9175C98.3657 53.977 98.6038 54.0652 98.8293 54.1802C99.0662 54.2953 99.2635 54.4782 99.3962 54.7058C99.5288 54.9334 99.5909 55.1953 99.5743 55.4582C99.582 55.7964 99.4688 56.1263 99.255 56.3883C99.0185 56.6636 98.7156 56.8738 98.3751 56.999C97.9393 57.1488 97.4806 57.2208 97.0198 57.212Z" fill="#0C4651"/>
<path d="M100.078 52.0929V51.2054H103.867V52.0929H100.078ZM102.966 57.212C102.469 57.2299 101.985 57.0513 101.618 56.715C101.444 56.5308 101.311 56.3128 101.225 56.0746C101.14 55.8363 101.104 55.583 101.121 55.3305V49.8848H102.2V55.295C102.188 55.5536 102.274 55.8071 102.441 56.005C102.533 56.0984 102.644 56.1704 102.766 56.2158C102.889 56.2612 103.02 56.2789 103.151 56.2677C103.454 56.2751 103.751 56.1745 103.988 55.9836L104.321 56.7576C104.151 56.9041 103.949 57.0108 103.732 57.07C103.487 57.1597 103.228 57.2077 102.966 57.212Z" fill="#0C4651"/>
<path d="M105.562 57.1478V51.2051H106.584V52.8239L106.485 52.4192C106.642 52.0163 106.936 51.6818 107.315 51.4749C107.754 51.2516 108.242 51.1418 108.734 51.1554V52.192H108.486C108.236 52.1787 107.986 52.2172 107.751 52.3052C107.517 52.3931 107.303 52.5287 107.124 52.7032C106.945 52.9059 106.808 53.1421 106.722 53.3981C106.635 53.654 106.601 53.9247 106.62 54.1942V57.1549L105.562 57.1478Z" fill="#0C4651"/>
<path d="M111.374 57.2119C110.978 57.2202 110.584 57.1452 110.218 56.9918C109.907 56.8624 109.641 56.6453 109.451 56.367C109.271 56.1011 109.177 55.7863 109.182 55.4653C109.182 55.1555 109.266 54.8516 109.423 54.5849C109.602 54.3027 109.865 54.0841 110.175 53.9601C110.627 53.784 111.11 53.7042 111.594 53.7258H113.475V54.4926H111.644C111.259 54.4506 110.872 54.5462 110.551 54.7624C110.463 54.8463 110.392 54.9477 110.345 55.0601C110.297 55.1725 110.273 55.2935 110.275 55.4155C110.268 55.5537 110.296 55.6913 110.357 55.8155C110.418 55.9397 110.509 56.0464 110.622 56.1255C110.906 56.3191 111.245 56.414 111.587 56.3954C111.957 56.4023 112.323 56.309 112.645 56.1255C112.946 55.9454 113.176 55.6672 113.297 55.3375L113.51 56.0475C113.365 56.4062 113.099 56.7026 112.758 56.8853C112.335 57.1167 111.857 57.2295 111.374 57.2119ZM113.326 57.148V55.8913L113.269 55.657V53.527C113.28 53.3316 113.25 53.1362 113.181 52.9529C113.113 52.7697 113.008 52.6025 112.872 52.462C112.536 52.1905 112.109 52.0583 111.679 52.0928C111.33 52.0928 110.982 52.1503 110.651 52.2632C110.34 52.3642 110.051 52.5232 109.799 52.7318L109.352 51.9224C109.68 51.6652 110.053 51.4724 110.452 51.3544C110.89 51.2257 111.344 51.1611 111.8 51.1627C112.477 51.1203 113.146 51.3274 113.68 51.7449C113.915 51.9826 114.095 52.268 114.209 52.5816C114.322 52.8953 114.367 53.2298 114.34 53.5625V57.148H113.326Z" fill="#0C4651"/>
<path d="M115.49 52.093V51.2055H119.272V52.093H115.49ZM118.378 57.2122C118.122 57.2326 117.864 57.201 117.62 57.1193C117.376 57.0375 117.151 56.9073 116.959 56.7365C116.788 56.551 116.656 56.3326 116.572 56.0946C116.488 55.8566 116.453 55.6039 116.469 55.352V49.9062H117.541V55.2951C117.529 55.5537 117.615 55.8072 117.782 56.0051C117.875 56.0974 117.986 56.1686 118.108 56.2139C118.231 56.2593 118.362 56.2777 118.492 56.2678C118.803 56.2896 119.111 56.1961 119.357 56.0051L119.698 56.7791C119.527 56.9256 119.326 57.0323 119.109 57.0915C118.873 57.1696 118.627 57.2103 118.378 57.2122Z" fill="#0C4651"/>
<path d="M121.486 50.0693C121.389 50.0728 121.292 50.0562 121.202 50.0208C121.112 49.9854 121.03 49.9318 120.961 49.8634C120.895 49.8002 120.842 49.7241 120.807 49.6398C120.772 49.5556 120.754 49.4649 120.755 49.3735C120.754 49.2801 120.772 49.1875 120.808 49.101C120.843 49.0144 120.895 48.9358 120.961 48.8694C121.03 48.801 121.112 48.7475 121.202 48.712C121.292 48.6766 121.389 48.6601 121.486 48.6635C121.581 48.6602 121.676 48.676 121.765 48.7102C121.854 48.7443 121.935 48.7961 122.004 48.8623C122.071 48.9247 122.124 49.0007 122.159 49.0851C122.195 49.1696 122.212 49.2606 122.21 49.3522C122.213 49.5399 122.141 49.7212 122.011 49.8563C121.943 49.926 121.861 49.9809 121.77 50.0176C121.68 50.0542 121.583 50.0718 121.486 50.0693ZM120.947 57.1693V51.2266H122.018V57.1693H120.947Z" fill="#0C4651"/>
<path d="M125.658 57.1483L123.054 51.2056H124.175L126.481 56.5874H125.949L128.297 51.2056H129.348L126.751 57.1483H125.658Z" fill="#0C4651"/>
<path d="M131.902 57.2121C131.505 57.2222 131.111 57.1471 130.745 56.992C130.435 56.8627 130.168 56.6456 129.979 56.3672C129.796 56.1028 129.702 55.7871 129.709 55.4655C129.704 55.1591 129.782 54.8569 129.936 54.5922C130.115 54.3101 130.379 54.0915 130.689 53.9674C131.14 53.7914 131.624 53.7116 132.108 53.7331H133.988V54.4999H132.129C131.747 54.4566 131.361 54.5523 131.043 54.7697C130.955 54.8537 130.885 54.955 130.837 55.0674C130.789 55.1798 130.765 55.3008 130.767 55.4229C130.76 55.561 130.788 55.6987 130.849 55.8229C130.91 55.947 131.001 56.0537 131.114 56.1329C131.395 56.3275 131.732 56.4224 132.072 56.4027C132.443 56.4107 132.808 56.3174 133.13 56.1329C133.435 55.9554 133.668 55.6766 133.789 55.3448L134.002 56.0548C133.855 56.4122 133.59 56.7081 133.25 56.8926C132.837 57.1154 132.372 57.2256 131.902 57.2121ZM133.853 57.1482V55.8915L133.797 55.6572V53.5272C133.807 53.3319 133.777 53.1365 133.709 52.9532C133.641 52.7699 133.535 52.6028 133.399 52.4622C133.063 52.1927 132.637 52.0607 132.207 52.093C131.855 52.093 131.505 52.1506 131.171 52.2634C130.862 52.3628 130.575 52.5221 130.327 52.732L129.873 51.9226C130.203 51.6654 130.578 51.4727 130.98 51.3546C131.417 51.2254 131.871 51.1609 132.328 51.1629C133.006 51.1191 133.676 51.3292 134.208 51.7522C134.442 51.9899 134.622 52.2753 134.736 52.589C134.85 52.9027 134.895 53.2372 134.868 53.5698V57.1553L133.853 57.1482Z" fill="#0C4651"/>
</svg>
