<svg width="232" height="94" viewBox="0 0 232 94" fill="none" xmlns="http://www.w3.org/2000/svg">
<path d="M184.695 2.15465e-06C190.837 -0.00186298 196.92 1.20718 202.596 3.55807C208.272 5.90896 213.429 9.35564 217.774 13.7012C222.118 18.0468 225.564 23.2062 227.915 28.8847C230.266 34.5632 231.477 40.6495 231.477 46.7961C231.477 52.942 230.267 59.0278 227.916 64.7058C225.565 70.3839 222.12 75.5429 217.776 79.8884C213.433 84.234 208.276 87.6808 202.601 90.0321C196.926 92.3834 190.844 93.5931 184.702 93.5922H21.6987V19.4327H21.4433L3.59754 27.9527L0 11.5375L24.7499 0.0213013L184.695 2.15465e-06ZM208.77 20.0859C202.594 13.9046 194.467 10.0573 185.774 9.19955C177.081 8.34184 168.359 10.5268 161.096 15.3821C153.832 20.2375 148.476 27.4627 145.939 35.8268C143.403 44.1908 143.844 53.1761 147.186 61.2516C150.528 69.3271 156.566 75.9931 164.269 80.1137C171.973 84.2343 180.866 85.5547 189.434 83.8497C198.001 82.1447 205.713 77.52 211.255 70.7634C216.797 64.0069 219.825 55.5367 219.825 46.7961C219.839 41.8337 218.869 36.9179 216.971 32.3331C215.074 27.7484 212.286 23.5857 208.77 20.0859Z" fill="white"/>
<path d="M58.5329 43.6292C57.9633 43.6357 57.3975 43.5345 56.8654 43.331C56.3747 43.1433 55.9273 42.8576 55.5504 42.4915C55.1734 42.1253 54.8749 41.6863 54.6728 41.201C54.462 40.6924 54.3535 40.1471 54.3535 39.5964C54.3535 39.0458 54.462 38.5005 54.6728 37.9918C54.8747 37.5134 55.1716 37.081 55.5456 36.7209C55.9298 36.3587 56.3803 36.0742 56.8725 35.8831C57.4096 35.6797 57.9799 35.5785 58.5542 35.5849C59.1361 35.5767 59.7143 35.6804 60.2572 35.8902C60.7617 36.0826 61.2121 36.3944 61.5699 36.799L60.8603 37.509C60.5617 37.2039 60.2044 36.9624 59.8101 36.799C59.4173 36.6537 59.0013 36.5815 58.5826 36.586C58.1585 36.5809 57.7373 36.6556 57.3408 36.8061C56.9692 36.946 56.6291 37.1583 56.3403 37.4309C56.0606 37.7018 55.8406 38.0283 55.6946 38.3894C55.5361 38.7719 55.4565 39.1824 55.4604 39.5964C55.4572 40.0058 55.5369 40.4115 55.6946 40.7892C55.8421 41.1516 56.0618 41.4801 56.3403 41.7548C56.6254 42.0304 56.9634 42.2453 57.3337 42.3867C57.7296 42.5402 58.1509 42.6173 58.5755 42.6139C58.9856 42.6126 59.3928 42.5454 59.7817 42.4151C60.1797 42.2772 60.5429 42.0543 60.8461 41.7619L61.4847 42.6139C61.0814 42.9375 60.6185 43.1787 60.1223 43.3239C59.6113 43.5066 59.0752 43.6096 58.5329 43.6292ZM60.4274 42.4861V39.5538H61.4989V42.6139L60.4274 42.4861Z" fill="#0C4651"/>
<path d="M66.1463 43.608C65.5642 43.6211 64.9882 43.4868 64.4718 43.2175C64.0062 42.9675 63.6184 42.5941 63.3506 42.1383C63.0922 41.6557 62.957 41.1167 62.957 40.5692C62.957 40.0217 63.0922 39.4827 63.3506 39.0001C63.5983 38.5545 63.9642 38.1859 64.4079 37.9351C64.8775 37.6809 65.4031 37.5479 65.937 37.5479C66.4709 37.5479 66.9965 37.6809 67.4661 37.9351C67.902 38.189 68.2602 38.5573 68.5021 39.0001C68.7577 39.4981 68.8846 40.0522 68.8711 40.6118V40.768V40.9384H63.826V40.1645H68.2751L67.8422 40.4343C67.8557 40.0788 67.7749 39.7261 67.6081 39.4119C67.4413 39.1144 67.1958 38.8687 66.8985 38.7019C66.5929 38.5318 66.2476 38.446 65.898 38.4534C65.5487 38.4487 65.204 38.5343 64.8975 38.7019C64.5976 38.8653 64.3512 39.1118 64.1879 39.4119C64.0211 39.7314 63.9381 40.0881 63.9467 40.4485V40.626C63.9372 40.9968 64.0306 41.3629 64.2163 41.6839C64.3996 41.9882 64.6653 42.2344 64.9826 42.3939C65.3081 42.5479 65.6615 42.6343 66.0213 42.6477C66.3811 42.6612 66.7398 42.6014 67.0759 42.472C67.364 42.3512 67.6212 42.1667 67.828 41.9324L68.4241 42.6424C68.1514 42.955 67.8085 43.1983 67.4236 43.3524C67.0172 43.5157 66.5842 43.6024 66.1463 43.608Z" fill="#0C4651"/>
<path d="M72.0364 43.608C71.5558 43.6102 71.0775 43.5408 70.6173 43.4021C70.2427 43.3037 69.8892 43.1377 69.5742 42.9122L70.0213 42.0602C70.6409 42.461 71.3625 42.6754 72.1003 42.6778C72.4748 42.7063 72.8499 42.6327 73.186 42.4649C73.2888 42.4038 73.3733 42.3163 73.4307 42.2114C73.4882 42.1064 73.5164 41.988 73.5124 41.8684C73.5169 41.7855 73.5012 41.7028 73.4665 41.6273C73.4319 41.5519 73.3795 41.486 73.3137 41.4353C73.156 41.3184 72.9742 41.2384 72.7815 41.2011C72.5615 41.1443 72.3132 41.1016 72.0719 41.059C71.8307 41.0164 71.5397 40.9667 71.2701 40.9028C71.0238 40.841 70.7857 40.7505 70.5605 40.6331C70.3406 40.5237 70.1542 40.3569 70.0213 40.1503C69.8743 39.9015 69.8029 39.6153 69.8155 39.3266C69.8108 38.9891 69.9181 38.6595 70.1206 38.3895C70.3409 38.103 70.6389 37.8861 70.9792 37.7647C71.3987 37.6081 71.8443 37.5334 72.2919 37.5446C72.691 37.547 73.0885 37.5947 73.4769 37.6866C73.8244 37.7595 74.156 37.8942 74.4561 38.0841L73.9949 38.9362C73.7409 38.7626 73.457 38.6374 73.1576 38.567C72.8717 38.4989 72.5786 38.4655 72.2848 38.4676C71.9179 38.4401 71.5508 38.519 71.2275 38.6947C71.1247 38.7557 71.0388 38.8417 70.9781 38.9447C70.9173 39.0478 70.8835 39.1645 70.8799 39.2841C70.8753 39.3725 70.8923 39.4607 70.9294 39.5411C70.9665 39.6214 71.0225 39.6916 71.0927 39.7456C71.2521 39.8641 71.4327 39.9509 71.6249 40.0012C71.8449 40.058 72.0932 40.1077 72.3345 40.1503C72.5757 40.1929 72.8666 40.2426 73.1363 40.3065C73.3823 40.366 73.6204 40.4541 73.8459 40.5691C74.062 40.6782 74.2455 40.8422 74.378 41.0449C74.5311 41.2835 74.6055 41.564 74.5909 41.8472C74.5986 42.1853 74.4854 42.5152 74.2716 42.7772C74.0399 43.0578 73.7355 43.2691 73.3917 43.3878C72.9572 43.5437 72.4979 43.6183 72.0364 43.608Z" fill="#0C4651"/>
<path d="M75.0947 38.489V37.6015H78.9193V38.489H75.0947ZM77.9827 43.6082C77.7316 43.6236 77.4799 43.5889 77.2423 43.506C77.0048 43.4231 76.7861 43.2937 76.599 43.1253C76.4253 42.9428 76.2914 42.726 76.2059 42.4889C76.1204 42.2518 76.0851 41.9994 76.1023 41.7479V36.3022H77.1809V41.684C77.1692 41.9426 77.2554 42.1961 77.4221 42.394C77.5144 42.4862 77.6258 42.5569 77.7484 42.6011C77.8711 42.6452 78.0019 42.6618 78.1317 42.6496C78.4153 42.6543 78.6924 42.5644 78.9193 42.394L79.2528 43.1608C79.0818 43.3086 78.8809 43.4175 78.6639 43.4803C78.4436 43.5532 78.2144 43.5962 77.9827 43.6082Z" fill="#0C4651"/>
<path d="M81.1187 36.4582C81.0235 36.4616 80.9285 36.4457 80.8395 36.4116C80.7505 36.3774 80.6693 36.3257 80.6007 36.2594C80.5328 36.1962 80.4792 36.1191 80.4437 36.0334C80.4082 35.9476 80.3916 35.8552 80.395 35.7624C80.3919 35.6687 80.4087 35.5753 80.4441 35.4884C80.4796 35.4016 80.533 35.3232 80.6007 35.2583C80.6693 35.1921 80.7505 35.1403 80.8395 35.1062C80.9285 35.072 81.0235 35.0562 81.1187 35.0595C81.312 35.0528 81.5003 35.1216 81.6438 35.2512C81.7098 35.3144 81.7621 35.3905 81.7975 35.4748C81.8329 35.5591 81.8507 35.6497 81.8496 35.7411C81.8511 35.8358 81.8336 35.9297 81.7983 36.0175C81.763 36.1053 81.7104 36.1852 81.6438 36.2523C81.575 36.3207 81.4929 36.3743 81.4026 36.4097C81.3123 36.4451 81.2157 36.4616 81.1187 36.4582ZM80.5795 43.5582V37.6226H81.658V43.5582H80.5795Z" fill="#0C4651"/>
<path d="M86.2491 43.6081C85.6944 43.618 85.1467 43.4834 84.6596 43.2176C84.2027 42.9602 83.8229 42.5851 83.5598 42.1313C83.2945 41.6535 83.1553 41.1159 83.1553 40.5693C83.1553 40.0227 83.2945 39.4851 83.5598 39.0073C83.8236 38.5576 84.2035 38.1873 84.6596 37.9352C85.1472 37.6709 85.6946 37.5364 86.2491 37.5447C86.8015 37.5347 87.347 37.6693 87.8314 37.9352C88.2886 38.1827 88.669 38.5511 88.9312 39.0002C89.1921 39.482 89.3287 40.0213 89.3287 40.5693C89.3287 41.1172 89.1921 41.6566 88.9312 42.1384C88.6679 42.5903 88.2881 42.963 87.8314 43.2176C87.347 43.4834 86.8015 43.6181 86.2491 43.6081ZM86.2491 42.6638C86.6061 42.6694 86.9584 42.5813 87.2708 42.4082C87.5698 42.2435 87.8158 41.9973 87.9804 41.6982C88.1616 41.3577 88.2521 40.9762 88.243 40.5906C88.2562 40.2068 88.1655 39.8265 87.9804 39.4901C87.8165 39.1905 87.5703 38.9441 87.2708 38.7801C86.9564 38.6123 86.6055 38.5245 86.2491 38.5245C85.8927 38.5245 85.5418 38.6123 85.2273 38.7801C84.9313 38.9486 84.6862 39.1939 84.5177 39.4901C84.3302 39.8258 84.237 40.2061 84.2481 40.5906C84.2412 40.9769 84.334 41.3584 84.5177 41.6982C84.687 41.9937 84.9319 42.2388 85.2273 42.4082C85.5394 42.5822 85.8919 42.6704 86.2491 42.6638ZM85.3976 36.7353L86.9232 35.2798H88.2856L86.4052 36.714L85.3976 36.7353Z" fill="#0C4651"/>
<path d="M93.9831 37.5448C94.4279 37.5337 94.8687 37.6312 95.2674 37.8288C95.6386 38.0143 95.9416 38.3125 96.1331 38.6808C96.3583 39.1193 96.4681 39.608 96.4524 40.1008V43.5159H95.3738V40.2641C95.4083 39.793 95.2581 39.327 94.9552 38.9648C94.7984 38.8144 94.6121 38.6983 94.4081 38.6238C94.2041 38.5492 93.9869 38.5179 93.7702 38.5317C93.4261 38.5236 93.0853 38.5992 92.7768 38.7518C92.4931 38.8982 92.2641 39.1322 92.124 39.4192C91.9575 39.7564 91.8771 40.1296 91.8898 40.5055V43.5585H90.8184V37.6229H91.8472V39.2275L91.677 38.8015C91.8736 38.4107 92.1891 38.0925 92.5781 37.8927C93.0091 37.6587 93.4928 37.5389 93.9831 37.5448Z" fill="#0C4651"/>
<path d="M101.455 43.537V37.6014H102.484V39.2131L102.385 38.8083C102.542 38.4074 102.836 38.0753 103.215 37.8712C103.651 37.6407 104.141 37.5281 104.634 37.5445V38.5882H104.506H104.386C104.134 38.5753 103.882 38.6146 103.647 38.7038C103.411 38.793 103.196 38.9302 103.016 39.1065C102.838 39.3095 102.702 39.5457 102.615 39.8016C102.529 40.0575 102.494 40.328 102.512 40.5976V43.5512L101.455 43.537Z" fill="#0C4651"/>
<path d="M106.507 36.4585C106.411 36.4629 106.314 36.4475 106.224 36.4133C106.134 36.3791 106.052 36.3269 105.982 36.2597C105.851 36.1275 105.777 35.949 105.776 35.7627C105.776 35.6693 105.794 35.5766 105.829 35.4901C105.864 35.4036 105.916 35.325 105.982 35.2586C106.052 35.1915 106.134 35.1392 106.224 35.105C106.314 35.0709 106.411 35.0555 106.507 35.0598C106.602 35.0555 106.697 35.0702 106.786 35.1032C106.875 35.1361 106.956 35.1865 107.025 35.2515C107.091 35.3147 107.144 35.3908 107.179 35.4751C107.214 35.5594 107.232 35.65 107.231 35.7414C107.231 35.9297 107.156 36.1103 107.023 36.2435C106.89 36.3766 106.71 36.4514 106.521 36.4514L106.507 36.4585ZM105.968 43.5585V37.6229H107.039V43.5585H105.968Z" fill="#0C4651"/>
<path d="M111.737 43.608C111.154 43.622 110.578 43.4876 110.062 43.2175C109.595 42.9692 109.207 42.5955 108.941 42.1383C108.671 41.6599 108.534 41.1183 108.544 40.5692C108.533 40.0217 108.665 39.4809 108.927 39.0001C109.179 38.5557 109.547 38.1878 109.991 37.9351C110.458 37.6701 110.987 37.5353 111.524 37.5446C112.055 37.5336 112.58 37.666 113.042 37.928C113.48 38.1798 113.838 38.5486 114.078 38.993C114.339 39.4892 114.469 40.0441 114.454 40.6047C114.458 40.6567 114.458 40.7089 114.454 40.7609C114.458 40.8176 114.458 40.8745 114.454 40.9313H109.402V40.1574H113.894L113.461 40.4272C113.476 40.0707 113.392 39.717 113.22 39.4048C113.064 39.1113 112.83 38.8658 112.546 38.6948C112.238 38.5307 111.894 38.4449 111.545 38.4449C111.196 38.4449 110.853 38.5307 110.545 38.6948C110.245 38.8582 109.998 39.1047 109.835 39.4048C109.666 39.7237 109.58 40.0804 109.587 40.4414V40.6189C109.579 40.9903 109.675 41.3565 109.863 41.6768C110.047 41.9811 110.312 42.2273 110.63 42.3868C110.954 42.5406 111.306 42.6269 111.665 42.6403C112.023 42.6538 112.381 42.5941 112.716 42.4649C113.006 42.3433 113.265 42.159 113.475 41.9253L114.071 42.6353C113.797 42.9496 113.452 43.1932 113.064 43.3453C112.643 43.5186 112.192 43.6078 111.737 43.608Z" fill="#0C4651"/>
<path d="M117.647 43.6079C117.166 43.6113 116.688 43.5418 116.228 43.402C115.851 43.3036 115.495 43.1376 115.178 42.9121L115.625 42.0601C115.917 42.2499 116.235 42.398 116.568 42.5003C116.938 42.6191 117.323 42.679 117.711 42.6778C118.083 42.7053 118.456 42.6317 118.789 42.4648C118.891 42.4015 118.974 42.3137 119.033 42.2094C119.091 42.1052 119.122 41.9879 119.123 41.8684C119.127 41.7849 119.11 41.7017 119.074 41.6262C119.038 41.5507 118.984 41.4852 118.917 41.4353C118.76 41.3184 118.578 41.2383 118.385 41.201C118.165 41.1442 117.924 41.1016 117.675 41.059C117.427 41.0164 117.136 40.9667 116.867 40.9028C116.621 40.8389 116.383 40.7484 116.157 40.633C115.939 40.5235 115.755 40.3566 115.625 40.1502C115.474 39.877 115.404 39.5669 115.422 39.2556C115.439 38.9442 115.544 38.644 115.724 38.3894C115.942 38.1032 116.237 37.8862 116.576 37.7646C116.998 37.6082 117.445 37.5335 117.895 37.5445C118.292 37.5466 118.687 37.5943 119.073 37.6865C119.423 37.7582 119.758 37.8929 120.06 38.0841L119.598 38.9361C119.342 38.7624 119.056 38.6373 118.754 38.5669C118.468 38.4989 118.175 38.4655 117.881 38.4675C117.517 38.4411 117.152 38.5199 116.831 38.6947C116.728 38.7557 116.642 38.8417 116.582 38.9447C116.521 39.0477 116.487 39.1644 116.483 39.284C116.479 39.3717 116.496 39.4591 116.531 39.5393C116.567 39.6194 116.621 39.6901 116.689 39.7455C116.852 39.8626 117.035 39.9492 117.228 40.0011C117.448 40.0579 117.69 40.1076 117.938 40.1502C118.186 40.1928 118.477 40.2425 118.747 40.3064C118.993 40.3654 119.231 40.4535 119.456 40.5691C119.674 40.6787 119.86 40.8426 119.996 41.0448C120.146 41.2842 120.218 41.5648 120.201 41.8471C120.211 42.1844 120.1 42.5142 119.889 42.7772C119.656 43.0594 119.349 43.2709 119.002 43.3878C118.568 43.5451 118.109 43.6197 117.647 43.6079Z" fill="#0C4651"/>
<path d="M124.019 43.2955C123.483 43.3065 122.953 43.1794 122.479 42.9263C122.036 42.6935 121.663 42.3452 121.401 41.9181C121.131 41.4632 120.993 40.9419 121.003 40.4129C120.993 39.8839 121.131 39.3626 121.401 38.9077C121.661 38.4809 122.035 38.1344 122.479 37.9066C122.954 37.6591 123.484 37.5347 124.019 37.5445C124.51 37.5358 124.996 37.6428 125.438 37.8569C125.859 38.0636 126.208 38.3928 126.439 38.8012C126.686 39.3011 126.815 39.8514 126.815 40.4093C126.815 40.9672 126.686 41.5176 126.439 42.0175C126.204 42.4267 125.857 42.7595 125.438 42.976C124.998 43.1959 124.511 43.3056 124.019 43.2955ZM124.154 45.7805C123.616 45.7805 123.081 45.704 122.565 45.5533C122.108 45.4256 121.684 45.2004 121.323 44.893L121.834 44.0694C122.135 44.3199 122.482 44.5103 122.855 44.6303C123.261 44.7728 123.688 44.8448 124.118 44.8433C124.68 44.8888 125.236 44.7101 125.665 44.3463C125.842 44.1414 125.976 43.9035 126.06 43.6463C126.144 43.3892 126.176 43.1179 126.155 42.8482V41.5915L126.268 40.4129L126.212 39.2272V37.6013H127.234V42.7346C127.269 43.1528 127.217 43.5737 127.081 43.9709C126.946 44.368 126.729 44.7327 126.446 45.0421C125.806 45.5754 124.985 45.84 124.154 45.7805ZM124.154 42.3512C124.522 42.3612 124.886 42.2756 125.211 42.1027C125.51 41.9383 125.757 41.692 125.921 41.3927C126.093 41.0846 126.183 40.7375 126.183 40.3845C126.183 40.0315 126.093 39.6844 125.921 39.3763C125.754 39.0878 125.508 38.8537 125.211 38.7018C124.88 38.5404 124.516 38.4566 124.147 38.4566C123.778 38.4566 123.414 38.5404 123.083 38.7018C122.785 38.8523 122.538 39.0868 122.373 39.3763C122.196 39.6828 122.103 40.0305 122.103 40.3845C122.103 40.7384 122.196 41.0862 122.373 41.3927C122.536 41.693 122.782 41.9396 123.083 42.1027C123.408 42.2756 123.772 42.3612 124.14 42.3512H124.154Z" fill="#0C4651"/>
<path d="M131.824 43.6079C131.27 43.6178 130.722 43.4832 130.235 43.2174C129.778 42.96 129.398 42.5849 129.135 42.1311C128.87 41.6533 128.73 41.1157 128.73 40.5691C128.73 40.0225 128.87 39.4849 129.135 39.0071C129.399 38.5574 129.779 38.187 130.235 37.935C130.722 37.6707 131.27 37.5362 131.824 37.5445C132.377 37.5345 132.922 37.6691 133.407 37.935C133.864 38.1825 134.244 38.5509 134.506 39C134.767 39.4818 134.904 40.0211 134.904 40.5691C134.904 41.117 134.767 41.6563 134.506 42.1382C134.243 42.59 133.863 42.9628 133.407 43.2174C132.922 43.4832 132.377 43.6178 131.824 43.6079ZM131.824 42.6636C132.183 42.6648 132.535 42.5718 132.846 42.3938C133.145 42.2291 133.391 41.9829 133.556 41.6838C133.737 41.3433 133.827 40.9618 133.818 40.5762C133.831 40.1924 133.741 39.8121 133.556 39.4757C133.392 39.1761 133.145 38.9297 132.846 38.7657C132.532 38.5978 132.181 38.5101 131.824 38.5101C131.468 38.5101 131.117 38.5978 130.802 38.7657C130.506 38.9342 130.261 39.1795 130.093 39.4757C129.905 39.8114 129.812 40.1917 129.823 40.5762C129.816 40.9624 129.909 41.3439 130.093 41.6838C130.262 41.9793 130.507 42.2244 130.802 42.3938C131.113 42.5727 131.466 42.6658 131.824 42.6636Z" fill="#0C4651"/>
<path d="M55.0984 59.3843C54.8161 59.3856 54.5355 59.3401 54.2682 59.2494C54.0064 59.1612 53.7651 59.0211 53.5586 58.8376L54.0198 58.0282C54.1607 58.1673 54.3269 58.2781 54.5094 58.3548C54.691 58.4322 54.8868 58.4709 55.0842 58.4684C55.3153 58.4746 55.5422 58.4047 55.7299 58.2696C55.9437 58.0736 56.1088 57.8305 56.2124 57.5596L56.5814 56.736L56.6949 56.6011L59.0223 51.2122H60.0725L57.2342 57.7442C57.0983 58.1041 56.9015 58.438 56.6523 58.7311C56.4628 58.9587 56.2186 59.1346 55.9427 59.2423C55.6727 59.3424 55.3862 59.3906 55.0984 59.3843ZM56.5175 57.3395L53.8069 51.2051H54.9281L57.2342 56.4946L56.5175 57.3395Z" fill="#0C4651"/>
<path d="M65.8131 57.2115C65.3327 57.2171 64.8543 57.1501 64.3939 57.0127C64.0167 56.912 63.6608 56.7436 63.3438 56.5157L63.7908 55.6637C64.082 55.856 64.4 56.0044 64.7345 56.1039C65.1035 56.2232 65.4891 56.2831 65.8769 56.2814C66.2491 56.3088 66.6217 56.2352 66.9555 56.0684C67.0557 56.0057 67.1387 55.919 67.197 55.8161C67.2552 55.7132 67.2868 55.5973 67.289 55.4791C67.2926 55.3945 67.2758 55.3104 67.24 55.2337C67.2042 55.1571 67.1504 55.0902 67.0832 55.0389C66.9255 54.9219 66.7437 54.8419 66.551 54.8046C66.3311 54.7549 66.0898 54.7052 65.8415 54.6626C65.5931 54.62 65.3022 54.5703 65.0325 54.5064C64.7857 54.4464 64.5473 54.3558 64.323 54.2366C64.1045 54.125 63.9187 53.9586 63.7837 53.7538C63.6385 53.5045 63.5694 53.2182 63.585 52.9302C63.5782 52.5923 63.6857 52.262 63.8901 51.993C64.1096 51.7087 64.4047 51.4922 64.7416 51.3682C65.1643 51.2145 65.6117 51.1399 66.0614 51.1481C66.4582 51.1506 66.8533 51.1982 67.2393 51.2901C67.5868 51.363 67.9185 51.4977 68.2185 51.6877L67.7644 52.5397C67.5079 52.366 67.2217 52.2408 66.92 52.1705C66.6335 52.1059 66.3409 52.0726 66.0472 52.0711C65.6828 52.0474 65.3191 52.1261 64.9971 52.2983C64.8942 52.3592 64.8084 52.4452 64.7476 52.5482C64.6868 52.6513 64.653 52.768 64.6494 52.8876C64.6457 52.9762 64.6624 53.0645 64.698 53.1457C64.7337 53.2269 64.7874 53.2989 64.8551 53.3562C65.0168 53.4737 65.2001 53.5581 65.3944 53.6047C65.6277 53.6686 65.8647 53.7184 66.104 53.7538C66.3736 53.7964 66.6433 53.8532 66.9129 53.91C67.1593 53.9712 67.3976 54.0618 67.6225 54.1798C67.8405 54.2855 68.0266 54.4472 68.1617 54.6484C68.3085 54.8894 68.3801 55.1687 68.3675 55.4507C68.3772 55.788 68.2665 56.1177 68.0553 56.3808C67.821 56.6616 67.5142 56.8727 67.1684 56.9914C66.7341 57.148 66.2745 57.2226 65.8131 57.2115Z" fill="#0C4651"/>
<path d="M72.3622 57.2115C71.78 57.2246 71.204 57.0902 70.6876 56.821C70.2207 56.5727 69.8324 56.199 69.5664 55.7418C69.3081 55.2605 69.1729 54.7226 69.1729 54.1762C69.1729 53.6299 69.3081 53.092 69.5664 52.6107C69.8126 52.1596 70.1817 51.7878 70.6308 51.5386C71.096 51.2762 71.6223 51.1414 72.1564 51.1481C72.69 51.1372 73.2168 51.2696 73.682 51.5315C74.1197 51.7862 74.4783 52.1573 74.7179 52.6036C74.9735 53.099 75.1004 53.6508 75.0869 54.2082V54.3644V54.5348H70.0418V53.7538H74.5263L74.0935 54.0236C74.107 53.6681 74.0262 53.3153 73.8593 53.0012C73.6977 52.6999 73.4509 52.4529 73.1498 52.2912C72.8442 52.1234 72.5014 52.0354 72.1528 52.0354C71.8043 52.0354 71.4614 52.1234 71.1559 52.2912C70.856 52.4546 70.6096 52.7011 70.4463 53.0012C70.2795 53.3207 70.1965 53.6774 70.2051 54.0378V54.2153C70.2003 54.5878 70.2933 54.955 70.4747 55.2803C70.6595 55.5834 70.9248 55.8292 71.241 55.9903C71.5917 56.171 71.982 56.2613 72.3763 56.253C72.7047 56.2556 73.0304 56.1929 73.3343 56.0684C73.622 55.95 73.8791 55.768 74.0864 55.5359L74.6825 56.2459C74.4095 56.5581 74.0667 56.8013 73.682 56.9559C73.2623 57.1245 72.8144 57.2112 72.3622 57.2115Z" fill="#0C4651"/>
<path d="M79.0394 56.8995C78.504 56.9093 77.9746 56.7848 77.4996 56.5374C77.0542 56.3039 76.6812 55.9527 76.4211 55.5221C76.1605 55.0633 76.0234 54.5446 76.0234 54.0169C76.0234 53.4892 76.1605 52.9705 76.4211 52.5117C76.6838 52.0867 77.0564 51.7408 77.4996 51.5106C77.9746 51.2632 78.504 51.1387 79.0394 51.1485C79.5186 51.144 79.9923 51.2509 80.4231 51.4609C80.8447 51.6693 81.1952 51.9979 81.4307 52.4052C81.6736 52.9064 81.7999 53.4563 81.7999 54.0133C81.7999 54.5704 81.6736 55.1203 81.4307 55.6215C81.1938 56.0312 80.844 56.364 80.4231 56.58C79.9939 56.7954 79.5195 56.905 79.0394 56.8995ZM79.1742 59.3845C78.6361 59.3882 78.1004 59.3116 77.5848 59.1573C77.1264 59.0319 76.7005 58.8091 76.3359 58.5041L76.8539 57.6734C77.1535 57.9248 77.4978 58.1175 77.8686 58.2414C78.2781 58.3781 78.707 58.4477 79.1388 58.4473C79.6998 58.4928 80.2559 58.3141 80.6856 57.9503C80.8626 57.7456 80.997 57.5077 81.081 57.2505C81.1651 56.9933 81.1971 56.7219 81.1752 56.4522V55.1742L81.2888 53.9956L81.232 52.8099V51.184H82.2538V56.3173C82.2897 56.7355 82.2383 57.1567 82.1027 57.554C81.9671 57.9512 81.7503 58.3159 81.4661 58.6248C80.8306 59.1677 80.008 59.4404 79.1742 59.3845ZM79.1742 55.9552C79.5389 55.9637 79.9 55.8807 80.2244 55.7138C80.5306 55.5511 80.7852 55.306 80.9595 55.0061C81.1337 54.7063 81.2208 54.3636 81.2107 54.0169C81.2183 53.663 81.1274 53.3139 80.9482 53.0087C80.7769 52.7238 80.5317 52.4907 80.2386 52.3342C79.9141 52.1673 79.5531 52.0843 79.1884 52.0928C78.8215 52.0843 78.4581 52.1673 78.1312 52.3342C77.8374 52.4898 77.592 52.7231 77.4216 53.0087C77.2495 53.3168 77.1591 53.6639 77.1591 54.0169C77.1591 54.3699 77.2495 54.717 77.4216 55.0251C77.588 55.3228 77.8336 55.5686 78.1312 55.7351C78.4515 55.8901 78.8044 55.9656 79.16 55.9552H79.1742Z" fill="#0C4651"/>
<path d="M86.7948 57.2116C86.335 57.2211 85.879 57.1264 85.4609 56.9347C85.0779 56.7499 84.7627 56.4494 84.5597 56.0756C84.3366 55.6363 84.2268 55.1482 84.2404 54.6556V51.2334H85.3047V54.5278C85.2695 55.0033 85.4195 55.474 85.7234 55.8413C85.8802 55.9917 86.0665 56.1078 86.2704 56.1823C86.4744 56.2569 86.6917 56.2882 86.9084 56.2744C87.2466 56.2843 87.5816 56.206 87.8805 56.0472C88.1588 55.895 88.3822 55.659 88.5191 55.3727C88.6759 55.0402 88.7513 54.6751 88.7391 54.3077V51.2334H89.8176V57.1761H88.7958V55.5715L88.9661 55.9975C88.781 56.3886 88.475 56.7097 88.0934 56.9134C87.6936 57.1235 87.2462 57.2262 86.7948 57.2116Z" fill="#0C4651"/>
<path d="M91.8828 57.1478V51.2051H92.9117V52.8239L92.8124 52.4191C92.9683 52.018 93.2595 51.684 93.6355 51.4748C94.0738 51.2491 94.5617 51.1368 95.0546 51.1483V52.192H94.8133C94.5623 52.1793 94.3114 52.2181 94.0759 52.3061C93.8404 52.394 93.6253 52.5291 93.4439 52.7032C93.0866 53.1146 92.9056 53.6502 92.9401 54.1941V57.1548L91.8828 57.1478Z" fill="#0C4651"/>
<path d="M96.9279 50.062C96.8326 50.0654 96.7377 50.0495 96.6487 50.0154C96.5597 49.9812 96.4785 49.9295 96.4099 49.8632C96.2788 49.731 96.2049 49.5525 96.2041 49.3662C96.2036 49.2728 96.2215 49.1801 96.2568 49.0936C96.2921 49.0071 96.3441 48.9285 96.4099 48.8621C96.4785 48.7959 96.5597 48.7441 96.6487 48.71C96.7377 48.6758 96.8326 48.6599 96.9279 48.6633C97.0243 48.659 97.1206 48.6744 97.2109 48.7085C97.3012 48.7427 97.3836 48.795 97.453 48.8621C97.5191 48.9237 97.5716 48.9985 97.6071 49.0817C97.6425 49.1648 97.6601 49.2545 97.6587 49.3449C97.6587 49.5332 97.584 49.7138 97.4509 49.847C97.3178 49.9801 97.1374 50.0549 96.9492 50.0549L96.9279 50.062ZM96.3957 57.162V51.2193H97.4672V57.162H96.3957Z" fill="#0C4651"/>
<path d="M101.973 57.2115C101.436 57.2204 100.906 57.0908 100.433 56.8352C99.9864 56.5835 99.6161 56.2155 99.3616 55.7702C99.1054 55.2792 98.9717 54.7336 98.9717 54.1798C98.9717 53.626 99.1054 53.0803 99.3616 52.5894C99.6171 52.1467 99.9873 51.7812 100.433 51.5315C100.904 51.2704 101.435 51.1381 101.973 51.1481C102.444 51.1411 102.909 51.2587 103.321 51.4889C103.737 51.7221 104.075 52.0728 104.293 52.4971C104.55 53.0198 104.674 53.5977 104.655 54.1798C104.676 54.7582 104.556 55.333 104.307 55.8554C104.091 56.2778 103.758 56.6299 103.349 56.8707C102.928 57.102 102.453 57.2195 101.973 57.2115ZM102.058 56.2743C102.414 56.2802 102.764 56.1894 103.073 56.0116C103.371 55.846 103.617 55.6 103.782 55.3016C103.963 54.9634 104.053 54.5844 104.045 54.2011C104.056 53.8152 103.965 53.4333 103.782 53.0935C103.614 52.7973 103.369 52.552 103.073 52.3835C102.762 52.2113 102.413 52.1232 102.058 52.1279C101.703 52.1212 101.353 52.2094 101.043 52.3835C100.747 52.552 100.502 52.7973 100.334 53.0935C100.145 53.4313 100.052 53.8142 100.064 54.2011C100.053 54.5856 100.146 54.9658 100.334 55.3016C100.499 55.6 100.745 55.846 101.043 56.0116C101.351 56.1911 101.702 56.2821 102.058 56.2743ZM104.087 57.1476V55.543L104.151 54.1656L104.038 52.7882V48.8335H105.116V57.1476H104.087Z" fill="#0C4651"/>
<path d="M108.891 57.2118C108.492 57.2212 108.096 57.1462 107.727 56.9918C107.421 56.8562 107.156 56.6404 106.961 56.3669C106.782 56.1007 106.688 55.7862 106.692 55.4653C106.688 55.1582 106.769 54.8561 106.926 54.5919C107.103 54.3085 107.367 54.0895 107.678 53.9672C108.128 53.7843 108.612 53.7019 109.097 53.7258H110.977V54.4997H109.14C108.757 54.4563 108.372 54.552 108.054 54.7694C107.964 54.8525 107.892 54.9536 107.843 55.0661C107.794 55.1785 107.769 55.3 107.77 55.4227C107.764 55.5606 107.793 55.6977 107.854 55.8217C107.915 55.9457 108.005 56.0525 108.118 56.1327C108.402 56.3237 108.741 56.416 109.083 56.3954C109.452 56.4055 109.818 56.3147 110.14 56.1327C110.442 55.9534 110.673 55.6749 110.793 55.3446L111.013 56.0546C110.866 56.412 110.6 56.7078 110.261 56.8924C109.84 57.1182 109.368 57.2284 108.891 57.2118ZM110.835 57.148V55.8842L110.779 55.6499V53.5199C110.791 53.3254 110.762 53.1306 110.693 52.9482C110.625 52.7659 110.519 52.6001 110.381 52.4619C110.047 52.1879 109.62 52.0532 109.189 52.0856C108.839 52.0887 108.491 52.1486 108.16 52.2631C107.851 52.3646 107.563 52.5209 107.309 52.7247L106.862 51.9224C107.189 51.6611 107.566 51.468 107.969 51.3543C108.406 51.2228 108.86 51.1558 109.317 51.1555C109.996 51.1117 110.667 51.3245 111.197 51.7519C111.431 51.9897 111.611 52.2751 111.725 52.5887C111.839 52.9024 111.884 53.2369 111.857 53.5696V57.155L110.835 57.148Z" fill="#0C4651"/>
<path d="M116.306 57.2115C115.769 57.2204 115.239 57.0908 114.766 56.8352C114.319 56.5835 113.949 56.2155 113.695 55.7702C113.438 55.2792 113.305 54.7336 113.305 54.1798C113.305 53.626 113.438 53.0803 113.695 52.5894C113.95 52.1467 114.32 51.7812 114.766 51.5315C115.237 51.2704 115.768 51.1381 116.306 51.1481C116.777 51.1411 117.242 51.2587 117.654 51.4889C118.07 51.7221 118.408 52.0728 118.626 52.4971C118.883 53.0198 119.007 53.5977 118.988 54.1798C119.018 54.7665 118.903 55.3516 118.655 55.8838C118.438 56.3062 118.106 56.6583 117.697 56.8991C117.268 57.1229 116.789 57.2307 116.306 57.2115ZM116.391 56.2743C116.747 56.2802 117.097 56.1894 117.406 56.0116C117.704 55.846 117.95 55.6 118.115 55.3016C118.296 54.9634 118.386 54.5844 118.378 54.2011C118.389 53.8152 118.298 53.4333 118.115 53.0935C117.947 52.7973 117.702 52.552 117.406 52.3835C117.095 52.2113 116.746 52.1232 116.391 52.1279C116.036 52.1212 115.686 52.2094 115.376 52.3835C115.08 52.552 114.835 52.7973 114.667 53.0935C114.478 53.4313 114.385 53.8142 114.397 54.2011C114.386 54.5856 114.479 54.9658 114.667 55.3016C114.832 55.6 115.078 55.846 115.376 56.0116C115.684 56.1911 116.035 56.2821 116.391 56.2743ZM118.42 57.1476V55.543L118.484 54.1656L118.371 52.7882V48.8335H119.449V57.1476H118.42Z" fill="#0C4651"/>
<path d="M192.5 61.5642H185.468C185.385 61.5591 185.307 61.5238 185.248 61.465C185.189 61.4061 185.154 61.3277 185.149 61.2447V54.2511C185.144 54.2077 185.148 54.1636 185.161 54.122C185.175 54.0803 185.197 54.042 185.227 54.0098L185.709 53.5341C187.568 51.6952 188.455 50.7296 188.86 49.4516C189.264 48.1736 189.264 46.2495 189.264 42.5646V40.889C188.675 40.9523 188.083 40.9784 187.49 40.9671C186.755 40.9763 186.021 40.8952 185.305 40.7256C185.149 40.7256 185.063 40.5695 185.063 40.4062V29.5219C185.07 29.4381 185.107 29.3597 185.167 29.301C185.227 29.2423 185.306 29.2072 185.39 29.2024C185.794 29.2024 186.199 29.1243 186.518 29.1243C189.363 29.1081 192.148 29.9439 194.515 31.5241C199.525 35.0741 199.482 38.9649 199.482 41.6061C199.482 42.6498 199.482 43.6083 199.801 44.0911C200.142 44.6451 200.55 45.1554 201.015 45.6105C201.724 46.4128 202.306 46.9666 202.065 47.6127C201.902 48.0884 201.355 48.4079 200.291 48.5712H200.206C200.162 48.5656 200.118 48.5698 200.076 48.5833C200.035 48.5968 199.996 48.6193 199.964 48.6493C199.56 48.8126 199.645 49.693 199.723 50.5734C199.801 51.6952 199.964 52.9732 199.241 53.7755C198.944 54.0368 198.597 54.2346 198.221 54.3567C197.846 54.4788 197.449 54.5226 197.055 54.4855H196.977C196.679 54.5022 196.381 54.4759 196.09 54.4074H195.281C195.012 54.377 194.739 54.4122 194.485 54.5098C194.232 54.6075 194.006 54.7647 193.827 54.9683C193.422 55.3659 193.422 56.6438 193.422 57.7656C193.422 59.285 193.422 60.7263 192.613 61.3156C192.656 61.4576 192.578 61.5642 192.5 61.5642ZM185.794 60.9252H192.45C192.94 60.5276 192.94 59.1643 192.94 57.9644C192.94 56.6012 192.94 55.3233 193.5 54.7624C193.737 54.4835 194.037 54.2653 194.375 54.1257C194.713 53.9862 195.08 53.9294 195.444 53.96H196.246C196.546 53.9507 196.846 53.977 197.14 54.0381H197.218C197.525 54.0787 197.837 54.0493 198.131 53.9522C198.424 53.855 198.692 53.6927 198.914 53.4773C199.482 52.9235 199.319 51.8016 199.241 50.8431C199.156 49.7213 198.992 48.6776 199.886 48.28C199.984 48.2253 200.094 48.1983 200.206 48.2019H200.255C201.306 47.9605 201.462 47.7192 201.547 47.6411C201.625 47.3997 201.057 46.7607 200.575 46.2779C200.104 45.7793 199.672 45.2452 199.283 44.6804C198.929 43.7336 198.791 42.7196 198.879 41.7125C198.879 39.0713 198.957 35.4717 194.274 32.1915C192.049 30.6404 189.393 29.8282 186.681 29.8698H185.872V40.115C186.461 40.2121 187.057 40.2666 187.653 40.2784C188.328 40.2596 189 40.2051 189.669 40.115C189.712 40.108 189.757 40.1113 189.8 40.1247C189.842 40.1381 189.881 40.1613 189.912 40.1924C189.944 40.2235 189.968 40.2616 189.982 40.3036C189.997 40.3457 190.001 40.3905 189.995 40.4346V42.5149C189.995 50.0409 189.995 50.1189 186.199 53.96L185.794 54.3648V60.9252Z" fill="white"/>
<path d="M195.409 41.3648C195.324 41.3648 195.161 41.2867 195.161 41.2086C194.88 40.7551 194.767 40.2174 194.841 39.6892C194.935 38.7173 194.758 37.7383 194.33 36.8609C193.902 35.9836 193.239 35.2422 192.415 34.7192C191.082 33.8298 189.493 33.4078 187.895 33.5193C187.851 33.5235 187.808 33.5183 187.767 33.5038C187.726 33.4894 187.688 33.4661 187.657 33.4357C187.626 33.4052 187.602 33.3683 187.586 33.3276C187.571 33.2868 187.565 33.2432 187.568 33.1998C187.565 33.1563 187.571 33.1127 187.586 33.072C187.602 33.0312 187.626 32.9943 187.657 32.9639C187.688 32.9334 187.726 32.9101 187.767 32.8957C187.808 32.8813 187.851 32.876 187.895 32.8803C189.635 32.7186 191.377 33.1707 192.819 34.1583C193.715 34.7376 194.436 35.5497 194.906 36.5077C195.376 37.4657 195.577 38.5335 195.487 39.5969C195.438 40.0321 195.493 40.4729 195.65 40.882C195.728 41.0382 195.728 41.2015 195.565 41.2796C195.526 41.3268 195.47 41.3573 195.409 41.3648Z" fill="white"/>
<path d="M179.898 61.5641H172.866C172.788 61.5641 172.71 61.5641 172.71 61.486C171.901 60.9251 171.901 59.4838 171.901 57.936C171.901 56.8142 171.901 55.5362 171.496 55.1315C171.315 54.9298 171.089 54.7738 170.836 54.6763C170.583 54.5788 170.311 54.5426 170.042 54.5706H169.233C168.935 54.5563 168.636 54.585 168.346 54.6558H168.261C167.875 54.6997 167.485 54.6589 167.118 54.5363C166.75 54.4136 166.414 54.2121 166.132 53.9458C165.422 53.1435 165.486 51.8655 165.649 50.7437C165.727 49.8633 165.813 48.9829 165.408 48.8267C165.377 48.7946 165.34 48.7701 165.298 48.7553C165.256 48.7405 165.211 48.7358 165.167 48.7415H165.082C164.032 48.5072 163.471 48.2658 163.308 47.783C163.067 47.144 163.627 46.5831 164.358 45.7808C164.762 45.3051 165.245 44.8223 165.649 44.2614C165.951 43.4725 166.063 42.6236 165.976 41.7835C165.976 39.1423 165.891 35.216 170.9 31.6944C173.245 30.0679 176.045 29.2277 178.897 29.2946C179.275 29.2786 179.653 29.3048 180.025 29.3727C180.11 29.3777 180.19 29.4138 180.251 29.474C180.311 29.5341 180.347 29.6143 180.352 29.6993V40.3493C180.352 40.5055 180.274 40.5907 180.11 40.6688C179.343 40.8569 178.558 40.964 177.769 40.9883C177.279 40.9883 176.719 40.9102 176.229 40.9102V41.9468C176.229 46.0293 176.229 48.0315 176.719 49.5509C177.208 51.0703 178.138 51.9507 180.188 53.9529L180.352 54.1162C180.382 54.1479 180.405 54.1861 180.418 54.2279C180.432 54.2697 180.436 54.314 180.43 54.3576V61.3156C180.217 61.3724 180.054 61.5641 179.898 61.5641ZM172.951 60.9251H179.571V54.3647L179.493 54.2795C175.456 50.197 175.371 50.1189 175.371 41.8758V40.4558C175.371 40.3777 175.456 40.2996 175.456 40.2144C175.456 40.1292 175.612 40.1363 175.697 40.1363C176.311 40.2175 176.93 40.2602 177.549 40.2641C178.202 40.2656 178.853 40.1845 179.486 40.0227V29.8413H178.684C175.973 29.7983 173.316 30.6106 171.092 32.163C166.402 35.5213 166.402 39.1281 166.487 41.6841C166.582 42.6634 166.443 43.6513 166.082 44.5667C165.69 45.1559 165.259 45.7181 164.791 46.2494C164.301 46.8103 163.741 47.3712 163.819 47.6126C163.819 47.6907 164.06 47.9321 165.11 48.1735H165.195C165.335 48.1613 165.475 48.1884 165.6 48.2516C166.487 48.5711 166.309 49.6716 166.245 50.8147C166.16 51.7732 166.004 52.895 166.565 53.4488C166.799 53.6715 167.082 53.8378 167.391 53.935C167.699 54.0322 168.026 54.0577 168.346 54.0097C168.644 54.0222 168.942 53.9959 169.233 53.9316H170.042C170.406 53.8954 170.773 53.9496 171.111 54.0896C171.449 54.2296 171.747 54.4509 171.979 54.7339C172.546 55.3729 172.546 56.5728 172.546 57.936C172.461 59.0578 172.461 60.4139 172.951 60.8967V60.9251Z" fill="white"/>
<path d="M170.524 41.3647C170.446 41.3647 170.446 41.3647 170.361 41.2866C170.329 41.2665 170.301 41.24 170.279 41.2088C170.258 41.1775 170.243 41.1421 170.236 41.1048C170.228 41.0675 170.229 41.0291 170.237 40.992C170.245 40.9548 170.261 40.9198 170.283 40.889C170.44 40.48 170.496 40.0392 170.446 39.6039C170.349 38.5404 170.545 37.4705 171.014 36.5112C171.484 35.552 172.208 34.7404 173.107 34.1653C174.562 33.1691 176.32 32.7167 178.074 32.8873C178.157 32.8924 178.236 32.9276 178.294 32.9865C178.353 33.0454 178.388 33.1237 178.393 33.2068C178.388 33.2899 178.353 33.3683 178.294 33.4271C178.236 33.486 178.157 33.5213 178.074 33.5263C176.471 33.3758 174.866 33.8012 173.547 34.7262C172.725 35.2507 172.064 35.9926 171.637 36.8697C171.21 37.7469 171.033 38.7251 171.127 39.6962C171.185 40.2406 171.102 40.7908 170.886 41.2937C170.775 41.3521 170.649 41.3767 170.524 41.3647Z" fill="white"/>
<path d="M184.503 55.5362H180.955C180.911 55.5425 180.866 55.538 180.824 55.5232C180.782 55.5084 180.744 55.4836 180.714 55.451C180.309 54.9753 179.82 54.5706 179.501 54.2511C175.463 50.1686 175.378 50.0905 175.378 41.8474V40.4274C175.378 40.3493 175.463 40.2712 175.463 40.186C175.495 40.1556 175.533 40.1328 175.575 40.1193C175.617 40.1058 175.661 40.1019 175.704 40.1079C176.315 40.1984 176.932 40.2506 177.549 40.2641C179.309 40.2767 181.029 39.7434 182.474 38.7376C182.534 38.6982 182.604 38.6772 182.676 38.6772C182.748 38.6772 182.818 38.6982 182.878 38.7376C184.215 39.7643 185.88 40.269 187.561 40.1576C188.238 40.1412 188.913 40.0891 189.584 40.0014C189.627 39.994 189.672 39.9971 189.714 40.0106C189.756 40.024 189.794 40.0473 189.826 40.0786C189.857 40.1099 189.88 40.1482 189.894 40.1904C189.907 40.2325 189.91 40.2773 189.903 40.3209V42.3941C189.903 49.9201 189.903 50.0763 186.107 53.8393C185.702 54.2369 185.22 54.7978 184.652 55.3587C184.645 55.5362 184.581 55.5362 184.503 55.5362ZM181.026 54.8901H184.34C184.822 54.3363 185.305 53.9316 185.709 53.4701C187.568 51.6312 188.455 50.6727 188.86 49.3947C189.264 48.1167 189.264 46.1926 189.264 42.5077V40.7469C188.675 40.8103 188.083 40.8363 187.49 40.825C185.76 40.92 184.05 40.4189 182.644 39.405C181.113 40.3433 179.351 40.8351 177.556 40.825C177.014 40.808 176.474 40.7559 175.938 40.6688V41.6841C175.938 45.7666 175.938 47.7688 176.421 49.2101C176.903 50.6514 177.876 51.6099 179.898 53.6121C180.208 54.0925 180.588 54.5234 181.026 54.8901Z" fill="white"/>
<path d="M184.743 52.7316C184.7 52.7376 184.656 52.7338 184.614 52.7202C184.572 52.7067 184.534 52.6839 184.502 52.6535C184.461 52.5799 184.439 52.4967 184.439 52.4121C184.439 52.3275 184.461 52.2443 184.502 52.1707C187.894 49.21 187.894 49.0538 187.809 44.3252V42.394C185.985 42.4439 184.179 42.0311 182.558 41.1941C180.98 41.9876 179.237 42.3986 177.47 42.394V42.4721C177.47 43.8353 177.392 45.3121 177.47 46.6327C177.459 46.7101 177.42 46.7809 177.361 46.832C177.301 46.8831 177.226 46.9113 177.148 46.9113C177.069 46.9113 176.994 46.8831 176.934 46.832C176.875 46.7809 176.836 46.7101 176.825 46.6327V42.0745C176.819 42.031 176.823 41.9868 176.837 41.9451C176.85 41.9034 176.873 41.8651 176.903 41.8331C176.936 41.8034 176.976 41.781 177.019 41.7676C177.061 41.7541 177.107 41.7498 177.151 41.755C178.978 41.8435 180.794 41.4285 182.402 40.5551C182.445 40.5147 182.502 40.4922 182.562 40.4922C182.621 40.4922 182.678 40.5147 182.721 40.5551C184.343 41.4733 186.199 41.8908 188.057 41.755C188.101 41.75 188.145 41.7543 188.186 41.7678C188.228 41.7813 188.266 41.8035 188.298 41.8331C188.328 41.8651 188.351 41.9034 188.364 41.9451C188.378 41.9868 188.382 42.031 188.377 42.0745C188.359 42.8209 188.385 43.5677 188.455 44.311C188.54 49.1958 188.54 49.4372 184.907 52.6393C184.907 52.7316 184.822 52.7316 184.743 52.7316Z" fill="white"/>
<path d="M169.474 45.2343C169.253 45.2329 169.036 45.1657 168.853 45.0413C168.669 44.9169 168.527 44.7408 168.443 44.5352C168.359 44.3297 168.339 44.104 168.383 43.8867C168.428 43.6694 168.536 43.4702 168.694 43.3143C168.852 43.1584 169.052 43.0528 169.27 43.0109C169.487 42.969 169.713 42.9927 169.917 43.0789C170.121 43.1651 170.296 43.3099 170.418 43.4952C170.54 43.6804 170.604 43.8977 170.603 44.1196C170.595 44.4154 170.474 44.6968 170.263 44.9047C170.053 45.1126 169.77 45.2307 169.474 45.2343ZM169.474 43.5587C169.35 43.5668 169.233 43.6194 169.145 43.7067C169.056 43.794 169.002 43.9104 168.992 44.0344C168.99 44.0983 169.001 44.162 169.025 44.2215C169.048 44.2809 169.084 44.3349 169.129 44.3802C169.174 44.4254 169.228 44.4609 169.287 44.4845C169.347 44.508 169.41 44.5192 169.474 44.5172C169.542 44.5255 169.611 44.5193 169.676 44.499C169.741 44.4786 169.801 44.4447 169.853 44.3994C169.904 44.3541 169.945 44.2985 169.973 44.2362C170.001 44.1738 170.015 44.1063 170.015 44.038C170.015 43.9696 170.001 43.9021 169.973 43.8398C169.945 43.7774 169.904 43.7218 169.853 43.6765C169.801 43.6312 169.741 43.5973 169.676 43.577C169.611 43.5567 169.542 43.5504 169.474 43.5587Z" fill="white"/>
<path d="M194.437 45.2342C194.289 45.239 194.141 45.2136 194.002 45.1595C193.864 45.1055 193.737 45.0239 193.631 44.9197C193.525 44.8155 193.441 44.6909 193.385 44.5534C193.328 44.4158 193.3 44.2682 193.302 44.1195C193.309 43.8218 193.432 43.5386 193.643 43.3294C193.855 43.1201 194.14 43.0012 194.437 42.9977C194.586 42.9928 194.734 43.0184 194.873 43.0729C195.012 43.1275 195.138 43.2098 195.243 43.3149C195.349 43.4199 195.432 43.5455 195.487 43.6839C195.543 43.8222 195.569 43.9705 195.565 44.1195C195.558 44.4152 195.436 44.6966 195.226 44.9045C195.016 45.1124 194.733 45.2306 194.437 45.2342ZM194.437 43.5586C194.369 43.5503 194.301 43.5565 194.235 43.5768C194.17 43.5971 194.11 43.631 194.059 43.6763C194.008 43.7216 193.967 43.7773 193.939 43.8396C193.911 43.9019 193.896 43.9695 193.896 44.0378C193.896 44.1061 193.911 44.1737 193.939 44.236C193.967 44.2983 194.008 44.354 194.059 44.3993C194.11 44.4446 194.17 44.4785 194.235 44.4988C194.301 44.5191 194.369 44.5253 194.437 44.5171C194.501 44.519 194.565 44.5079 194.624 44.4843C194.684 44.4608 194.738 44.4253 194.783 44.38C194.828 44.3348 194.863 44.2808 194.887 44.2213C194.911 44.1619 194.922 44.0982 194.92 44.0343C194.916 43.9052 194.865 43.782 194.776 43.6887C194.687 43.5955 194.566 43.539 194.437 43.5302V43.5586Z" fill="white"/>
<path d="M191.449 57.4535H174.242C174.157 57.4535 174.076 57.4198 174.016 57.3599C173.956 57.3 173.923 57.2187 173.923 57.134C173.923 57.0492 173.956 56.968 174.016 56.908C174.076 56.8481 174.157 56.8145 174.242 56.8145H191.123C191.207 56.8193 191.286 56.8544 191.346 56.9131C191.406 56.9718 191.443 57.0502 191.449 57.134C191.74 57.3044 191.605 57.4535 191.449 57.4535Z" fill="white"/>
<path d="M191.286 63.4597H164.777C164.73 63.4666 164.683 63.4634 164.638 63.4504C164.593 63.4373 164.551 63.4147 164.516 63.384C164.48 63.3533 164.452 63.3154 164.432 63.2727C164.412 63.23 164.402 63.1836 164.402 63.1367C164.402 63.0897 164.412 63.0433 164.432 63.0006C164.452 62.9579 164.48 62.92 164.516 62.8893C164.551 62.8587 164.593 62.836 164.638 62.823C164.683 62.8099 164.73 62.8067 164.777 62.8136H191.187C191.271 62.8185 191.35 62.8535 191.41 62.9122C191.47 62.971 191.507 63.0494 191.513 63.1331C191.606 63.3745 191.45 63.4597 191.286 63.4597Z" fill="white"/>
<path d="M198.637 65.0575H180.302C180.218 65.0526 180.139 65.0176 180.079 64.9588C180.019 64.9001 179.982 64.8217 179.976 64.738C179.982 64.6543 180.019 64.5758 180.079 64.5171C180.139 64.4584 180.218 64.4233 180.302 64.4185H198.637C198.72 64.4235 198.799 64.4588 198.858 64.5176C198.916 64.5765 198.952 64.6549 198.957 64.738C198.952 64.821 198.916 64.8994 198.858 64.9583C198.799 65.0171 198.72 65.0524 198.637 65.0575Z" fill="white"/>
<path d="M202.753 65.0575H200.496C200.413 65.0526 200.333 65.0176 200.273 64.9588C200.213 64.9001 200.177 64.8217 200.17 64.738C200.177 64.6543 200.213 64.5758 200.273 64.5171C200.333 64.4584 200.413 64.4233 200.496 64.4185H202.753C202.837 64.4233 202.916 64.4584 202.976 64.5171C203.036 64.5758 203.072 64.6543 203.079 64.738C203.072 64.8217 203.036 64.9001 202.976 64.9588C202.916 65.0176 202.837 65.0526 202.753 65.0575Z" fill="white"/>
<path d="M172.461 65.0575H163.74C163.657 65.0526 163.577 65.0176 163.517 64.9588C163.457 64.9001 163.421 64.8217 163.414 64.738C163.421 64.6543 163.457 64.5758 163.517 64.5171C163.577 64.4584 163.657 64.4233 163.74 64.4185H172.383C172.467 64.4233 172.546 64.4584 172.606 64.5171C172.666 64.5758 172.703 64.6543 172.709 64.738C172.787 64.8942 172.624 65.0575 172.461 65.0575Z" fill="white"/>
</svg>
