<svg width="232" height="94" viewBox="0 0 232 94" fill="none" xmlns="http://www.w3.org/2000/svg">
<path d="M35.4005 2.15529e-06L0 56.9988V71.2556H41.4461V93.578H184.78C197.181 93.5742 209.073 88.6423 217.84 79.8667C226.608 71.0912 231.533 59.1905 231.533 46.7819C231.531 40.6366 230.32 34.5518 227.968 28.8749C225.616 23.1981 222.169 18.0403 217.825 13.6962C213.481 9.35213 208.324 5.90672 202.65 3.55672C196.975 1.20672 190.893 -0.0018629 184.751 2.15529e-06H35.4005ZM219.776 47.5345C219.773 56.271 216.743 64.7363 211.202 71.4881C205.661 78.2399 197.952 82.8605 189.388 84.5628C180.824 86.2651 171.935 84.9437 164.235 80.8238C156.536 76.7039 150.502 70.0403 147.162 61.9683C143.822 53.8963 143.382 44.9153 145.918 36.5552C148.453 28.1952 153.807 20.9733 161.067 16.12C168.327 11.2667 177.044 9.08225 185.734 9.93874C194.423 10.7952 202.546 14.6397 208.721 20.8172C212.235 24.315 215.022 28.4754 216.919 33.0576C218.817 37.6399 219.788 42.5531 219.776 47.5132V47.5345Z" fill="white"/>
<path d="M58.3267 43.615C57.7571 43.6214 57.1914 43.5203 56.6592 43.3168C56.1678 43.1288 55.7196 42.8431 55.3416 42.4771C54.9635 42.111 54.6635 41.6721 54.4596 41.1868C54.0434 40.16 54.0434 39.0114 54.4596 37.9847C54.6666 37.5073 54.9656 37.0755 55.3394 36.7138C55.7221 36.3479 56.173 36.0608 56.6663 35.8689C57.7604 35.476 58.9569 35.476 60.051 35.8689C60.5532 36.0656 61.0027 36.3768 61.3637 36.7777L60.6541 37.4877C60.3561 37.1818 59.9988 36.9402 59.604 36.7777C59.2124 36.6272 58.7958 36.5525 58.3764 36.5576C57.9496 36.5548 57.5261 36.6319 57.1276 36.7848C56.7575 36.9236 56.4196 37.1361 56.1342 37.4096C55.853 37.6808 55.6308 38.007 55.4814 38.3681C55.3286 38.752 55.2514 39.1619 55.2543 39.5751C55.2522 39.9836 55.3293 40.3887 55.4814 40.7679C55.6308 41.1289 55.853 41.4552 56.1342 41.7264C56.4175 42.0025 56.7528 42.2196 57.1205 42.3654C57.5274 42.5242 57.9609 42.6037 58.3977 42.5997C58.8059 42.6029 59.2116 42.5357 59.5969 42.4009C59.9978 42.2648 60.3636 42.0417 60.6683 41.7477L61.307 42.5997C60.9046 42.933 60.4421 43.1861 59.9446 43.3452C59.4234 43.5221 58.877 43.6132 58.3267 43.615ZM60.2213 42.4719V39.5538H61.2927V42.5997L60.2213 42.4719Z" fill="#0C4651"/>
<path d="M65.9193 43.5866C65.337 43.6006 64.7607 43.4663 64.2447 43.1961C63.7787 42.9498 63.3905 42.5786 63.1235 42.124C62.854 41.6456 62.7169 41.104 62.7262 40.5549C62.7155 40.0074 62.8476 39.4666 63.1094 38.9858C63.3609 38.5388 63.7287 38.1683 64.1737 37.9137C64.6425 37.6544 65.1708 37.5222 65.7064 37.5303C66.2367 37.5206 66.7603 37.6503 67.2249 37.9066C67.6642 38.1592 68.0233 38.5308 68.2608 38.9787C68.5218 39.4724 68.6513 40.025 68.6369 40.5833C68.6402 40.6377 68.6402 40.6922 68.6369 40.7466C68.6407 40.801 68.6407 40.8555 68.6369 40.9099H63.5848V40.136H68.0764L67.6435 40.4058C67.6574 40.0516 67.5739 39.7005 67.4023 39.3905C67.2364 39.0923 66.9907 38.8464 66.6927 38.6805C66.3859 38.5127 66.0418 38.4248 65.6922 38.4248C65.3425 38.4248 64.9985 38.5127 64.6917 38.6805C64.3928 38.8452 64.1467 39.0914 63.9821 39.3905C63.8146 39.71 63.7292 40.0663 63.7338 40.4271V40.6117C63.7283 40.9829 63.824 41.3487 64.0105 41.6696C64.1978 41.9706 64.4625 42.2158 64.7768 42.3796C65.1268 42.5546 65.5139 42.6422 65.905 42.6352C66.2328 42.6379 66.558 42.5776 66.863 42.4577C67.1528 42.3361 67.412 42.1518 67.6222 41.9181L68.2183 42.6281C67.9444 42.9424 67.5987 43.186 67.2107 43.3381C66.7998 43.502 66.3616 43.5864 65.9193 43.5866Z" fill="#0C4651"/>
<path d="M71.8296 43.5866C71.3494 43.5912 70.8711 43.5242 70.4105 43.3878C70.0348 43.2864 69.6795 43.1206 69.3604 42.8979L69.8074 42.0459C70.1005 42.2331 70.4181 42.3789 70.7511 42.479C71.1203 42.5978 71.5058 42.6577 71.8935 42.6565C72.2657 42.6851 72.6386 42.6114 72.9721 42.4435C73.0687 42.3862 73.1492 42.3053 73.2063 42.2085C73.2634 42.1117 73.2951 42.002 73.2985 41.8897C73.3015 41.8052 73.2845 41.7213 73.2487 41.6447C73.2129 41.5682 73.1594 41.5013 73.0927 41.4495C72.9448 41.3263 72.7734 41.2345 72.5889 41.1797C72.3618 41.13 72.1206 41.0803 71.8793 41.0377C71.6095 41 71.3418 40.9479 71.0775 40.8815C70.8186 40.8239 70.5682 40.7332 70.3325 40.6117C70.1164 40.5027 69.9328 40.3386 69.8003 40.136C69.6534 39.8872 69.5819 39.6011 69.5945 39.3124C69.5866 38.9722 69.6941 38.6393 69.8996 38.3681C70.1204 38.0822 70.4184 37.8654 70.7582 37.7433C71.179 37.5921 71.624 37.5199 72.0709 37.5303C72.4674 37.5299 72.8626 37.5752 73.2488 37.6652C73.5979 37.74 73.9316 37.8745 74.2351 38.0628L73.7739 38.9148C73.5158 38.744 73.2301 38.6191 72.9295 38.5456C72.643 38.481 72.3504 38.4477 72.0567 38.4462C71.6924 38.4233 71.3288 38.5019 71.0065 38.6734C70.9037 38.7343 70.8178 38.8203 70.7571 38.9234C70.6963 39.0264 70.6625 39.1431 70.6589 39.2627C70.6535 39.3515 70.6694 39.4403 70.7052 39.5218C70.741 39.6033 70.7956 39.6751 70.8646 39.7313C71.0263 39.8488 71.2096 39.9333 71.4039 39.9798C71.6372 40.0455 71.8741 40.0977 72.1135 40.136C72.3856 40.1744 72.6556 40.2265 72.9224 40.2922C73.1685 40.3511 73.4068 40.4393 73.632 40.5549C73.8487 40.6625 74.0344 40.8239 74.1712 41.0235C74.3223 41.2653 74.3943 41.5482 74.377 41.8329C74.3867 42.1702 74.276 42.4999 74.0648 42.763C73.8278 43.0409 73.5219 43.2515 73.1778 43.3736C72.7446 43.524 72.2881 43.5961 71.8296 43.5866Z" fill="#0C4651"/>
<path d="M74.8887 38.4676V37.5872H78.6707V38.4676H74.8887ZM77.7766 43.5868C77.5203 43.6064 77.2627 43.5744 77.0189 43.4927C76.7751 43.411 76.5503 43.2812 76.3575 43.111C76.1817 42.9214 76.0474 42.6972 75.9631 42.4527C75.8788 42.2082 75.8464 41.9488 75.8679 41.691V36.2524H76.9393V41.6484C76.9304 41.9066 77.0162 42.1592 77.1806 42.3584C77.2731 42.4507 77.3843 42.5219 77.5067 42.5673C77.6292 42.6126 77.76 42.631 77.8902 42.6212C78.1964 42.6297 78.4957 42.529 78.7346 42.3371L79.0681 43.111C78.8973 43.2575 78.6961 43.3642 78.4791 43.4234C78.2547 43.5137 78.0178 43.5688 77.7766 43.5868Z" fill="#0C4651"/>
<path d="M80.9127 36.4439C80.8149 36.4427 80.7184 36.4212 80.6293 36.3809C80.5401 36.3406 80.4603 36.2823 80.3948 36.2096C80.3268 36.1476 80.2727 36.0719 80.236 35.9874C80.1993 35.903 80.1809 35.8118 80.1819 35.7197C80.1793 35.6254 80.1969 35.5315 80.2337 35.4446C80.2704 35.3576 80.3253 35.2795 80.3948 35.2156C80.4627 35.1481 80.5437 35.095 80.6327 35.0596C80.7217 35.0243 80.817 35.0073 80.9127 35.0097C81.008 35.0063 81.103 35.0222 81.192 35.0564C81.281 35.0905 81.3622 35.1423 81.4307 35.2085C81.4998 35.2697 81.5547 35.3452 81.5914 35.4299C81.6282 35.5145 81.646 35.6062 81.6436 35.6984C81.6436 35.8867 81.5688 36.0673 81.4358 36.2005C81.3027 36.3336 81.1222 36.4084 80.934 36.4084L80.9127 36.4439ZM80.3735 43.5439V37.6083H81.452V43.5439H80.3735Z" fill="#0C4651"/>
<path d="M86.0709 43.5868C85.5163 43.5967 84.9685 43.4622 84.4815 43.1964C84.0249 42.9418 83.645 42.569 83.3817 42.1171C83.1083 41.6426 82.9686 41.1028 82.9772 40.5551C82.9657 40.0071 83.1056 39.4666 83.3817 38.9931C83.6454 38.5434 84.0254 38.1731 84.4815 37.921C84.9676 37.6527 85.516 37.518 86.0709 37.5305C86.6224 37.5216 87.167 37.6536 87.6533 37.914C88.1114 38.1634 88.4919 38.5343 88.7531 38.986C89.014 39.4678 89.1506 40.0072 89.1506 40.5551C89.1506 41.1031 89.014 41.6424 88.7531 42.1242C88.4894 42.5739 88.1095 42.9443 87.6533 43.1964C87.1688 43.4622 86.6234 43.5968 86.0709 43.5868ZM86.0709 42.6496C86.4279 42.6546 86.7801 42.5665 87.0927 42.3941C87.391 42.2284 87.6368 41.9825 87.8023 41.6841C87.9703 41.3403 88.0576 40.9627 88.0576 40.58C88.0576 40.1973 87.9703 39.8197 87.8023 39.4759C87.6344 39.1793 87.3892 38.9339 87.0927 38.7659C86.7801 38.5935 86.4279 38.5054 86.0709 38.5103C85.7138 38.5037 85.3612 38.5919 85.0492 38.7659C84.7562 38.9384 84.512 39.1828 84.3396 39.4759C84.1623 39.8169 84.0698 40.1957 84.0698 40.58C84.0698 40.9644 84.1623 41.3431 84.3396 41.6841C84.5097 41.979 84.7544 42.2239 85.0492 42.3941C85.3612 42.5681 85.7138 42.6562 86.0709 42.6496ZM85.2195 36.7211L86.7379 35.2656H88.1074L86.2271 36.7211H85.2195Z" fill="#0C4651"/>
<path d="M93.777 37.5304C94.2208 37.5209 94.6608 37.6157 95.0613 37.8073C95.4325 37.9927 95.7356 38.291 95.927 38.6593C96.1477 39.0992 96.255 39.5873 96.2392 40.0793V43.4944H95.1678V40.2C95.2022 39.7289 95.0521 39.2629 94.7491 38.9006C94.5927 38.7494 94.4066 38.6322 94.2027 38.5564C93.9987 38.4807 93.7813 38.448 93.5641 38.4605C93.2195 38.4546 92.8786 38.5326 92.5707 38.6877C92.2886 38.8353 92.0584 39.0657 91.9108 39.348C91.7501 39.6869 91.6722 40.0593 91.6838 40.4343V43.4944H90.6123V37.5588H91.6412V39.1563L91.4709 38.7303C91.6669 38.3414 91.9795 38.0237 92.3649 37.8215C92.8047 37.6103 93.2896 37.5103 93.777 37.5304Z" fill="#0C4651"/>
<path d="M56.3688 57.1972C55.9692 57.2043 55.5727 57.1268 55.2051 56.97C54.8963 56.8408 54.6306 56.6266 54.4388 56.3523C54.2608 56.0854 54.1669 55.7713 54.1691 55.4506C54.1648 55.1411 54.2458 54.8365 54.4033 54.5702C54.5796 54.2885 54.8404 54.0698 55.1483 53.9454C55.5999 53.7693 56.0833 53.6896 56.5675 53.7111H58.4549V54.485H56.6171C56.2344 54.4383 55.8479 54.5344 55.5315 54.7548C55.44 54.8353 55.3673 54.9349 55.3183 55.0465C55.2692 55.1581 55.2451 55.279 55.2477 55.4009C55.244 55.5386 55.2737 55.675 55.3342 55.7987C55.3948 55.9223 55.4844 56.0295 55.5953 56.1109C55.8795 56.302 56.2186 56.3943 56.5604 56.3736C56.9306 56.3805 57.2959 56.2873 57.6176 56.1038C57.9189 55.9268 58.1496 55.6508 58.2704 55.3228L58.4833 56.0328C58.3366 56.3864 58.0738 56.6795 57.7383 56.8635C57.319 57.0933 56.8467 57.2084 56.3688 57.1972ZM58.313 57.1262V55.8766L58.2562 55.6352V53.5052C58.2695 53.3107 58.2408 53.1156 58.1723 52.9331C58.1037 52.7506 57.9969 52.5849 57.8589 52.4473C57.5246 52.1732 57.0977 52.0385 56.6668 52.071C56.3168 52.071 55.9692 52.1286 55.6379 52.2414C55.3296 52.3481 55.0416 52.5065 54.7864 52.71L54.3394 51.9006C54.6673 51.6457 55.0405 51.4554 55.4392 51.3397C55.8782 51.2047 56.3353 51.1377 56.7945 51.1409C57.4738 51.097 58.1449 51.3099 58.6749 51.7373C58.9088 51.9736 59.0889 52.2578 59.2028 52.5703C59.3167 52.8828 59.3617 53.2162 59.3348 53.5478V57.1333L58.313 57.1262Z" fill="#0C4651"/>
<path d="M68.7502 51.1197C69.1872 51.1107 69.6201 51.2056 70.0133 51.3966C70.3793 51.5867 70.6788 51.884 70.8719 52.2487C71.0892 52.6897 71.1964 53.177 71.1841 53.6687V57.0838H70.1055V53.7893C70.1403 53.3206 69.9957 52.8561 69.7011 52.49C69.5547 52.3415 69.3784 52.2261 69.1838 52.1514C68.9892 52.0767 68.7809 52.0445 68.5728 52.0569C68.2446 52.0482 67.9197 52.124 67.6291 52.277C67.3591 52.4268 67.1431 52.6578 67.0118 52.9373C66.8538 53.277 66.7784 53.6493 66.7918 54.0237V57.0838H65.7133V53.7893C65.7507 53.3214 65.6086 52.8568 65.3159 52.49C65.1705 52.3382 64.9933 52.2207 64.7969 52.1458C64.6006 52.0709 64.3901 52.0405 64.1806 52.0569C63.857 52.0497 63.537 52.1254 63.2511 52.277C62.9805 52.4282 62.7626 52.6586 62.6266 52.9373C62.4659 53.2763 62.3881 53.6487 62.3996 54.0237V57.0838H61.3281V51.1907H62.357V52.7669L62.1867 52.3693C62.3717 51.9822 62.6748 51.664 63.0524 51.4605C63.4675 51.234 63.935 51.1214 64.4077 51.1339C64.9284 51.1213 65.4407 51.2674 65.8765 51.5528C66.2969 51.8577 66.584 52.3128 66.6783 52.8238L66.2455 52.6463C66.4268 52.1855 66.7564 51.7983 67.1821 51.5457C67.6541 51.2583 68.1978 51.1106 68.7502 51.1197Z" fill="#0C4651"/>
<path d="M73.1641 57.1266V48.8125H74.2355V52.7672L74.1291 54.1446L74.193 55.5646V57.1621L73.1641 57.1266ZM76.3075 57.1976C75.8292 57.2047 75.3573 57.0872 74.938 56.8568C74.5236 56.6206 74.188 56.2675 73.973 55.8415C73.7233 55.3168 73.604 54.7396 73.6253 54.1588C73.6061 53.5767 73.7304 52.9988 73.9872 52.4761C74.2072 52.0532 74.5448 51.7031 74.9593 51.4679C75.3734 51.2447 75.8371 51.1299 76.3075 51.1342C76.8478 51.1233 77.3815 51.2556 77.8543 51.5176C78.2997 51.7654 78.668 52.1315 78.9187 52.5755C79.1885 53.0586 79.3233 53.6056 79.309 54.1588C79.3225 54.7142 79.1878 55.2632 78.9187 55.7492C78.6662 56.1936 78.2985 56.5615 77.8543 56.8142C77.3815 57.0762 76.8478 57.2085 76.3075 57.1976ZM76.2223 56.2533C76.5793 56.2582 76.9314 56.1701 77.2441 55.9977C77.5419 55.8315 77.7876 55.5856 77.9537 55.2877C78.1358 54.9501 78.2264 54.5707 78.2162 54.1872C78.2294 53.8034 78.1387 53.4232 77.9537 53.0867C77.787 52.7892 77.5414 52.5435 77.2441 52.3767C76.9314 52.2043 76.5793 52.1161 76.2223 52.1211C75.8675 52.1154 75.5175 52.2036 75.2076 52.3767C74.9103 52.5435 74.6648 52.7892 74.4981 53.0867C74.313 53.4232 74.2223 53.8034 74.2355 54.1872C74.2254 54.5707 74.3159 54.9501 74.4981 55.2877C74.6642 55.5856 74.9099 55.8315 75.2076 55.9977C75.5175 56.1708 75.8675 56.259 76.2223 56.2533Z" fill="#0C4651"/>
<path d="M81.3384 50.0479C81.2414 50.0513 81.1448 50.0348 81.0545 49.9994C80.9642 49.9639 80.8821 49.9104 80.8133 49.842C80.7469 49.779 80.6944 49.703 80.659 49.6186C80.6236 49.5343 80.606 49.4435 80.6075 49.3521C80.607 49.2586 80.6249 49.166 80.6602 49.0795C80.6955 48.993 80.7475 48.9143 80.8133 48.8479C80.8827 48.7808 80.9651 48.7286 81.0553 48.6944C81.1456 48.6602 81.2419 48.6448 81.3384 48.6492C81.4331 48.6449 81.5278 48.6596 81.6168 48.6925C81.7057 48.7254 81.7872 48.7759 81.8564 48.8408C81.9242 48.9027 81.9777 48.9785 82.0132 49.0631C82.0488 49.1477 82.0655 49.239 82.0621 49.3307C82.0621 49.519 81.9874 49.6997 81.8543 49.8328C81.7212 49.966 81.5408 50.0407 81.3526 50.0407L81.3384 50.0479ZM80.7991 57.1479V51.1909H81.8776V57.1266L80.7991 57.1479Z" fill="#0C4651"/>
<path d="M86.5677 57.1973C85.9848 57.2092 85.4085 57.0723 84.8931 56.7997C84.4249 56.5566 84.0359 56.1846 83.772 55.7276C83.5025 55.2492 83.3653 54.7076 83.3746 54.1585C83.364 53.6111 83.496 53.0703 83.7578 52.5894C84.0121 52.1445 84.3792 51.7747 84.8221 51.5173C85.2909 51.258 85.8193 51.1259 86.3548 51.1339C86.8862 51.1229 87.4107 51.2554 87.8733 51.5173C88.3139 51.7651 88.6736 52.1349 88.9093 52.5823C89.1702 53.0786 89.2997 53.6335 89.2853 54.194C89.2884 54.2461 89.2884 54.2982 89.2853 54.3502C89.2889 54.407 89.2889 54.4639 89.2853 54.5206H84.2332V53.7467H88.7248L88.2919 54.0094C88.3058 53.6553 88.2224 53.3041 88.0507 52.9941C87.8967 52.6991 87.6631 52.4532 87.3766 52.2841C87.0686 52.12 86.725 52.0342 86.3761 52.0342C86.0272 52.0342 85.6836 52.12 85.3756 52.2841C85.0757 52.4475 84.8293 52.6941 84.666 52.9941C84.4968 53.313 84.4113 53.6697 84.4177 54.0307V54.2082C84.4115 54.5795 84.5072 54.9455 84.6944 55.2661C84.8777 55.5705 85.1434 55.8166 85.4608 55.9761C85.785 56.13 86.1372 56.2162 86.4958 56.2296C86.8544 56.2431 87.212 56.1834 87.5469 56.0542C87.8367 55.9326 88.096 55.7484 88.3061 55.5146L88.9022 56.2246C88.6283 56.539 88.2827 56.7825 87.8946 56.9346C87.4736 57.1079 87.0229 57.1971 86.5677 57.1973Z" fill="#0C4651"/>
<path d="M93.9472 51.1196C94.3887 51.1113 94.826 51.2061 95.2244 51.3966C95.5947 51.5858 95.899 51.8829 96.0972 52.2486C96.3146 52.6896 96.4217 53.1769 96.4094 53.6686V57.0837H95.3308V53.7893C95.3684 53.3178 95.2179 52.8507 94.9122 52.4899C94.7567 52.3398 94.5717 52.2237 94.3689 52.1492C94.1661 52.0746 93.9499 52.0431 93.7343 52.0569C93.3879 52.0476 93.0444 52.1232 92.7338 52.277C92.4535 52.4246 92.2255 52.6552 92.081 52.9372C91.917 53.2751 91.839 53.6483 91.8539 54.0236V57.0837H90.7754V51.1906H91.8043V52.7952L91.6411 52.3693C91.833 51.9775 92.1467 51.6586 92.5351 51.4604C92.9693 51.2289 93.4552 51.1116 93.9472 51.1196Z" fill="#0C4651"/>
<path d="M97.5518 52.0784V51.1909H101.334V52.0784H97.5518ZM100.44 57.1975C100.189 57.213 99.9369 57.1782 99.6994 57.0953C99.4618 57.0125 99.2431 56.8831 99.056 56.7147C98.8823 56.5321 98.7485 56.3154 98.663 56.0782C98.5774 55.8411 98.5422 55.5888 98.5594 55.3373V49.8916H99.6379V55.2876C99.6283 55.5459 99.7142 55.7987 99.8792 55.9976C99.9714 56.0897 100.083 56.1604 100.205 56.2046C100.328 56.2488 100.459 56.2654 100.589 56.2532C100.893 56.2638 101.191 56.1629 101.426 55.9692L101.76 56.7431C101.588 56.8894 101.387 56.9982 101.171 57.0626C100.935 57.1424 100.689 57.1878 100.44 57.1975Z" fill="#0C4651"/>
<path d="M104.776 57.1973C104.379 57.2052 103.984 57.1277 103.619 56.9701C103.31 56.8392 103.042 56.6255 102.846 56.3524C102.67 56.085 102.579 55.7708 102.583 55.4507C102.577 55.1419 102.655 54.8373 102.81 54.5703C102.99 54.2885 103.253 54.07 103.563 53.9455C104.014 53.7695 104.498 53.6897 104.982 53.7113H106.862V54.4851H105.024C104.642 54.4385 104.255 54.5345 103.939 54.7549C103.849 54.8367 103.777 54.9364 103.728 55.0478C103.679 55.1591 103.654 55.2795 103.655 55.4011C103.651 55.5387 103.681 55.6752 103.741 55.7988C103.802 55.9225 103.892 56.0296 104.003 56.1111C104.287 56.3022 104.626 56.3945 104.968 56.3738C105.338 56.3817 105.704 56.2884 106.025 56.104C106.328 55.9273 106.561 55.6514 106.685 55.3229L106.898 56.0329C106.748 56.3868 106.483 56.6796 106.145 56.8637C105.727 57.0944 105.254 57.2096 104.776 57.1973ZM106.72 57.1264V55.8768L106.671 55.6353V53.5053C106.68 53.3112 106.65 53.1171 106.582 52.9351C106.513 52.7532 106.408 52.5872 106.273 52.4474C105.938 52.1754 105.512 52.0409 105.081 52.0712C104.729 52.0712 104.379 52.1287 104.045 52.2416C103.737 52.3483 103.449 52.5067 103.194 52.7101L102.747 51.9007C103.076 51.6444 103.452 51.4539 103.854 51.3398C104.298 51.1948 104.763 51.1205 105.23 51.1197C105.91 51.0745 106.581 51.2875 107.11 51.7162C107.344 51.9525 107.524 52.2367 107.638 52.5492C107.752 52.8617 107.797 53.1951 107.77 53.5267V57.1121L106.72 57.1264Z" fill="#0C4651"/>
<path d="M109.735 57.1266V48.8125H110.807V57.1266H109.735Z" fill="#0C4651"/>
<path d="M196.835 55.5927H169.027C168.972 55.5916 168.918 55.5783 168.869 55.5537C168.82 55.5292 168.777 55.494 168.743 55.4506C168.672 55.3796 168.743 55.2448 168.814 55.1738L175.612 48.0241C175.639 47.9974 175.671 47.9771 175.707 47.9648C175.742 47.9525 175.78 47.9485 175.818 47.9531H190.108C190.147 47.9484 190.186 47.9524 190.223 47.9647C190.26 47.9769 190.293 47.9972 190.321 48.0241L197.119 55.1738C197.143 55.2019 197.161 55.2346 197.172 55.2701C197.183 55.3055 197.187 55.3428 197.183 55.3797C197.16 55.451 197.112 55.5117 197.049 55.5508C196.985 55.5899 196.909 55.6047 196.835 55.5927ZM169.722 55.1028H196.275L190.038 48.514H176.031L169.722 55.1028Z" fill="white"/>
<path d="M193.124 48.4427H172.809C172.754 48.4417 172.7 48.4284 172.651 48.4038C172.602 48.3793 172.559 48.3441 172.525 48.3008C172.455 48.2298 172.525 48.0949 172.596 48.0239L177.563 42.2658C177.591 42.2389 177.625 42.2186 177.662 42.2064C177.699 42.1941 177.738 42.1901 177.776 42.1948H188.25C188.321 42.1948 188.391 42.2658 188.455 42.2658L193.422 48.0239C193.449 48.0508 193.469 48.0833 193.481 48.1189C193.493 48.1545 193.497 48.1923 193.493 48.2298C193.46 48.2978 193.407 48.3544 193.341 48.3923C193.275 48.4302 193.2 48.4478 193.124 48.4427ZM173.349 47.889H192.542L187.987 42.6775H177.854L173.349 47.889Z" fill="white"/>
<path d="M190.599 42.6777H175.329C175.275 42.678 175.222 42.6659 175.174 42.6426C175.126 42.6192 175.085 42.585 175.052 42.5428C174.981 42.4718 175.052 42.3369 175.123 42.2659L178.834 37.8923C178.861 37.866 178.893 37.846 178.929 37.8338C178.964 37.8215 179.002 37.8173 179.04 37.8213H186.888C186.958 37.8213 187.029 37.8923 187.1 37.8923L190.811 42.1949C190.838 42.2219 190.858 42.2543 190.87 42.2899C190.882 42.3255 190.886 42.3634 190.882 42.4008C190.877 42.4737 190.845 42.5423 190.793 42.5933C190.741 42.6444 190.672 42.6744 190.599 42.6777ZM175.889 42.1239H190.038L186.746 38.3396H179.182L175.889 42.1239Z" fill="white"/>
<path d="M189.342 38.3752H176.57C176.515 38.3755 176.462 38.3636 176.413 38.3402C176.363 38.3169 176.32 38.2827 176.286 38.2403C176.222 38.1693 176.286 38.0344 176.357 37.9634L179.444 34.3496C179.471 34.3249 179.504 34.3065 179.54 34.2955C179.575 34.2845 179.613 34.2811 179.649 34.2856H186.163C186.234 34.2856 186.305 34.3496 186.376 34.3496L189.463 37.9634C189.487 37.9913 189.506 38.0241 189.517 38.0595C189.528 38.095 189.531 38.1325 189.527 38.1694C189.619 38.2404 189.484 38.3752 189.342 38.3752ZM177.223 37.8215H188.711L186.05 34.7898H179.813L177.223 37.8215Z" fill="white"/>
<path d="M187.732 34.7897H178.131C178.078 34.7884 178.026 34.7758 177.978 34.7525C177.93 34.7292 177.888 34.6959 177.855 34.6548C177.784 34.5838 177.855 34.4418 177.926 34.3708L182.758 28.9606C182.784 28.9339 182.817 28.9136 182.852 28.9013C182.888 28.889 182.926 28.885 182.964 28.8896C183.002 28.8849 183.041 28.8889 183.078 28.9012C183.115 28.9135 183.148 28.9337 183.176 28.9606L187.938 34.3708C188.009 34.3708 188.009 34.4418 188.009 34.5128C188.012 34.5499 188.007 34.5874 187.994 34.6225C187.981 34.6576 187.961 34.6894 187.935 34.7158C187.908 34.7422 187.877 34.7625 187.841 34.7752C187.806 34.788 187.769 34.7929 187.732 34.7897ZM178.763 34.2359H187.171L182.964 29.5144L178.763 34.2359Z" fill="white"/>
<path d="M184.439 61.7694H181.423C181.351 61.7645 181.284 61.7337 181.233 61.6828C181.182 61.6319 181.151 61.5643 181.146 61.4925V55.3794C181.151 55.3076 181.182 55.2401 181.233 55.1892C181.284 55.1383 181.351 55.1075 181.423 55.1025H184.439C184.51 55.1089 184.577 55.1402 184.627 55.1908C184.678 55.2414 184.709 55.3082 184.716 55.3794V61.4925C184.709 61.5638 184.678 61.6306 184.627 61.6813C184.577 61.7319 184.51 61.7631 184.439 61.7694ZM181.778 61.2156H184.226V55.6635H181.778V61.2156Z" fill="white"/>
<path d="M192.351 61.7696H173.647C173.576 61.7633 173.509 61.7321 173.458 61.6815C173.408 61.6308 173.376 61.564 173.37 61.4927C173.375 61.4209 173.406 61.3534 173.457 61.3025C173.508 61.2516 173.575 61.2208 173.647 61.2158H192.422C192.495 61.2191 192.564 61.2492 192.617 61.3002C192.669 61.3513 192.701 61.4198 192.706 61.4927C192.674 61.5646 192.625 61.6275 192.563 61.6759C192.501 61.7242 192.429 61.7564 192.351 61.7696Z" fill="white"/>
<path d="M198.588 63.0902H183.034C182.967 63.0795 182.907 63.0455 182.863 62.9941C182.819 62.9427 182.795 62.8773 182.795 62.8098C182.795 62.7422 182.819 62.6768 182.863 62.6254C182.907 62.574 182.967 62.5399 183.034 62.5293H198.588C198.66 62.5343 198.727 62.565 198.778 62.6159C198.829 62.6668 198.86 62.7344 198.865 62.8062C198.869 62.8439 198.865 62.8822 198.853 62.9181C198.84 62.9541 198.82 62.9868 198.794 63.014C198.767 63.0412 198.735 63.0622 198.699 63.0754C198.664 63.0885 198.626 63.0936 198.588 63.0902Z" fill="white"/>
<path d="M202.157 63.0903H200.199C200.132 63.0797 200.072 63.0456 200.028 62.9942C199.984 62.9428 199.96 62.8775 199.96 62.8099C199.96 62.7423 199.984 62.677 200.028 62.6256C200.072 62.5742 200.132 62.5401 200.199 62.5294H202.157C202.198 62.523 202.239 62.5253 202.279 62.5365C202.319 62.5476 202.355 62.5672 202.386 62.5938C202.418 62.6205 202.443 62.6536 202.46 62.6909C202.477 62.7282 202.486 62.7688 202.486 62.8099C202.486 62.851 202.477 62.8916 202.46 62.9289C202.443 62.9662 202.418 62.9993 202.386 63.026C202.355 63.0526 202.319 63.0722 202.279 63.0833C202.239 63.0944 202.198 63.0968 202.157 63.0903Z" fill="white"/>
<path d="M176.308 63.0903H168.957C168.916 63.0968 168.875 63.0944 168.835 63.0833C168.795 63.0722 168.759 63.0526 168.728 63.026C168.696 62.9993 168.671 62.9662 168.654 62.9289C168.637 62.8916 168.628 62.851 168.628 62.8099C168.628 62.7688 168.637 62.7282 168.654 62.6909C168.671 62.6536 168.696 62.6205 168.728 62.5938C168.759 62.5672 168.795 62.5476 168.835 62.5365C168.875 62.5253 168.916 62.523 168.957 62.5294H176.308C176.38 62.5342 176.449 62.5647 176.501 62.6155C176.553 62.6663 176.585 62.7339 176.592 62.8063C176.595 62.8445 176.59 62.8828 176.576 62.9187C176.563 62.9546 176.543 62.9873 176.516 63.0143C176.489 63.0414 176.456 63.0622 176.42 63.0753C176.384 63.0885 176.346 63.0936 176.308 63.0903Z" fill="white"/>
<path d="M176.897 53.7181C176.691 53.7153 176.491 53.6518 176.321 53.5354C176.152 53.419 176.02 53.2551 175.944 53.0641C175.867 52.8732 175.848 52.6638 175.89 52.4623C175.932 52.2608 176.032 52.0761 176.179 51.9316C176.325 51.787 176.511 51.689 176.713 51.6499C176.915 51.6108 177.124 51.6323 177.314 51.7117C177.503 51.791 177.665 51.9248 177.779 52.0961C177.893 52.2674 177.954 52.4687 177.954 52.6745C177.947 52.9514 177.833 53.2148 177.636 53.4093C177.439 53.6039 177.174 53.7146 176.897 53.7181ZM176.897 52.1917C176.833 52.1897 176.769 52.2009 176.709 52.2243C176.649 52.2478 176.595 52.2832 176.549 52.3283C176.503 52.3735 176.467 52.4274 176.443 52.4869C176.418 52.5464 176.406 52.6102 176.407 52.6745C176.405 52.7736 176.431 52.8713 176.485 52.9551C176.538 53.0388 176.615 53.1047 176.706 53.1443C176.797 53.1839 176.897 53.1954 176.995 53.1772C177.092 53.1591 177.182 53.1122 177.253 53.0426C177.323 52.973 177.371 52.8838 177.391 52.7866C177.41 52.6893 177.4 52.5884 177.362 52.4969C177.324 52.4054 177.259 52.3274 177.176 52.273C177.093 52.2186 176.996 52.1903 176.897 52.1917Z" fill="white"/>
<path d="M187.448 51.4248C187.242 51.4234 187.041 51.3608 186.87 51.2449C186.699 51.1291 186.566 50.9652 186.489 50.7739C186.411 50.5827 186.392 50.3727 186.434 50.1705C186.475 49.9684 186.576 49.783 186.723 49.6381C186.87 49.4931 187.056 49.395 187.259 49.3561C187.461 49.3172 187.671 49.3393 187.861 49.4196C188.051 49.4999 188.213 49.6348 188.326 49.8072C188.44 49.9796 188.5 50.1817 188.498 50.3882C188.489 50.6627 188.375 50.9232 188.18 51.1161C187.984 51.309 187.722 51.4195 187.448 51.4248ZM187.448 49.8273C187.384 49.8263 187.319 49.8384 187.26 49.8626C187.2 49.8869 187.145 49.923 187.1 49.9686C187.054 50.0143 187.018 50.0687 186.994 50.1286C186.97 50.1885 186.958 50.2526 186.958 50.3172C186.958 50.4471 187.01 50.5717 187.102 50.6636C187.194 50.7555 187.318 50.8071 187.448 50.8071C187.578 50.8071 187.702 50.7555 187.794 50.6636C187.886 50.5717 187.938 50.4471 187.938 50.3172C187.931 50.1895 187.877 50.0688 187.787 49.9783C187.696 49.8879 187.576 49.8341 187.448 49.8273Z" fill="white"/>
<path d="M179.536 46.9873C179.33 46.9859 179.129 46.9235 178.958 46.8079C178.788 46.6924 178.655 46.5289 178.577 46.3381C178.499 46.1472 178.48 45.9376 178.521 45.7356C178.562 45.5336 178.662 45.3483 178.808 45.2031C178.954 45.0578 179.14 44.9591 179.342 44.9194C179.544 44.8797 179.754 44.9008 179.944 44.98C180.134 45.0592 180.297 45.193 180.411 45.3645C180.525 45.5359 180.586 45.7375 180.586 45.9436C180.577 46.2188 180.463 46.4801 180.268 46.6741C180.073 46.8681 179.811 46.9802 179.536 46.9873ZM179.536 45.4537C179.471 45.4518 179.406 45.463 179.345 45.4869C179.285 45.5107 179.229 45.5467 179.183 45.5924C179.137 45.6382 179.1 45.6929 179.075 45.7533C179.051 45.8136 179.038 45.8784 179.039 45.9436C179.038 46.0422 179.066 46.1389 179.119 46.2216C179.173 46.3042 179.25 46.3691 179.341 46.4078C179.432 46.4465 179.532 46.4574 179.628 46.439C179.725 46.4206 179.814 46.3738 179.885 46.3046C179.955 46.2354 180.003 46.1469 180.023 46.0503C180.042 45.9537 180.033 45.8534 179.996 45.7621C179.958 45.6709 179.894 45.5929 179.813 45.5379C179.731 45.483 179.634 45.4537 179.536 45.4537Z" fill="white"/>
<path d="M185.347 41.4355C185.141 41.4341 184.941 41.3717 184.77 41.2562C184.599 41.1406 184.467 40.9772 184.389 40.7863C184.311 40.5955 184.291 40.3858 184.332 40.1839C184.373 39.9819 184.473 39.7966 184.62 39.6513C184.766 39.5061 184.952 39.4074 185.154 39.3677C185.356 39.328 185.565 39.3491 185.755 39.4283C185.946 39.5075 186.108 39.6412 186.222 39.8127C186.337 39.9842 186.398 40.1857 186.398 40.3918C186.4 40.53 186.374 40.6672 186.322 40.7951C186.269 40.9231 186.192 41.0393 186.094 41.1367C185.996 41.2341 185.879 41.3107 185.751 41.362C185.623 41.4134 185.486 41.4384 185.347 41.4355ZM185.347 39.9019C185.283 39.901 185.219 39.913 185.159 39.9372C185.099 39.9615 185.045 39.9976 184.999 40.0433C184.953 40.089 184.917 40.1434 184.893 40.2032C184.869 40.2631 184.857 40.3272 184.858 40.3918C184.858 40.5218 184.909 40.6464 185.001 40.7382C185.093 40.8301 185.218 40.8817 185.347 40.8817C185.477 40.8817 185.602 40.8301 185.694 40.7382C185.786 40.6464 185.837 40.5218 185.837 40.3918C185.908 40.1149 185.631 39.9019 185.347 39.9019Z" fill="white"/>
<path d="M180.515 37.1965C180.337 37.1951 180.164 37.141 180.016 37.0411C179.869 36.9411 179.755 36.7998 179.688 36.6349C179.621 36.47 179.604 36.289 179.639 36.1145C179.675 35.9401 179.761 35.7801 179.888 35.6547C180.014 35.5293 180.174 35.4441 180.349 35.4099C180.524 35.3757 180.704 35.3939 180.869 35.4624C181.033 35.5308 181.173 35.6464 181.272 35.7945C181.371 35.9427 181.423 36.1167 181.423 36.2947C181.418 36.5334 181.32 36.7606 181.151 36.9288C180.982 37.0969 180.754 37.1928 180.515 37.1965ZM180.515 35.9468C180.446 35.9468 180.379 35.9673 180.322 36.0055C180.265 36.0437 180.22 36.098 180.194 36.1616C180.168 36.2252 180.161 36.2951 180.174 36.3626C180.188 36.4301 180.221 36.4921 180.269 36.5408C180.318 36.5894 180.38 36.6225 180.447 36.636C180.515 36.6494 180.585 36.6425 180.648 36.6162C180.712 36.5898 180.766 36.5452 180.804 36.488C180.842 36.4308 180.863 36.3635 180.863 36.2947C180.865 36.2485 180.857 36.2024 180.84 36.1593C180.824 36.1162 180.798 36.077 180.765 36.0443C180.733 36.0115 180.694 35.986 180.651 35.9692C180.607 35.9524 180.561 35.9448 180.515 35.9468Z" fill="white"/>
</svg>
