<svg width="232" height="94" viewBox="0 0 232 94" fill="none" xmlns="http://www.w3.org/2000/svg">
<path d="M184.73 2.15466e-06H31.2708C18.8249 2.15466e-06 8.06782 4.25999 1.1353 9.48559L7.22344 24.921C12.0343 21.2361 18.9668 17.2743 26.8857 17.2743C36.1101 17.2743 40.7436 21.7686 41.7867 27.8817V33.228C40.1689 43.168 30.4335 53.2216 11.8853 69.8214L0 80.5779V93.578H184.723C197.127 93.5818 209.025 88.6553 217.799 79.8822C226.574 71.1091 231.506 59.2078 231.512 46.7961C231.512 40.6495 230.302 34.5632 227.951 28.8847C225.599 23.2062 222.153 18.0468 217.809 13.7012C213.465 9.35563 208.307 5.90895 202.632 3.55806C196.956 1.20717 190.873 -0.00186298 184.73 2.15466e-06ZM219.868 46.7961C219.868 55.5328 216.841 63.9993 211.303 70.7533C205.764 77.5072 198.056 82.1307 189.493 83.836C180.929 85.5413 172.04 84.223 164.339 80.1056C156.638 75.9881 150.602 69.3264 147.259 61.2553C143.916 53.1842 143.474 44.2031 146.007 35.8421C148.54 27.4811 153.891 20.2575 161.15 15.402C168.409 10.5465 177.126 8.35943 185.815 9.21351C194.505 10.0676 202.63 13.9099 208.806 20.0859C212.323 23.5851 215.112 27.7475 217.011 32.3323C218.909 36.9171 219.881 41.8332 219.868 46.7961Z" fill="white"/>
<path d="M58.3053 43.6366C57.7356 43.643 57.1699 43.5419 56.6378 43.3384C56.1421 43.151 55.6904 42.8634 55.3109 42.4935C54.9398 42.1309 54.6434 41.6991 54.4381 41.2226C54.0219 40.1958 54.0219 39.0472 54.4381 38.0205C54.6451 37.5431 54.9441 37.1113 55.318 36.7496C55.6991 36.3835 56.1505 36.0985 56.6449 35.9118C57.1819 35.7083 57.7523 35.6072 58.3265 35.6136C58.9077 35.6072 59.485 35.7083 60.0295 35.9118C60.5317 36.1085 60.9812 36.4197 61.3422 36.8206L60.6326 37.5306C60.3347 37.2247 59.9773 36.9831 59.5825 36.8206C59.1909 36.6701 58.7744 36.5954 58.3549 36.6005C57.9281 36.5977 57.5046 36.6748 57.1061 36.8277C56.7361 36.9665 56.3981 37.179 56.1127 37.4525C55.8315 37.7236 55.6093 38.0499 55.4599 38.411C55.3071 38.7949 55.23 39.2048 55.2328 39.618C55.2307 40.0265 55.3078 40.4316 55.4599 40.8108C55.6093 41.1718 55.8315 41.4981 56.1127 41.7693C56.3942 42.0477 56.7299 42.2652 57.099 42.4083C57.498 42.5587 57.9215 42.6334 58.3478 42.6284C58.7553 42.63 59.1603 42.5653 59.547 42.4367C59.947 42.2952 60.3122 42.0701 60.6185 41.7764L61.2571 42.6284C60.8565 42.9643 60.3935 43.2176 59.8947 43.3739C59.3822 43.5454 58.8456 43.634 58.3053 43.6366ZM60.1998 42.4935V39.5754H61.2713V42.6355L60.1998 42.4935Z" fill="#0C4651"/>
<path d="M65.8978 43.6081C65.3155 43.6221 64.7392 43.4877 64.2232 43.2176C63.7572 42.9713 63.3691 42.6001 63.1021 42.1455C62.8325 41.6671 62.6954 41.1255 62.7047 40.5764C62.6941 40.0289 62.8261 39.4882 63.0879 39.0073C63.3394 38.5603 63.7072 38.1898 64.1522 37.9352C64.621 37.6759 65.1493 37.5437 65.6849 37.5518C66.2152 37.542 66.7389 37.6718 67.2034 37.9281C67.6428 38.1806 68.0019 38.5523 68.2393 39.0002C68.5012 39.4961 68.6308 40.0512 68.6154 40.6119C68.6185 40.6639 68.6185 40.7161 68.6154 40.7681C68.6192 40.8224 68.6192 40.877 68.6154 40.9314H63.5633V40.1575H68.0549L67.622 40.4273C67.6359 40.0732 67.5524 39.722 67.3808 39.412C67.215 39.1138 66.9692 38.8679 66.6712 38.702C66.3632 38.5379 66.0196 38.4521 65.6707 38.4521C65.3218 38.4521 64.9782 38.5379 64.6702 38.702C64.3713 38.8667 64.1252 39.1129 63.9606 39.412C63.7931 39.7315 63.7077 40.0878 63.7123 40.4486V40.6332C63.7061 41.0045 63.8018 41.3704 63.989 41.6911C64.1744 41.9937 64.4395 42.2394 64.7553 42.4011C65.0796 42.5549 65.4318 42.6412 65.7904 42.6546C66.149 42.668 66.5066 42.6084 66.8415 42.4792C67.1313 42.3576 67.3906 42.1733 67.6007 41.9396L68.1968 42.6496C67.9229 42.9639 67.5773 43.2075 67.1892 43.3596C66.7783 43.5235 66.3401 43.6079 65.8978 43.6081Z" fill="#0C4651"/>
<path d="M71.8082 43.6083C71.3279 43.6128 70.8496 43.5458 70.389 43.4095C70.0133 43.3081 69.658 43.1423 69.3389 42.9196L69.7859 42.0676C70.079 42.2548 70.3966 42.4006 70.7296 42.5007C71.0984 42.6217 71.4839 42.684 71.872 42.6853C72.2442 42.7138 72.6171 42.6402 72.9506 42.4723C73.0518 42.409 73.1355 42.3211 73.1938 42.2169C73.2521 42.1126 73.2831 41.9953 73.2841 41.8759C73.2872 41.7914 73.2701 41.7075 73.2343 41.6309C73.1985 41.5544 73.145 41.4874 73.0783 41.4357C72.9192 41.3259 72.7412 41.2464 72.5532 41.2014C72.3262 41.1517 72.0849 41.102 71.8437 41.0594C71.5738 41.0217 71.3061 40.9695 71.0418 40.9032C70.7842 40.8447 70.5341 40.7565 70.2968 40.6405C70.0809 40.5279 69.8977 40.3616 69.7646 40.1577C69.6177 39.9089 69.5462 39.6228 69.5588 39.3341C69.5509 38.9939 69.6585 38.661 69.8639 38.3898C70.0832 38.1038 70.3818 37.889 70.7225 37.7721C71.1419 37.615 71.5876 37.5402 72.0352 37.552C72.4317 37.5516 72.827 37.5969 73.2131 37.6869C73.5623 37.7617 73.8959 37.8962 74.1994 38.0845L73.7382 38.9365C73.4801 38.7657 73.1944 38.6408 72.8938 38.5673C72.6073 38.5027 72.3147 38.4694 72.021 38.4679C71.6567 38.4449 71.2932 38.5236 70.9709 38.6951C70.868 38.756 70.7822 38.842 70.7214 38.945C70.6606 39.0481 70.6268 39.1648 70.6232 39.2844C70.6179 39.3732 70.6338 39.4621 70.6695 39.5435C70.7053 39.625 70.76 39.6968 70.829 39.753C70.9906 39.8705 71.1739 39.955 71.3682 40.0015C71.6015 40.0672 71.8385 40.1194 72.0778 40.1577C72.3499 40.196 72.6199 40.2482 72.8867 40.3139C73.1329 40.3728 73.3711 40.461 73.5963 40.5766C73.813 40.6842 73.9987 40.8455 74.1356 41.0452C74.2867 41.287 74.3586 41.5699 74.3413 41.8546C74.351 42.1919 74.2403 42.5216 74.0291 42.7847C73.794 43.0647 73.4875 43.2757 73.1422 43.3953C72.7134 43.544 72.2619 43.6161 71.8082 43.6083Z" fill="#0C4651"/>
<path d="M74.8672 38.4888V37.6084H78.6492V38.4888H74.8672ZM77.7552 43.6079C77.4988 43.6275 77.2412 43.5956 76.9974 43.5138C76.7537 43.4321 76.5288 43.3024 76.336 43.1322C76.1653 42.9478 76.0339 42.7306 75.9497 42.4938C75.8655 42.2571 75.8304 42.0056 75.8464 41.7548V36.3091H76.9179V41.7051C76.9089 41.9633 76.9947 42.2158 77.1591 42.4151C77.2504 42.5089 77.3615 42.5812 77.4842 42.6266C77.607 42.6721 77.7383 42.6896 77.8687 42.6778C78.1754 42.6895 78.4757 42.5885 78.7131 42.3938L79.0466 43.1677C78.8758 43.3142 78.6746 43.4209 78.4576 43.4801C78.2313 43.5583 77.9944 43.6014 77.7552 43.6079Z" fill="#0C4651"/>
<path d="M80.8913 36.4653C80.7955 36.4678 80.7002 36.4508 80.6112 36.4154C80.5222 36.38 80.4412 36.327 80.3733 36.2594C80.3053 36.1974 80.2512 36.1217 80.2145 36.0372C80.1778 35.9528 80.1594 35.8616 80.1604 35.7695C80.1578 35.6752 80.1755 35.5813 80.2122 35.4944C80.2489 35.4074 80.3038 35.3293 80.3733 35.2654C80.4412 35.1979 80.5222 35.1449 80.6112 35.1095C80.7002 35.0741 80.7955 35.0571 80.8913 35.0595C80.9865 35.0562 81.0815 35.072 81.1705 35.1062C81.2595 35.1403 81.3407 35.1921 81.4092 35.2583C81.4783 35.3195 81.5332 35.395 81.57 35.4797C81.6067 35.5643 81.6245 35.656 81.6221 35.7482C81.6221 35.9365 81.5474 36.1171 81.4143 36.2503C81.2812 36.3834 81.1007 36.4582 80.9126 36.4582L80.8913 36.4653ZM80.352 43.5653V37.6297H81.4305V43.5653H80.352Z" fill="#0C4651"/>
<path d="M86.0495 43.6078C85.4948 43.6177 84.9471 43.4832 84.46 43.2173C84.0034 42.9627 83.6235 42.59 83.3602 42.1381C83.0868 41.6636 82.9471 41.1238 82.9557 40.5761C82.9442 40.0281 83.0841 39.4876 83.3602 39.0141C83.624 38.5644 84.0039 38.1941 84.46 37.942C84.9461 37.6737 85.4945 37.539 86.0495 37.5515C86.6009 37.5426 87.1455 37.6746 87.6318 37.9349C88.0899 38.1844 88.4704 38.5553 88.7316 39.007C88.9925 39.4889 89.1291 40.0282 89.1291 40.5761C89.1291 41.1241 88.9925 41.6634 88.7316 42.1452C88.4679 42.5949 88.088 42.9652 87.6318 43.2173C87.1474 43.4832 86.6019 43.6178 86.0495 43.6078ZM86.0495 42.6706C86.4065 42.6756 86.7586 42.5875 87.0713 42.415C87.3695 42.2494 87.6153 42.0034 87.7808 41.705C87.9488 41.3613 88.0361 40.9836 88.0361 40.601C88.0361 40.2183 87.9488 39.8407 87.7808 39.4969C87.6156 39.1983 87.3697 38.9522 87.0713 38.7869C86.7604 38.6091 86.4075 38.5184 86.0495 38.5242C85.6913 38.5166 85.3378 38.6075 85.0277 38.7869C84.7327 38.9568 84.4879 39.2018 84.3181 39.4969C84.1409 39.8379 84.0483 40.2166 84.0483 40.601C84.0483 40.9853 84.1409 41.364 84.3181 41.705C84.4882 41.9999 84.7329 42.2448 85.0277 42.415C85.3397 42.589 85.6923 42.6772 86.0495 42.6706ZM85.198 36.7421L86.7165 35.2866H88.0859L86.1772 36.7776L85.198 36.7421Z" fill="#0C4651"/>
<path d="M93.7555 37.5518C94.1994 37.5424 94.6393 37.6372 95.0399 37.8287C95.411 38.0142 95.7141 38.3124 95.9055 38.6807C96.1262 39.1206 96.2335 39.6088 96.2177 40.1007V43.5158H95.1463V40.2214C95.1808 39.7504 95.0306 39.2843 94.7276 38.9221C94.5712 38.7709 94.3851 38.6537 94.1812 38.5779C93.9772 38.5021 93.7598 38.4695 93.5426 38.4819C93.198 38.4761 92.8571 38.554 92.5492 38.7091C92.2671 38.8568 92.0369 39.0872 91.8893 39.3694C91.7286 39.7084 91.6508 40.0807 91.6623 40.4557V43.5158H90.5908V37.5802H91.6197V39.1777L91.4494 38.7517C91.6454 38.3629 91.958 38.0451 92.3435 37.8429C92.7832 37.6317 93.2681 37.5318 93.7555 37.5518Z" fill="#0C4651"/>
<path d="M57.064 57.2186C56.526 57.2285 55.9949 57.0963 55.5243 56.8352C55.0776 56.5835 54.7073 56.2155 54.4528 55.7702C54.1837 55.2842 54.049 54.7352 54.0626 54.1798C54.0482 53.6265 54.183 53.0796 54.4528 52.5965C54.7042 52.1506 55.0754 51.7841 55.5243 51.5386C55.9949 51.2774 56.526 51.1452 57.064 51.1552C57.5367 51.15 58.003 51.2648 58.4193 51.4889C58.8302 51.7264 59.1649 52.0761 59.3844 52.4971C59.6411 53.0198 59.7654 53.5977 59.7462 54.1798C59.7675 54.7605 59.6482 55.3378 59.3985 55.8625C59.1862 56.2879 58.8529 56.6411 58.4406 56.8778C58.0191 57.1091 57.5447 57.2265 57.064 57.2186ZM57.1492 56.2742C57.5039 56.2789 57.8537 56.1908 58.1639 56.0187C58.4608 55.8513 58.7062 55.6057 58.8735 55.3087C59.0547 54.9682 59.1451 54.5867 59.136 54.2011C59.1492 53.8173 59.0585 53.437 58.8735 53.1005C58.7067 52.8031 58.4612 52.5574 58.1639 52.3905C57.8524 52.2215 57.5036 52.133 57.1492 52.133C56.7948 52.133 56.446 52.2215 56.1345 52.3905C55.8385 52.5591 55.5934 52.8044 55.4249 53.1005C55.2374 53.4363 55.1442 53.8166 55.1553 54.2011C55.145 54.5877 55.2381 54.9701 55.4249 55.3087C55.5942 55.6042 55.8391 55.8493 56.1345 56.0187C56.4443 56.1918 56.7944 56.2799 57.1492 56.2742ZM59.1786 57.1476V55.5501L59.2424 54.1727L59.136 52.7881V48.8477H60.2074V57.1617L59.1786 57.1476Z" fill="#0C4651"/>
<path d="M64.7627 57.2189C64.2083 57.2262 63.6613 57.0918 63.1733 56.8284C62.7149 56.573 62.3346 56.1974 62.0734 55.7421C61.8082 55.2643 61.6689 54.7267 61.6689 54.1801C61.6689 53.6335 61.8082 53.0959 62.0734 52.6181C62.3364 52.1702 62.7135 51.8002 63.1662 51.546C63.6551 51.2783 64.2056 51.1437 64.7627 51.1555C65.3142 51.1466 65.8588 51.2785 66.3451 51.5389C66.8006 51.7894 67.1785 52.1603 67.4378 52.611C67.7031 53.0914 67.8422 53.6313 67.8422 54.1801C67.8422 54.7289 67.7031 55.2688 67.4378 55.7492C67.1796 56.2026 66.8015 56.5759 66.3451 56.8284C65.8593 57.0909 65.3148 57.2253 64.7627 57.2189ZM64.7627 56.2746C65.1197 56.2795 65.4719 56.1915 65.7845 56.019C66.0834 55.8543 66.3295 55.6081 66.4941 55.309C66.6696 54.9667 66.7574 54.5861 66.7495 54.2014C66.7602 53.8187 66.6723 53.4397 66.4941 53.1009C66.3301 52.8013 66.0839 52.5549 65.7845 52.3909C65.4719 52.2184 65.1197 52.1304 64.7627 52.1353C64.4056 52.1287 64.053 52.2169 63.7409 52.3909C63.4449 52.5594 63.1998 52.8047 63.0314 53.1009C62.8438 53.4366 62.7507 53.8169 62.7617 54.2014C62.7548 54.5877 62.8477 54.9692 63.0314 55.309C63.2007 55.6045 63.4456 55.8496 63.7409 56.019C64.053 56.193 64.4056 56.2812 64.7627 56.2746Z" fill="#0C4651"/>
<path d="M71.9438 57.2187C71.3804 57.2259 70.8242 57.0916 70.326 56.8282C69.8639 56.5759 69.4789 56.2029 69.212 55.749C68.9467 55.2686 68.8076 54.7287 68.8076 54.1799C68.8076 53.6311 68.9467 53.0912 69.212 52.6108C69.4791 52.1588 69.8642 51.7881 70.326 51.5387C70.8247 51.2774 71.381 51.1456 71.9438 51.1553C72.4353 51.1501 72.9212 51.2595 73.363 51.4748C73.7776 51.6828 74.1192 52.0122 74.3422 52.4191L73.5262 52.9516C73.3535 52.6751 73.108 52.4515 72.8166 52.3055C72.5372 52.1651 72.228 52.0944 71.9155 52.0996C71.554 52.0954 71.1975 52.1834 70.8795 52.3552C70.5833 52.5234 70.3381 52.7688 70.1699 53.0652C69.9824 53.4009 69.8892 53.7812 69.9003 54.1657C69.8917 54.5521 69.9847 54.9341 70.1699 55.2733C70.3369 55.5705 70.5824 55.8162 70.8795 55.9833C71.1975 56.1551 71.554 56.2431 71.9155 56.2389C72.2277 56.2408 72.5362 56.1703 72.8166 56.033C73.1065 55.8848 73.3515 55.6618 73.5262 55.3869L74.3422 55.9052C74.115 56.3089 73.7746 56.6372 73.363 56.8495C72.9266 57.0851 72.4397 57.2117 71.9438 57.2187Z" fill="#0C4651"/>
<path d="M78.2445 57.219C77.7837 57.2298 77.3269 57.1326 76.9105 56.935C76.5299 56.7528 76.2168 56.4545 76.0164 56.083C75.7895 55.6324 75.6797 55.1318 75.6971 54.6275V51.2124H76.7686V54.5281C76.7334 55.0036 76.8834 55.4743 77.1872 55.8416C77.344 55.992 77.5303 56.1081 77.7343 56.1827C77.9382 56.2572 78.1555 56.2885 78.3722 56.2747C78.7101 56.2811 79.0442 56.2031 79.3443 56.0475C79.6212 55.8934 79.8441 55.658 79.9829 55.373C80.1415 55.0384 80.2193 54.6711 80.21 54.3009V51.2337H81.2814V57.1693H80.2597V55.5718L80.4299 55.9978C80.2427 56.3875 79.9373 56.708 79.5572 56.9137C79.1539 57.1286 78.7012 57.2339 78.2445 57.219Z" fill="#0C4651"/>
<path d="M90.7541 51.1552C91.1942 51.1459 91.6301 51.2433 92.0243 51.4392C92.388 51.6268 92.6853 51.9217 92.8758 52.2841C93.0931 52.7252 93.2003 53.2125 93.188 53.7041V57.1192H92.1094V53.8248C92.1442 53.3561 91.9996 52.8916 91.705 52.5255C91.5586 52.377 91.3823 52.2616 91.1877 52.1869C90.9931 52.1122 90.7848 52.08 90.5768 52.0924C90.2485 52.0837 89.9235 52.1595 89.633 52.3125C89.3645 52.4641 89.149 52.6946 89.0157 52.9728C88.8576 53.315 88.7822 53.6895 88.7957 54.0662V57.1192H87.7172V53.8248C87.7531 53.3582 87.614 52.895 87.3269 52.5255C87.1787 52.3755 87 52.2592 86.8028 52.1845C86.6057 52.1098 86.3948 52.0784 86.1845 52.0924C85.861 52.0852 85.5409 52.1609 85.255 52.3125C84.9844 52.4637 84.7665 52.6941 84.6305 52.9728C84.47 53.3144 84.3922 53.689 84.4035 54.0662V57.1192H83.332V51.1836H84.3609V52.7598L84.1906 52.3622C84.3756 51.9751 84.6787 51.6569 85.0563 51.4534C85.4716 51.2276 85.939 51.1149 86.4116 51.1268C86.9323 51.1142 87.4445 51.2603 87.8804 51.5457C88.3008 51.8506 88.5879 52.3057 88.6822 52.8166L88.2494 52.6391C88.4308 52.1784 88.7603 51.7912 89.186 51.5386C89.6636 51.2693 90.2062 51.1366 90.7541 51.1552Z" fill="#0C4651"/>
<path d="M97.8069 57.2189C97.2273 57.2296 96.6541 57.0953 96.1394 56.8284C95.6726 56.5801 95.2843 56.2064 95.0183 55.7492C94.7455 55.2721 94.6081 54.7296 94.6209 54.1801C94.6103 53.6326 94.7424 53.0918 95.0041 52.611C95.2556 52.164 95.6234 51.7935 96.0685 51.5389C96.5346 51.2796 97.0607 51.1473 97.594 51.1555C98.1278 51.1439 98.6547 51.2764 99.1196 51.5389C99.5588 51.7886 99.918 52.1579 100.156 52.6039C100.413 53.1013 100.543 53.6554 100.532 54.2156C100.535 54.2676 100.535 54.3198 100.532 54.3718C100.535 54.4285 100.535 54.4854 100.532 54.5422H95.4795V53.7683H99.9711L99.5312 54.0381C99.5446 53.6826 99.4639 53.3298 99.297 53.0157C99.1409 52.7222 98.9079 52.4767 98.6229 52.3057C98.3149 52.1416 97.9714 52.0558 97.6224 52.0558C97.2735 52.0558 96.9299 52.1416 96.6219 52.3057C96.3221 52.4691 96.0757 52.7156 95.9124 53.0157C95.7431 53.3346 95.6577 53.6913 95.664 54.0523V54.2298C95.6567 54.6012 95.7525 54.9674 95.9408 55.2877C96.1222 55.5935 96.3884 55.8402 96.7071 55.9977C97.0314 56.1515 97.3835 56.2378 97.7421 56.2512C98.1008 56.2647 98.4584 56.205 98.7932 56.0758C99.083 55.9542 99.3423 55.7699 99.5525 55.5362L100.141 56.2462C99.8688 56.5588 99.5259 56.8021 99.1409 56.9562C98.7177 57.1302 98.2645 57.2195 97.8069 57.2189Z" fill="#0C4651"/>
<path d="M105.209 51.1553C105.653 51.1442 106.094 51.2416 106.493 51.4393C106.863 51.6259 107.167 51.9206 107.366 52.2842C107.583 52.7253 107.69 53.2125 107.678 53.7042V57.1193H106.599V53.8249C106.634 53.3538 106.484 52.8878 106.181 52.5256C106.025 52.3754 105.84 52.2593 105.637 52.1848C105.435 52.1102 105.218 52.0788 105.003 52.0925C104.656 52.0833 104.313 52.1588 104.002 52.3126C103.721 52.4583 103.492 52.6894 103.35 52.9729C103.183 53.3126 103.103 53.6881 103.115 54.0663V57.1193H102.044V51.1837H103.08V52.7883L102.91 52.3623C103.106 51.9715 103.422 51.6533 103.811 51.4535C104.244 51.2379 104.725 51.1353 105.209 51.1553Z" fill="#0C4651"/>
<path d="M108.799 52.0999V51.2124H112.581V52.0999H108.799ZM111.687 57.219C111.43 57.2381 111.172 57.2052 110.928 57.1222C110.684 57.0393 110.46 56.908 110.268 56.7362C110.097 56.552 109.965 56.3349 109.881 56.098C109.797 55.8612 109.762 55.6096 109.778 55.3588V49.9131H110.885V55.3162C110.873 55.5748 110.959 55.8283 111.126 56.0262C111.219 56.1171 111.331 56.1871 111.453 56.2311C111.576 56.2752 111.706 56.2925 111.836 56.2818C112.142 56.2929 112.443 56.1919 112.68 55.9978L113.014 56.7717C112.842 56.918 112.641 57.0268 112.425 57.0912C112.186 57.1687 111.938 57.2117 111.687 57.219Z" fill="#0C4651"/>
<path d="M116.015 57.2189C115.618 57.225 115.224 57.1476 114.858 56.9917C114.55 56.8626 114.284 56.6484 114.092 56.374C113.914 56.1072 113.82 55.7931 113.823 55.4723C113.817 55.165 113.898 54.8624 114.057 54.599C114.221 54.3192 114.469 54.0981 114.766 53.9671C115.218 53.7911 115.701 53.7113 116.185 53.7328H118.066V54.528H116.235C115.853 54.4847 115.467 54.5804 115.149 54.7978C115.059 54.879 114.986 54.9786 114.937 55.0901C114.889 55.2015 114.864 55.3222 114.866 55.4439C114.861 55.5818 114.89 55.7187 114.95 55.8426C115.011 55.9664 115.101 56.0734 115.213 56.1539C115.497 56.345 115.837 56.4373 116.178 56.4166C116.549 56.4235 116.914 56.3303 117.236 56.1468C117.535 55.9676 117.765 55.6924 117.888 55.3658L118.101 56.0758C117.956 56.4325 117.689 56.7266 117.349 56.9065C116.939 57.1248 116.479 57.2324 116.015 57.2189ZM117.966 57.1479V55.8983L117.91 55.6569V53.5269C117.923 53.3324 117.894 53.1373 117.826 52.9549C117.757 52.7724 117.65 52.6067 117.512 52.469C117.178 52.195 116.751 52.0603 116.32 52.0927C115.97 52.0927 115.623 52.1503 115.291 52.2631C114.983 52.3698 114.695 52.5283 114.44 52.7317L113.993 51.9223C114.321 51.6675 114.694 51.4772 115.093 51.3614C115.529 51.227 115.984 51.1599 116.441 51.1626C117.122 51.1177 117.796 51.3305 118.328 51.759C118.562 51.9954 118.742 52.2796 118.856 52.5921C118.97 52.9046 119.015 53.238 118.988 53.5695V57.155L117.966 57.1479Z" fill="#0C4651"/>
<path d="M120.982 57.1476V48.8477H122.054V57.1617L120.982 57.1476Z" fill="#0C4651"/>
<path d="M198.816 63.048H168.971C168.9 63.0447 168.833 63.0154 168.782 62.9657C168.731 62.916 168.699 62.8493 168.694 62.7782V43.523C168.698 43.4507 168.728 43.3822 168.779 43.331C168.83 43.2798 168.899 43.2495 168.971 43.2461H177.138C177.211 43.2495 177.279 43.2798 177.33 43.331C177.381 43.3822 177.412 43.4507 177.415 43.523V48.3226H190.436V43.523C190.441 43.4512 190.471 43.3836 190.522 43.3327C190.573 43.2819 190.641 43.2511 190.712 43.2461H198.872C198.943 43.2512 199.01 43.2823 199.06 43.3333C199.11 43.3843 199.139 43.4518 199.142 43.523V62.7995C199.111 62.864 199.066 62.9202 199.009 62.9634C198.952 63.0066 198.886 63.0357 198.816 63.048ZM169.248 62.5013H198.603V43.7928H190.989V48.5995C190.984 48.6706 190.953 48.7373 190.902 48.787C190.851 48.8367 190.784 48.866 190.712 48.8693H177.074C177.003 48.866 176.936 48.8367 176.885 48.787C176.834 48.7373 176.803 48.6706 176.798 48.5995V43.7928H169.177C169.248 43.7928 169.248 62.5226 169.248 62.5226V62.5013Z" fill="white"/>
<path d="M198.815 63.048H168.971C168.829 63.048 168.765 62.984 168.694 62.842C168.623 62.7 168.694 62.6361 168.829 62.5722L180.813 54.8901C180.863 54.8543 180.923 54.835 180.984 54.835C181.045 54.835 181.105 54.8543 181.154 54.8901L183.929 57.5596L186.696 54.8901C186.747 54.8546 186.808 54.8357 186.87 54.8357C186.932 54.8357 186.992 54.8546 187.044 54.8901L198.95 62.5013C199.025 62.5768 199.074 62.6735 199.092 62.7782C199.021 63.0054 198.95 63.048 198.815 63.048ZM169.872 62.5013H197.914L186.902 55.3657L184.063 58.1134C184.039 58.1445 184.007 58.1696 183.972 58.1868C183.936 58.2041 183.897 58.213 183.858 58.213C183.818 58.213 183.779 58.2041 183.743 58.1868C183.708 58.1696 183.676 58.1445 183.652 58.1134L180.813 55.3657L169.872 62.5013Z" fill="white"/>
<path d="M183.858 58.1985C183.821 58.2035 183.783 58.2004 183.748 58.1893C183.712 58.1783 183.679 58.1596 183.652 58.1346L168.751 43.7287C168.68 43.6577 168.609 43.5228 168.68 43.4518C168.712 43.4096 168.754 43.3754 168.802 43.352C168.85 43.3287 168.903 43.3166 168.957 43.3169H177.124C177.195 43.3202 177.262 43.3495 177.313 43.3992C177.364 43.4489 177.395 43.5156 177.4 43.5867V48.3934H190.421V43.5867C190.428 43.5162 190.459 43.4503 190.51 43.4009C190.561 43.3514 190.627 43.3217 190.698 43.3169H198.872C198.924 43.3166 198.976 43.3287 199.023 43.3521C199.07 43.3756 199.111 43.4097 199.142 43.4518C199.213 43.5228 199.142 43.6577 199.078 43.7287L184.049 58.1346C184.023 58.1574 183.993 58.1748 183.96 58.1857C183.927 58.1967 183.892 58.201 183.858 58.1985ZM169.595 43.7926L183.858 57.5808L198.12 43.7926H190.918V48.5993C190.913 48.6704 190.882 48.7371 190.831 48.7868C190.78 48.8365 190.712 48.8658 190.641 48.8691H177.074C177.003 48.8658 176.935 48.8365 176.884 48.7868C176.833 48.7371 176.802 48.6704 176.797 48.5993V43.7926H169.595Z" fill="white"/>
<path d="M177.074 43.7928H168.97C168.917 43.7931 168.864 43.7811 168.816 43.7577C168.768 43.7343 168.726 43.7002 168.693 43.6579C168.622 43.5869 168.693 43.452 168.764 43.381L176.932 35.4929C177.014 35.4416 177.112 35.4191 177.208 35.429C177.251 35.4599 177.286 35.5003 177.311 35.5472C177.336 35.594 177.349 35.6459 177.35 35.6988V43.5869C177.329 43.6447 177.292 43.695 177.243 43.7316C177.194 43.7682 177.135 43.7895 177.074 43.7928ZM169.595 43.2461H176.797V36.2526L169.595 43.2461Z" fill="white"/>
<path d="M198.816 43.7928H190.712C190.642 43.7881 190.575 43.7583 190.524 43.7089C190.474 43.6594 190.442 43.5936 190.436 43.523V35.6349C190.437 35.581 190.45 35.5281 190.475 35.4801C190.499 35.4321 190.534 35.3904 190.577 35.358C190.641 35.287 190.783 35.358 190.854 35.429L198.95 43.3171C198.978 43.3435 198.998 43.3758 199.01 43.4116C199.023 43.4474 199.027 43.4855 199.021 43.523C199.092 43.6579 198.95 43.7928 198.816 43.7928ZM190.918 43.2461H198.12L190.918 36.2526V43.2461Z" fill="white"/>
<path d="M190.712 48.8053H177.074C177.002 48.8003 176.934 48.7695 176.883 48.7187C176.833 48.6678 176.802 48.6002 176.797 48.5284V30.8281C176.802 30.757 176.833 30.6903 176.884 30.6406C176.935 30.5908 177.002 30.5616 177.074 30.5583H186.298C186.335 30.5542 186.372 30.5578 186.408 30.5688C186.443 30.5798 186.476 30.5979 186.504 30.6222L190.868 34.9461C190.892 34.9739 190.911 35.0067 190.922 35.0422C190.933 35.0777 190.936 35.1151 190.932 35.152V48.5284C190.917 48.7343 190.853 48.8053 190.712 48.8053ZM177.35 48.2515H190.357V35.2869L186.099 31.105H177.35V48.2515Z" fill="white"/>
<path d="M190.712 35.429H186.348C186.277 35.4226 186.21 35.3914 186.159 35.3408C186.109 35.2902 186.078 35.2234 186.071 35.1521V30.8282C186.072 30.7753 186.086 30.7234 186.11 30.6766C186.135 30.6297 186.17 30.5893 186.213 30.5584C186.284 30.4874 186.419 30.5584 186.49 30.6223L190.854 34.9462C190.878 34.9741 190.897 35.0068 190.908 35.0423C190.919 35.0778 190.922 35.1152 190.918 35.1521C190.989 35.358 190.854 35.429 190.712 35.429ZM186.554 34.9462H190.017L186.554 31.5169V34.9462Z" fill="white"/>
<path d="M183.652 37.211H178.685C178.612 37.211 178.541 37.1819 178.489 37.1299C178.437 37.078 178.408 37.0076 178.408 36.9341C178.408 36.8607 178.437 36.7903 178.489 36.7383C178.541 36.6864 178.612 36.6572 178.685 36.6572H183.652C183.725 36.6572 183.796 36.6864 183.848 36.7383C183.9 36.7903 183.929 36.8607 183.929 36.9341C183.929 37.0076 183.9 37.078 183.848 37.1299C183.796 37.1819 183.725 37.211 183.652 37.211Z" fill="white"/>
<path d="M188.286 39.2701H178.735C178.661 39.2701 178.591 39.2409 178.539 39.189C178.487 39.1371 178.458 39.0666 178.458 38.9932C178.458 38.9198 178.487 38.8493 178.539 38.7974C178.591 38.7455 178.661 38.7163 178.735 38.7163H188.357C188.428 38.7213 188.496 38.752 188.547 38.8029C188.598 38.8538 188.628 38.9214 188.633 38.9932C188.603 39.0646 188.555 39.1272 188.494 39.1756C188.434 39.2239 188.362 39.2564 188.286 39.2701Z" fill="white"/>
<path d="M188.285 40.4345H178.734C178.694 40.4409 178.654 40.4387 178.615 40.4279C178.577 40.4171 178.541 40.398 178.51 40.372C178.48 40.346 178.455 40.3137 178.439 40.2773C178.422 40.2409 178.413 40.2013 178.413 40.1612C178.413 40.1211 178.422 40.0815 178.439 40.0451C178.455 40.0086 178.48 39.9763 178.51 39.9503C178.541 39.9243 178.577 39.9053 178.615 39.8945C178.654 39.8837 178.694 39.8814 178.734 39.8878H188.356C188.427 39.8911 188.494 39.9204 188.545 39.9701C188.596 40.0198 188.627 40.0866 188.633 40.1576C188.615 40.2365 188.571 40.3069 188.507 40.3573C188.444 40.4077 188.366 40.4349 188.285 40.4345Z" fill="white"/>
<path d="M188.285 41.5991H178.734C178.694 41.6055 178.654 41.6032 178.615 41.5924C178.577 41.5816 178.541 41.5626 178.51 41.5366C178.48 41.5106 178.455 41.4783 178.439 41.4419C178.422 41.4055 178.413 41.3658 178.413 41.3257C178.413 41.2856 178.422 41.246 178.439 41.2096C178.455 41.1732 178.48 41.1409 178.51 41.1149C178.541 41.0889 178.577 41.0698 178.615 41.059C178.654 41.0483 178.694 41.046 178.734 41.0524H188.356C188.427 41.0557 188.494 41.0849 188.545 41.1347C188.596 41.1844 188.627 41.2511 188.633 41.3222C188.615 41.4011 188.571 41.4715 188.507 41.5218C188.444 41.5722 188.366 41.5995 188.285 41.5991Z" fill="white"/>
<path d="M188.285 42.8344H178.734C178.694 42.8408 178.654 42.8385 178.615 42.8278C178.577 42.817 178.541 42.7979 178.51 42.7719C178.48 42.7459 178.455 42.7136 178.439 42.6772C178.422 42.6408 178.413 42.6012 178.413 42.5611C178.413 42.521 178.422 42.4814 178.439 42.445C178.455 42.4085 178.48 42.3762 178.51 42.3502C178.541 42.3242 178.577 42.3052 178.615 42.2944C178.654 42.2836 178.694 42.2813 178.734 42.2877H188.356C188.427 42.291 188.494 42.3203 188.545 42.37C188.596 42.4198 188.627 42.4865 188.633 42.5575C188.603 42.6296 188.556 42.6929 188.495 42.7414C188.434 42.7899 188.362 42.8219 188.285 42.8344Z" fill="white"/>
<path d="M188.285 43.9985H178.734C178.694 44.0049 178.654 44.0026 178.615 43.9918C178.577 43.981 178.541 43.962 178.51 43.936C178.48 43.91 178.455 43.8777 178.439 43.8413C178.422 43.8049 178.413 43.7652 178.413 43.7251C178.413 43.685 178.422 43.6454 178.439 43.609C178.455 43.5726 178.48 43.5403 178.51 43.5143C178.541 43.4883 178.577 43.4693 178.615 43.4585C178.654 43.4477 178.694 43.4454 178.734 43.4518H188.356C188.428 43.4552 188.496 43.4855 188.548 43.5367C188.599 43.5879 188.629 43.6564 188.633 43.7287C188.602 43.7995 188.554 43.8613 188.494 43.9085C188.433 43.9557 188.361 43.9867 188.285 43.9985Z" fill="white"/>
<path d="M188.286 45.17H178.735C178.698 45.17 178.662 45.1628 178.629 45.1489C178.595 45.135 178.565 45.1146 178.539 45.0889C178.513 45.0632 178.493 45.0327 178.479 44.9991C178.465 44.9655 178.458 44.9295 178.458 44.8931C178.458 44.8567 178.465 44.8207 178.479 44.7871C178.493 44.7536 178.513 44.723 178.539 44.6973C178.565 44.6716 178.595 44.6512 178.629 44.6373C178.662 44.6234 178.698 44.6162 178.735 44.6162H188.357C188.428 44.6212 188.496 44.6519 188.547 44.7028C188.598 44.7537 188.628 44.8213 188.633 44.8931C188.603 44.9645 188.555 45.0271 188.494 45.0755C188.434 45.1238 188.362 45.1563 188.286 45.17Z" fill="white"/>
<path d="M166.409 54.9114C166.337 54.9064 166.269 54.8756 166.218 54.8247C166.168 54.7738 166.137 54.7062 166.132 54.6344V43.7928C166.137 43.7217 166.168 43.655 166.219 43.6052C166.27 43.5555 166.337 43.5262 166.409 43.5229C166.479 43.5277 166.546 43.5575 166.597 43.6069C166.647 43.6563 166.679 43.7222 166.685 43.7928V54.6344C166.679 54.7057 166.648 54.7725 166.597 54.8231C166.547 54.8738 166.48 54.905 166.409 54.9114Z" fill="white"/>
<path d="M166.409 59.0224C166.356 59.0226 166.303 59.0106 166.255 58.9872C166.207 58.9638 166.165 58.9297 166.133 58.8875L164.884 56.2818V42.4581C164.89 42.3868 164.921 42.32 164.972 42.2694C165.023 42.2187 165.089 42.1875 165.161 42.1812H167.651C167.722 42.1875 167.789 42.2187 167.84 42.2694C167.89 42.32 167.922 42.3868 167.928 42.4581V56.3173L166.615 58.7881C166.618 58.8172 166.615 58.8466 166.606 58.8745C166.597 58.9023 166.583 58.9281 166.563 58.95C166.544 58.972 166.52 58.9898 166.494 59.0022C166.467 59.0147 166.439 59.0215 166.409 59.0224ZM165.437 56.0759L166.409 58.0639L167.381 56.0759V42.6995H165.437V56.0759Z" fill="white"/>
<path d="M167.587 42.6992H165.096C165.024 42.6945 164.955 42.664 164.903 42.6132C164.851 42.5624 164.819 42.4948 164.812 42.4224V41.3929C164.819 41.3212 164.852 41.2544 164.904 41.2048C164.956 41.1552 165.024 41.1262 165.096 41.123H167.587C167.658 41.1278 167.724 41.1576 167.775 41.207C167.826 41.2564 167.857 41.3223 167.864 41.3929V42.4579C167.862 42.4921 167.853 42.5256 167.838 42.5564C167.823 42.5872 167.802 42.6147 167.776 42.6372C167.751 42.6598 167.721 42.6768 167.688 42.6875C167.655 42.6982 167.621 42.7021 167.587 42.6992ZM165.458 42.1454H167.402V41.6698H165.458V42.1454Z" fill="white"/>
<path d="M167.587 41.6701H165.096C165.024 41.6653 164.955 41.6348 164.903 41.584C164.851 41.5333 164.819 41.4656 164.812 41.3932V39.6182C164.82 39.3638 164.925 39.1221 165.106 38.9435C165.287 38.7649 165.53 38.6632 165.785 38.6597H166.892C167.146 38.6632 167.389 38.7649 167.57 38.9435C167.751 39.1221 167.856 39.3638 167.864 39.6182V41.4713C167.852 41.5335 167.816 41.5887 167.765 41.6256C167.713 41.6626 167.65 41.6785 167.587 41.6701ZM165.458 41.1234H167.402V39.6182C167.394 39.5105 167.347 39.4096 167.27 39.3339C167.193 39.2582 167.091 39.2129 166.984 39.2064H165.877C165.769 39.2129 165.667 39.2582 165.59 39.3339C165.514 39.4096 165.467 39.5105 165.458 39.6182V41.1305V41.1234Z" fill="white"/>
<path d="M166.409 59.0222C166.356 59.0225 166.303 59.0105 166.255 58.9871C166.207 58.9637 166.165 58.9296 166.133 58.8873L164.884 56.2816V54.7693C164.89 54.6988 164.922 54.6329 164.973 54.5835C165.023 54.534 165.09 54.5043 165.161 54.4995H167.651C167.722 54.5043 167.788 54.534 167.839 54.5835C167.89 54.6329 167.921 54.6988 167.928 54.7693V56.2816L166.615 58.7879C166.618 58.817 166.615 58.8465 166.606 58.8743C166.597 58.9022 166.583 58.9279 166.563 58.9499C166.544 58.9719 166.52 58.9897 166.494 59.0021C166.467 59.0145 166.439 59.0214 166.409 59.0222ZM165.437 56.0757L166.409 58.0637L167.381 56.0757V54.9752H165.437V56.0757Z" fill="white"/>
</svg>
