<svg width="232" height="94" viewBox="0 0 232 94" fill="none" xmlns="http://www.w3.org/2000/svg">
<path d="M184.595 2.15466e-06H10.75L4.66897 48.2374C8.78635 47.6261 12.9456 47.3412 17.1078 47.3854C35.4857 47.3854 42.9788 53.1861 42.9788 62.6646C42.9788 72.4271 33.506 76.6729 24.6008 76.6729C17.4377 76.589 10.3665 75.0478 3.81748 72.1431L0 88.2672C5.09473 90.9581 14.4256 93.507 25.5942 93.507L184.581 93.5922C190.725 93.5959 196.81 92.3883 202.487 90.0382C208.164 87.6882 213.323 84.2418 217.669 79.896C222.015 75.5502 225.462 70.3902 227.814 64.7108C230.167 59.0313 231.377 52.9438 231.377 46.7961C231.377 40.6495 230.167 34.5632 227.816 28.8847C225.465 23.2062 222.019 18.0468 217.674 13.7012C213.33 9.35561 208.173 5.90895 202.497 3.55806C196.821 1.20717 190.738 -0.00186298 184.595 2.15466e-06ZM219.733 47.6481C219.729 56.3839 216.697 64.8479 211.156 71.5984C205.614 78.3489 197.906 82.9683 189.342 84.6698C180.779 86.3714 171.891 85.0497 164.192 80.93C156.493 76.8103 150.46 70.1474 147.12 62.0762C143.78 54.005 143.34 45.0247 145.874 36.6651C148.409 28.3056 153.761 21.0837 161.02 16.2297C168.279 11.3757 176.995 9.18988 185.683 10.0445C194.372 10.8991 202.496 14.7413 208.671 20.9166C212.191 24.418 214.981 28.5839 216.88 33.1726C218.779 37.7613 219.749 42.6816 219.733 47.6481Z" fill="white"/>
<path d="M58.1705 43.6298C57.6009 43.6363 57.0351 43.5351 56.503 43.3316C56.0078 43.1467 55.5561 42.8615 55.1761 42.4938C54.6084 41.916 54.2229 41.1839 54.0677 40.3886C53.9126 39.5933 53.9945 38.7699 54.3034 38.0208C54.5074 37.5345 54.8082 37.0947 55.1876 36.7285C55.567 36.3623 56.017 36.0773 56.5101 35.8908C57.6025 35.4882 58.8024 35.4882 59.8948 35.8908C60.3984 36.085 60.8484 36.3965 61.2075 36.7996L60.4979 37.5096C60.1995 37.2042 59.8423 36.9626 59.4478 36.7996C59.0548 36.6548 58.6389 36.5826 58.2202 36.5866C57.7938 36.5816 57.3703 36.6563 56.9713 36.8067C56.601 36.9481 56.2631 37.1631 55.9779 37.4386C55.6945 37.7079 55.4719 38.0347 55.3251 38.3971C55.0227 39.166 55.0227 40.021 55.3251 40.7898C55.4737 41.1534 55.6959 41.4822 55.9779 41.7554C56.2616 42.0294 56.5969 42.2442 56.9643 42.3873C57.3628 42.5402 57.7863 42.6172 58.2131 42.6145C58.6213 42.6178 59.0269 42.5505 59.4123 42.4157C59.8131 42.2796 60.179 42.0566 60.4837 41.7625L61.1223 42.6145C60.7171 42.9352 60.2549 43.1761 59.76 43.3245C59.2489 43.5072 58.7128 43.6102 58.1705 43.6298ZM60.0651 42.4867V39.5757H61.1365V42.6358L60.0651 42.4867Z" fill="#0C4651"/>
<path d="M65.7629 43.6084C65.1806 43.6225 64.6044 43.4881 64.0883 43.218C63.6214 42.9697 63.2332 42.5959 62.9672 42.1387C62.6977 41.6604 62.5605 41.1188 62.5698 40.5697C62.5602 40.0223 62.6922 39.4818 62.953 39.0006C63.2055 38.5562 63.5733 38.1882 64.0174 37.9356C64.4842 37.6706 65.0134 37.5358 65.55 37.5451C66.0814 37.5341 66.606 37.6665 67.0685 37.9284C67.5079 38.181 67.867 38.5527 68.1045 39.0006C68.3664 39.4939 68.496 40.0468 68.4806 40.6052C68.4838 40.6572 68.4838 40.7093 68.4806 40.7613C68.4844 40.8181 68.4844 40.875 68.4806 40.9317H63.4284V40.1579H67.92L67.4872 40.4277C67.502 40.0712 67.4185 39.7175 67.2459 39.4053C67.0829 39.1049 66.8365 38.8583 66.5363 38.6953C66.2295 38.5275 65.8855 38.4395 65.5358 38.4395C65.1862 38.4395 64.8421 38.5275 64.5353 38.6953C64.2332 38.8556 63.986 39.1029 63.8258 39.4053C63.6565 39.7241 63.571 40.0808 63.5774 40.4418V40.6193C63.5701 40.9908 63.6659 41.357 63.8542 41.6773C64.0375 41.9816 64.3032 42.2278 64.6205 42.3873C64.9434 42.5457 65.2959 42.6345 65.6553 42.6479C66.0146 42.6614 66.3728 42.5992 66.7066 42.4654C66.9964 42.3438 67.2557 42.1595 67.4659 41.9258L68.0619 42.6358C67.79 42.9522 67.4438 43.1962 67.0543 43.3458C66.6454 43.5177 66.2065 43.607 65.7629 43.6084Z" fill="#0C4651"/>
<path d="M71.6734 43.6085C71.1931 43.6131 70.7148 43.5461 70.2543 43.4097C69.877 43.3091 69.5212 43.1407 69.2041 42.9127L69.6511 42.0607C69.9438 42.2505 70.2614 42.3986 70.5949 42.5009C70.9595 42.6182 71.3401 42.6781 71.7231 42.6784C72.0953 42.707 72.4682 42.6333 72.8016 42.4654C72.9029 42.4021 72.9865 42.3143 73.0448 42.21C73.1031 42.1058 73.1342 41.9885 73.1351 41.869C73.1376 41.7857 73.1203 41.7029 73.0845 41.6276C73.0487 41.5523 72.9955 41.4866 72.9294 41.4359C72.7735 41.3204 72.5943 41.2404 72.4043 41.2016C72.1772 41.1448 71.9359 41.1022 71.6947 41.0596C71.4534 41.017 71.1554 40.9673 70.8929 40.9034C70.6349 40.8426 70.3849 40.7521 70.1478 40.6336C69.932 40.521 69.7487 40.3548 69.6156 40.1508C69.4654 39.8776 69.395 39.5675 69.4125 39.2561C69.4301 38.9447 69.5349 38.6446 69.715 38.39C69.9358 38.1042 70.2337 37.8874 70.5736 37.7652C70.9929 37.6081 71.4386 37.5334 71.8863 37.5451C72.283 37.5472 72.6783 37.5948 73.0642 37.6871C73.4143 37.7588 73.7485 37.8936 74.0505 38.0847L73.5893 38.9367C73.3327 38.763 73.0465 38.6379 72.7449 38.5675C72.459 38.4995 72.1659 38.4661 71.8721 38.4681C71.5075 38.4417 71.143 38.5205 70.8219 38.6953C70.719 38.7563 70.6332 38.8423 70.5724 38.9453C70.5117 39.0483 70.4779 39.165 70.4742 39.2846C70.47 39.3723 70.4865 39.4597 70.5222 39.5399C70.558 39.62 70.612 39.6907 70.68 39.7461C70.8412 39.866 71.0245 39.9529 71.2193 40.0017C71.4393 40.0585 71.6876 40.1082 71.9289 40.1508C72.1701 40.1934 72.4681 40.2431 72.7378 40.307C72.983 40.369 73.2208 40.4571 73.4473 40.5697C73.6649 40.6794 73.8506 40.8432 73.9866 41.0454C74.1371 41.2848 74.2091 41.5654 74.1924 41.8477C74.2021 42.185 74.0914 42.5148 73.8802 42.7778C73.6471 43.06 73.3399 43.2715 72.9932 43.3884C72.5703 43.5414 72.123 43.6159 71.6734 43.6085Z" fill="#0C4651"/>
<path d="M74.7324 38.4891V37.6016H78.5145V38.4891H74.7324ZM77.6204 43.6082C77.3636 43.6265 77.1058 43.5932 76.8621 43.5102C76.6183 43.4273 76.3937 43.2965 76.2012 43.1254C76.0302 42.9413 75.8986 42.7241 75.8144 42.4872C75.7302 42.2504 75.6952 41.9988 75.7116 41.748V36.2881H76.7831V41.6912C76.7742 41.9494 76.86 42.2019 77.0243 42.4012C77.1174 42.4921 77.229 42.5621 77.3514 42.6062C77.4738 42.6502 77.6042 42.6675 77.7339 42.6568C78.0393 42.6679 78.3387 42.5698 78.5783 42.3799L78.9118 43.1538C78.7393 43.2977 78.5387 43.4041 78.3229 43.4662C78.0964 43.5458 77.86 43.5936 77.6204 43.6082Z" fill="#0C4651"/>
<path d="M80.7564 36.4586C80.6631 36.4658 80.5693 36.4545 80.4804 36.4252C80.3915 36.396 80.3093 36.3494 80.2384 36.2882C80.1695 36.2254 80.1149 36.1485 80.0782 36.0628C80.0415 35.9771 80.0235 35.8845 80.0256 35.7912C80.0234 35.6969 80.0413 35.6032 80.078 35.5164C80.1147 35.4295 80.1694 35.3514 80.2384 35.2872C80.307 35.2209 80.3882 35.1691 80.4772 35.135C80.5662 35.1008 80.6612 35.085 80.7564 35.0883C80.8517 35.085 80.9466 35.1008 81.0356 35.135C81.1246 35.1691 81.2058 35.2209 81.2744 35.2872C81.3429 35.3472 81.3975 35.4216 81.4343 35.505C81.471 35.5884 81.4891 35.6788 81.4873 35.77C81.4888 35.8646 81.4713 35.9586 81.436 36.0463C81.4006 36.1341 81.3481 36.2139 81.2815 36.2811C81.2104 36.3445 81.1272 36.3928 81.037 36.4233C80.9468 36.4538 80.8514 36.4658 80.7564 36.4586ZM80.2171 43.5586V37.6159H81.2957V43.5586H80.2171Z" fill="#0C4651"/>
<path d="M85.9146 43.6086C85.3599 43.6184 84.8122 43.4839 84.3251 43.2181C83.8701 42.9613 83.4908 42.589 83.2253 42.1389C82.952 41.6617 82.8123 41.1197 82.8209 40.5698C82.8104 40.0219 82.9503 39.4816 83.2253 39.0078C83.491 38.5596 83.8704 38.1897 84.3251 37.9357C84.8124 37.6705 85.36 37.5359 85.9146 37.5452C86.467 37.5352 87.0125 37.6698 87.4969 37.9357C87.9541 38.1832 88.3345 38.5516 88.5968 39.0007C88.8576 39.4825 88.9942 40.0218 88.9942 40.5698C88.9942 41.1177 88.8576 41.657 88.5968 42.1389C88.3334 42.5907 87.9536 42.9635 87.4969 43.2181C87.0125 43.4839 86.467 43.6185 85.9146 43.6086ZM85.9146 42.6714C86.2722 42.6738 86.6243 42.5833 86.9364 42.4087C87.2353 42.244 87.4814 41.9978 87.6459 41.6987C87.8215 41.3563 87.9093 40.9757 87.9014 40.5911C87.9111 40.2085 87.8232 39.8297 87.6459 39.4906C87.482 39.191 87.2358 38.9446 86.9364 38.7806C86.6237 38.6081 86.2716 38.52 85.9146 38.525C85.5574 38.5184 85.2049 38.6066 84.8928 38.7806C84.5968 38.9491 84.3517 39.1944 84.1832 39.4906C83.998 39.8272 83.9049 40.2069 83.9136 40.5911C83.9067 40.9773 83.9995 41.3588 84.1832 41.6987C84.3525 41.9942 84.5974 42.2393 84.8928 42.4087C85.2036 42.5873 85.5562 42.6804 85.9146 42.6785V42.6714ZM85.0631 36.7429L86.5816 35.2803H87.9511L86.0707 36.7429H85.0631Z" fill="#0C4651"/>
<path d="M93.6207 37.5449C94.0655 37.5338 94.5064 37.6313 94.9051 37.8289C95.2763 38.0144 95.5793 38.3126 95.7708 38.6809C95.9932 39.1202 96.1006 39.6088 96.083 40.1009V43.5231H95.0115V40.2287C95.0441 39.7557 94.8943 39.2882 94.5929 38.9223C94.4361 38.772 94.2498 38.6558 94.0458 38.5813C93.8418 38.5067 93.6246 38.4754 93.4079 38.4892C93.0632 38.4833 92.7223 38.5613 92.4145 38.7164C92.1324 38.864 91.9021 39.0944 91.7546 39.3767C91.5938 39.7156 91.516 40.088 91.5275 40.463V43.5231H90.4561V37.5804H91.4849V39.185L91.3146 38.759C91.5082 38.3685 91.8215 38.0501 92.2087 37.8502C92.6473 37.6344 93.1322 37.5296 93.6207 37.5449Z" fill="#0C4651"/>
<path d="M53.6221 52.0931V51.1985H57.4112V52.086L53.6221 52.0931ZM54.6297 57.1483V50.6802C54.6131 50.4212 54.6499 50.1614 54.7378 49.9171C54.8257 49.6729 54.9628 49.4493 55.1406 49.2602C55.3298 49.0819 55.5529 48.9434 55.7967 48.8531C56.0405 48.7629 56.3 48.7227 56.5597 48.7348C56.7848 48.7338 57.0091 48.7624 57.2267 48.82C57.4242 48.8712 57.6098 48.9604 57.7731 49.0827L57.4467 49.9063C57.3323 49.8135 57.2027 49.7414 57.0635 49.6933C56.9188 49.648 56.7681 49.624 56.6165 49.6223C56.4865 49.6152 56.3565 49.6348 56.2344 49.68C56.1124 49.7252 56.0009 49.795 55.9069 49.885C55.7274 50.104 55.6385 50.3835 55.6585 50.666V51.4612V51.9511V57.1199L54.6297 57.1483ZM58.9651 50.0483C58.8682 50.0517 58.7716 50.0352 58.6813 49.9998C58.591 49.9644 58.5089 49.9108 58.4401 49.8424C58.3741 49.7792 58.3217 49.7031 58.2863 49.6188C58.2509 49.5346 58.2332 49.4439 58.2343 49.3525C58.2337 49.2591 58.2517 49.1665 58.287 49.08C58.3223 48.9935 58.3743 48.9148 58.4401 48.8484C58.5089 48.78 58.591 48.7264 58.6813 48.691C58.7716 48.6556 58.8682 48.6391 58.9651 48.6425C59.0604 48.6392 59.1554 48.655 59.2444 48.6892C59.3334 48.7233 59.4146 48.7751 59.4831 48.8413C59.5513 48.9028 59.6051 48.9786 59.6407 49.0633C59.6762 49.148 59.6927 49.2394 59.6889 49.3312C59.6919 49.5189 59.6205 49.7002 59.4902 49.8353C59.4223 49.9107 59.339 49.9705 59.246 50.011C59.153 50.0514 59.0524 50.0714 58.951 50.0696L58.9651 50.0483ZM58.4259 57.1483V51.1985H59.5044V57.1412L58.4259 57.1483Z" fill="#0C4651"/>
<path d="M64.7196 51.1559C65.1635 51.1464 65.6034 51.2413 66.004 51.4328C66.3752 51.6183 66.6782 51.9165 66.8696 52.2848C67.0878 52.7256 67.195 53.2131 67.1819 53.7048V57.1199H66.1104V53.8255C66.1449 53.3544 65.9947 52.8884 65.6917 52.5262C65.5353 52.3749 65.3493 52.2577 65.1453 52.182C64.9414 52.1062 64.7239 52.0735 64.5068 52.086C64.1621 52.0802 63.8212 52.1581 63.5134 52.3132C63.2312 52.4608 63.001 52.6912 62.8535 52.9735C62.6927 53.3125 62.6149 53.6848 62.6264 54.0598V57.1199H61.5479V51.1985H62.5838V52.8031L62.4135 52.3771C62.6071 51.9865 62.9204 51.6681 63.3076 51.4683C63.7455 51.2498 64.2305 51.1425 64.7196 51.1559Z" fill="#0C4651"/>
<path d="M70.9147 57.2121C70.5156 57.2215 70.1191 57.1465 69.751 56.9921C69.4413 56.861 69.1755 56.6443 68.9846 56.3673C68.8047 56.1014 68.7105 55.7867 68.715 55.4656C68.7116 55.1585 68.7926 54.8564 68.9491 54.5923C69.1255 54.3106 69.3862 54.092 69.6942 53.9675C70.1459 53.7919 70.6292 53.7121 71.1134 53.7332H72.9937V54.5H71.1559C70.7734 54.4566 70.3881 54.5524 70.0703 54.7698C69.9794 54.8523 69.9071 54.9532 69.8582 55.0658C69.8092 55.1784 69.7848 55.3002 69.7864 55.423C69.7809 55.5609 69.8097 55.698 69.8705 55.822C69.9312 55.946 70.0218 56.0529 70.1341 56.133C70.4174 56.3266 70.7566 56.4214 71.0991 56.4028C71.4695 56.4107 71.8351 56.3175 72.1564 56.133C72.4597 55.9551 72.6908 55.6761 72.8092 55.3449L73.0221 56.0549C72.8778 56.4118 72.6146 56.7078 72.277 56.8927C71.8589 57.1173 71.389 57.2275 70.9147 57.2121ZM72.8589 57.1483V55.8916L72.8021 55.6573V53.5273C72.8128 53.332 72.783 53.1365 72.7146 52.9532C72.6462 52.77 72.5407 52.6028 72.4048 52.4623C72.0694 52.1908 71.6427 52.0586 71.2127 52.0931C70.8627 52.0931 70.5151 52.1506 70.1838 52.2635C69.873 52.3645 69.5841 52.5235 69.3323 52.7321L68.8853 51.9085C69.2127 51.6513 69.5859 51.4585 69.9851 51.3405C70.4252 51.2113 70.8817 51.1467 71.3404 51.1488C72.0188 51.1029 72.6897 51.3132 73.2208 51.7381C73.4548 51.9758 73.635 52.2612 73.7488 52.5748C73.8627 52.8885 73.9077 53.2231 73.8807 53.5557V57.1057L72.8589 57.1483Z" fill="#0C4651"/>
<path d="M79.0397 51.1559C79.4835 51.1464 79.9234 51.2413 80.324 51.4328C80.6952 51.6183 80.9982 51.9165 81.1897 52.2848C81.4134 52.7239 81.5232 53.2122 81.509 53.7048V57.1199H80.4304V53.8255C80.4649 53.3544 80.3148 52.8884 80.0118 52.5262C79.8559 52.3742 79.6699 52.2565 79.4658 52.1807C79.2617 52.1049 79.0441 52.0727 78.8268 52.086C78.4822 52.0802 78.1413 52.1581 77.8334 52.3132C77.5517 52.459 77.3232 52.6901 77.1806 52.9735C77.0142 53.3107 76.9337 53.6839 76.9464 54.0598V57.1199H75.875V51.1985H76.9039V52.8031L76.7336 52.3771C76.9337 51.9889 77.2483 51.6716 77.6347 51.4683C78.0701 51.2498 78.5528 51.1425 79.0397 51.1559Z" fill="#0C4651"/>
<path d="M86.0854 57.212C85.5216 57.223 84.9645 57.0885 84.4676 56.8216C84.0058 56.5721 83.6207 56.2015 83.3536 55.7494C83.0884 55.2691 82.9492 54.7292 82.9492 54.1804C82.9492 53.6315 83.0884 53.0917 83.3536 52.6113C83.6187 52.1577 84.0043 51.7865 84.4676 51.5392C84.9663 51.2779 85.5226 51.1461 86.0854 51.1558C86.5769 51.1506 87.0628 51.26 87.5046 51.4753C87.9192 51.6833 88.2608 52.0126 88.4838 52.4195L87.6678 52.945C87.4899 52.6729 87.2457 52.4505 86.9582 52.2989C86.6526 52.1553 86.3178 52.0851 85.9803 52.0937C85.6428 52.1023 85.3119 52.1896 85.014 52.3486C84.7207 52.5206 84.4764 52.765 84.3044 53.0586C84.1272 53.4008 84.0346 53.7807 84.0346 54.1662C84.0346 54.5517 84.1272 54.9315 84.3044 55.2738C84.4726 55.5702 84.7178 55.8155 85.014 55.9838C85.3297 56.1624 85.6874 56.2531 86.05 56.2465C86.3644 56.2474 86.6749 56.177 86.9582 56.0406C87.2457 55.8889 87.4899 55.6665 87.6678 55.3944L88.4838 55.9057C88.257 56.3115 87.9167 56.6422 87.5046 56.857C87.0669 57.0877 86.5801 57.2095 86.0854 57.212Z" fill="#0C4651"/>
<path d="M90.3503 50.0696C90.2546 50.072 90.1593 50.0551 90.0703 50.0197C89.9813 49.9843 89.9003 49.9312 89.8323 49.8637C89.7653 49.8013 89.7123 49.7254 89.6768 49.6409C89.6413 49.5565 89.6242 49.4654 89.6266 49.3738C89.6226 49.2799 89.6389 49.1863 89.6744 49.0993C89.7099 49.0123 89.7638 48.934 89.8323 48.8697C89.9003 48.8022 89.9813 48.7491 90.0703 48.7137C90.1593 48.6783 90.2546 48.6614 90.3503 48.6638C90.4467 48.6595 90.5431 48.6749 90.6333 48.709C90.7236 48.7432 90.806 48.7955 90.8754 48.8626C90.9424 48.925 90.9955 49.0009 91.031 49.0854C91.0664 49.1699 91.0835 49.2609 91.0812 49.3525C91.0842 49.5402 91.0127 49.7215 90.8825 49.8566C90.8135 49.9272 90.7305 49.9826 90.6389 50.0193C90.5472 50.056 90.4489 50.0731 90.3503 50.0696ZM89.8181 57.1696V51.1985H90.8825V57.1412L89.8181 57.1696Z" fill="#0C4651"/>
<path d="M95.5793 57.212C94.9971 57.225 94.4211 57.0907 93.9047 56.8215C93.4414 56.5741 93.0557 56.203 92.7907 55.7494C92.5185 55.272 92.3812 54.7297 92.3933 54.1803C92.3827 53.6328 92.5147 53.092 92.7765 52.6112C93.0248 52.1617 93.3934 51.7905 93.8408 51.5391C94.307 51.2797 94.8331 51.1475 95.3664 51.1557C95.8994 51.1426 96.4261 51.2726 96.892 51.532C97.3314 51.7845 97.6905 52.1562 97.928 52.6041C98.1857 53.0989 98.315 53.6507 98.304 54.2087C98.3074 54.2607 98.3074 54.3129 98.304 54.3649C98.3082 54.4216 98.3082 54.4786 98.304 54.5353H93.2519V53.7614H97.7435L97.2681 54.0383C97.2816 53.685 97.2008 53.3346 97.0339 53.023C96.8796 52.7282 96.6461 52.4823 96.3598 52.313C96.053 52.1452 95.709 52.0573 95.3593 52.0573C95.0097 52.0573 94.6656 52.1452 94.3588 52.313C94.0599 52.4777 93.8138 52.7239 93.6493 53.023C93.48 53.3419 93.3945 53.6986 93.4009 54.0596V54.2442C93.3954 54.6154 93.4911 54.9811 93.6776 55.3021C93.8588 55.6082 94.125 55.8549 94.444 56.0121C94.7919 56.1934 95.18 56.2838 95.5722 56.2748C95.8999 56.2775 96.2251 56.2172 96.5301 56.0973C96.819 55.9741 97.078 55.79 97.2894 55.5577L97.8783 56.2677C97.6057 56.5803 97.2628 56.8236 96.8778 56.9777C96.4637 57.1375 96.0231 57.217 95.5793 57.212Z" fill="#0C4651"/>
<path d="M99.7939 57.1483V51.1985H100.816V52.8173L100.716 52.4126C100.873 52.0097 101.167 51.6752 101.547 51.4683C101.985 51.2439 102.473 51.1339 102.966 51.1488V52.1854H102.724C102.473 52.1728 102.222 52.2116 101.987 52.2995C101.752 52.3874 101.536 52.5225 101.355 52.6966C100.998 53.108 100.817 53.6437 100.851 54.1876V57.1483H99.7939Z" fill="#0C4651"/>
<path d="M105.606 57.2121C105.207 57.2214 104.81 57.1464 104.442 56.992C104.134 56.8589 103.869 56.6426 103.676 56.3672C103.496 56.1014 103.402 55.7866 103.406 55.4655C103.403 55.1585 103.484 54.8564 103.641 54.5922C103.818 54.3088 104.082 54.0898 104.393 53.9674C104.844 53.7902 105.328 53.7103 105.812 53.7331H107.692V54.4999H105.854C105.472 54.4566 105.087 54.5523 104.769 54.7697C104.679 54.8534 104.608 54.9545 104.559 55.0668C104.51 55.1792 104.485 55.3004 104.485 55.4229C104.479 55.5609 104.508 55.698 104.569 55.822C104.63 55.9459 104.72 56.0528 104.833 56.1329C105.116 56.3265 105.455 56.4213 105.798 56.4027C106.168 56.4107 106.534 56.3174 106.855 56.1329C107.158 55.9551 107.389 55.6761 107.508 55.3448L107.728 56.0548C107.578 56.4107 107.313 56.7058 106.976 56.8926C106.555 57.1185 106.083 57.2287 105.606 57.2121ZM107.55 57.1482V55.8915L107.494 55.6572V53.5272C107.504 53.3319 107.474 53.1364 107.406 52.9532C107.338 52.7699 107.232 52.6028 107.096 52.4622C106.761 52.1907 106.334 52.0586 105.904 52.093C105.554 52.0935 105.207 52.1511 104.875 52.2634C104.564 52.3645 104.275 52.5234 104.024 52.732L103.577 51.9226C103.906 51.664 104.282 51.4712 104.684 51.3546C105.121 51.2249 105.575 51.1603 106.032 51.1629C106.71 51.1171 107.381 51.3274 107.912 51.7522C108.146 51.9899 108.326 52.2753 108.44 52.589C108.554 52.9027 108.599 53.2372 108.572 53.5698V57.1198L107.55 57.1482Z" fill="#0C4651"/>
<path d="M195.671 55.1883H173.291C173.216 55.185 173.145 55.1542 173.092 55.1018C173.038 55.0495 173.006 54.9791 173 54.9043C173.001 54.5837 172.939 54.2661 172.816 53.97C172.692 53.674 172.512 53.4054 172.284 53.1801C172.056 52.9547 171.785 52.777 171.488 52.6573C171.191 52.5377 170.873 52.4785 170.552 52.4832C170.479 52.4782 170.409 52.4467 170.357 52.3945C170.305 52.3423 170.274 52.2729 170.269 52.1992V44.4957C170.274 44.422 170.305 44.3526 170.357 44.3004C170.409 44.2482 170.479 44.2167 170.552 44.2117C170.873 44.2154 171.191 44.1554 171.489 44.035C171.786 43.9145 172.056 43.7362 172.284 43.5102C172.512 43.2843 172.693 43.0152 172.816 42.7188C172.939 42.4224 173.001 42.1044 173 41.7835C173.006 41.7087 173.038 41.6383 173.092 41.586C173.145 41.5336 173.216 41.5028 173.291 41.4995H195.671C195.745 41.5045 195.814 41.536 195.866 41.5882C195.919 41.6404 195.95 41.7098 195.955 41.7835C195.957 42.1097 196.024 42.4323 196.152 42.7322C196.281 43.0321 196.468 43.3032 196.702 43.5295C196.937 43.7558 197.215 43.9328 197.519 44.0499C197.824 44.1671 198.148 44.2221 198.474 44.2117C198.549 44.215 198.62 44.2458 198.674 44.2982C198.727 44.3506 198.76 44.4209 198.765 44.4957V52.1282C198.76 52.203 198.727 52.2733 198.674 52.3257C198.62 52.3781 198.549 52.4089 198.474 52.4122C197.82 52.4008 197.187 52.649 196.715 53.1027C196.243 53.5564 195.97 54.1786 195.955 54.8333C195.963 54.9178 195.938 55.0021 195.885 55.0683C195.832 55.1346 195.755 55.1776 195.671 55.1883ZM173.575 54.6203H195.451C195.528 53.9224 195.841 53.2721 196.34 52.7783C196.839 52.2844 197.492 51.9772 198.19 51.9081V44.8081C197.493 44.7393 196.841 44.433 196.342 43.9407C195.844 43.4483 195.529 42.7996 195.451 42.103H173.575C173.5 42.7995 173.187 43.4487 172.69 43.9415C172.192 44.4342 171.54 44.7403 170.843 44.8081V51.9081C171.546 51.9641 172.205 52.2673 172.705 52.7638C173.206 53.2603 173.514 53.9181 173.575 54.6203Z" fill="white"/>
<path d="M184.446 52.8384C183.545 52.83 182.667 52.5551 181.923 52.0484C181.178 51.5417 180.6 50.8258 180.261 49.9909C179.922 49.156 179.838 48.2394 180.019 47.3566C180.2 46.4739 180.637 45.6644 181.277 45.0302C181.917 44.396 182.73 43.9654 183.614 43.7927C184.498 43.6199 185.413 43.7128 186.244 44.0596C187.075 44.4063 187.785 44.9915 188.285 45.7413C188.784 46.4911 189.051 47.372 189.051 48.2731C189.05 48.876 188.93 49.4727 188.698 50.029C188.465 50.5852 188.125 51.09 187.697 51.5143C187.269 51.9386 186.762 52.274 186.204 52.5013C185.646 52.7285 185.048 52.8431 184.446 52.8384ZM184.446 44.3539C183.657 44.3609 182.888 44.6015 182.235 45.0453C181.583 45.489 181.076 46.1162 180.78 46.8476C180.483 47.579 180.409 48.382 180.568 49.1552C180.727 49.9284 181.111 50.6373 181.671 51.1925C182.232 51.7477 182.945 52.1244 183.719 52.275C184.494 52.4255 185.295 52.3433 186.023 52.0387C186.751 51.734 187.372 51.2205 187.809 50.5631C188.245 49.9056 188.477 49.1335 188.476 48.3441C188.474 47.817 188.368 47.2955 188.165 46.8095C187.961 46.3234 187.663 45.8824 187.289 45.5117C186.914 45.141 186.471 44.8479 185.983 44.6492C185.495 44.4505 184.972 44.3502 184.446 44.3539Z" fill="white"/>
<path d="M184.659 49.7003C184.733 49.7021 184.806 49.6832 184.87 49.6455C184.934 49.6079 184.986 49.5531 185.021 49.4873C185.11 49.3903 185.16 49.264 185.163 49.1323C185.163 48.9903 185.163 48.9193 185.092 48.8483C184.981 48.7602 184.859 48.6863 184.73 48.6282V49.7003H184.659ZM184.297 46.7041C184.226 46.7751 184.084 46.7751 184.013 46.9171C183.957 47.003 183.932 47.1059 183.942 47.2082C183.932 47.3083 183.957 47.4089 184.013 47.4922C184.094 47.5799 184.19 47.6521 184.297 47.7052V46.7041ZM184.297 49.6293V48.4862C184 48.4201 183.727 48.2726 183.509 48.0602C183.34 47.8326 183.24 47.5618 183.218 47.2792C183.21 47.1348 183.232 46.9904 183.282 46.8548C183.332 46.7192 183.409 46.5953 183.509 46.4911C183.607 46.3783 183.728 46.2882 183.864 46.2269C184 46.1656 184.148 46.1346 184.297 46.1361V45.8521H184.659V46.1361C184.91 46.1887 185.15 46.2848 185.368 46.4201C185.542 46.597 185.665 46.8178 185.723 47.0591L185.014 47.1372C184.943 46.9171 184.872 46.7751 184.652 46.7041V47.7762C185.005 47.8481 185.33 48.0207 185.588 48.2732C185.731 48.4821 185.806 48.7302 185.801 48.9832C185.815 49.1371 185.796 49.2921 185.748 49.4386C185.699 49.5852 185.62 49.7202 185.517 49.8352C185.277 50.0594 184.976 50.2076 184.652 50.2612V50.7653H184.219V50.2612C183.929 50.2175 183.656 50.0947 183.431 49.9062C183.316 49.7967 183.224 49.6646 183.162 49.518C183.099 49.3714 183.068 49.2134 183.069 49.0542L183.779 48.9832C183.784 49.1157 183.837 49.2418 183.928 49.3382C184.031 49.4577 184.157 49.5565 184.297 49.6293Z" fill="white"/>
<path d="M200.347 57.0415H168.608C168.534 57.0365 168.465 57.005 168.413 56.9528C168.361 56.9006 168.329 56.8312 168.324 56.7575V39.8382C168.329 39.7645 168.361 39.6952 168.413 39.6429C168.465 39.5907 168.534 39.5592 168.608 39.5542H200.418C200.493 39.5575 200.564 39.5883 200.618 39.6407C200.671 39.6931 200.704 39.7634 200.709 39.8382V56.7362C200.68 56.8139 200.632 56.8829 200.568 56.9363C200.505 56.9898 200.429 57.026 200.347 57.0415ZM168.828 56.4735H200.049V40.1435H168.828V56.4735Z" fill="white"/>
<path d="M168.608 55.9765H167.515C167.442 55.9715 167.372 55.94 167.32 55.8878C167.268 55.8356 167.236 55.7662 167.231 55.6925V38.7945C167.235 38.7196 167.266 38.6485 167.318 38.5948C167.37 38.5411 167.441 38.5086 167.515 38.5034H199.325C199.401 38.5084 199.472 38.5407 199.526 38.5942C199.579 38.6478 199.611 38.719 199.616 38.7945V39.8382C199.61 39.9125 199.577 39.982 199.523 40.0341C199.47 40.0862 199.4 40.1174 199.325 40.1222H168.814V55.6002C168.828 55.8345 168.757 55.9765 168.608 55.9765ZM167.82 55.4014H168.324V39.8382C168.329 39.7645 168.361 39.6952 168.413 39.643C168.465 39.5907 168.534 39.5592 168.608 39.5542H199.056V39.0572H167.835L167.82 55.4014Z" fill="white"/>
<path d="M167.515 54.8335H166.451C166.377 54.8285 166.308 54.797 166.256 54.7448C166.204 54.6926 166.172 54.6232 166.167 54.5495V37.7083C166.172 37.6347 166.204 37.5653 166.256 37.5131C166.308 37.4608 166.377 37.4293 166.451 37.4243H198.261C198.335 37.4291 198.406 37.4604 198.459 37.5125C198.512 37.5645 198.545 37.634 198.552 37.7083V38.7804C198.545 38.8547 198.512 38.9242 198.459 38.9763C198.406 39.0284 198.335 39.0596 198.261 39.0644H167.82V54.5353C167.818 54.6151 167.786 54.6909 167.728 54.7466C167.671 54.8024 167.595 54.8336 167.515 54.8335ZM166.728 54.2655H167.231V38.7947C167.235 38.7197 167.265 38.6486 167.318 38.5949C167.37 38.5412 167.44 38.5087 167.515 38.5035H197.956V37.9355H166.735L166.728 54.2655Z" fill="white"/>
<path d="M166.451 53.7685H165.387C165.312 53.7621 165.241 53.7293 165.188 53.6761C165.135 53.6228 165.102 53.5525 165.096 53.4774V36.5794C165.102 36.5051 165.135 36.4356 165.189 36.3836C165.242 36.3315 165.312 36.3002 165.387 36.2954H197.197C197.27 36.3004 197.34 36.3319 197.392 36.3841C197.444 36.4363 197.476 36.5057 197.481 36.5794V37.7083C197.476 37.782 197.444 37.8514 197.392 37.9036C197.34 37.9558 197.27 37.9873 197.197 37.9923H166.756V53.4632C166.753 53.5431 166.719 53.6187 166.663 53.6752C166.606 53.7318 166.531 53.765 166.451 53.7685ZM165.663 53.1934H166.167V37.7083C166.172 37.6346 166.204 37.5653 166.256 37.513C166.308 37.4608 166.377 37.4293 166.451 37.4243H196.892V36.8492H165.67L165.663 53.1934Z" fill="white"/>
<path d="M189.767 58.3976H166.671C166.595 58.3976 166.523 58.3676 166.47 58.3144C166.417 58.2611 166.387 58.1889 166.387 58.1136C166.387 58.0382 166.417 57.966 166.47 57.9127C166.523 57.8595 166.595 57.8296 166.671 57.8296H189.767C189.842 57.8344 189.912 57.8656 189.965 57.9177C190.018 57.9698 190.051 58.0393 190.058 58.1136C190.061 58.1523 190.056 58.1914 190.043 58.2279C190.029 58.2644 190.008 58.2974 189.98 58.3246C189.952 58.3517 189.919 58.3724 189.882 58.385C189.845 58.3976 189.806 58.4019 189.767 58.3976Z" fill="white"/>
<path d="M196.175 59.8249H180.195C180.12 59.8249 180.048 59.7949 179.994 59.7417C179.941 59.6884 179.911 59.6162 179.911 59.5409C179.911 59.4655 179.941 59.3933 179.994 59.34C180.048 59.2868 180.12 59.2568 180.195 59.2568H196.175C196.25 59.2568 196.322 59.2868 196.375 59.34C196.428 59.3933 196.458 59.4655 196.458 59.5409C196.458 59.6162 196.428 59.6884 196.375 59.7417C196.322 59.7949 196.25 59.8249 196.175 59.8249Z" fill="white"/>
<path d="M199.773 59.8249H197.757C197.682 59.8249 197.61 59.7949 197.557 59.7417C197.504 59.6884 197.474 59.6162 197.474 59.5409C197.474 59.4655 197.504 59.3933 197.557 59.34C197.61 59.2868 197.682 59.2568 197.757 59.2568H199.773C199.848 59.2568 199.92 59.2868 199.973 59.34C200.027 59.3933 200.056 59.4655 200.056 59.5409C200.056 59.6162 200.027 59.6884 199.973 59.7417C199.92 59.7949 199.848 59.8249 199.773 59.8249Z" fill="white"/>
<path d="M173.291 59.7535H165.734C165.659 59.7535 165.587 59.7236 165.533 59.6704C165.48 59.6171 165.45 59.5449 165.45 59.4696C165.45 59.3942 165.48 59.322 165.533 59.2687C165.587 59.2155 165.659 59.1855 165.734 59.1855H173.291C173.365 59.1905 173.434 59.222 173.486 59.2743C173.538 59.3265 173.57 59.3959 173.575 59.4696C173.575 59.7181 173.504 59.7535 173.291 59.7535Z" fill="white"/>
</svg>
